IBM Plex Serif-Text_extracted.ufo
<glyph name="exclam" format="2">
  <advance width="282"/>
  <unicode hex="0021"/>
  <outline>
    <contour>
      <point x="141" y="-12" type="qcurve"/>
      <point x="109" y="-12"/>
      <point x="74" y="26"/>
      <point x="74" y="53" type="qcurve"/>
      <point x="74" y="59" type="line"/>
      <point x="74" y="86"/>
      <point x="109" y="124"/>
      <point x="141" y="124" type="qcurve"/>
      <point x="173" y="124"/>
      <point x="208" y="86"/>
      <point x="208" y="59" type="qcurve"/>
      <point x="208" y="53" type="line"/>
      <point x="208" y="26"/>
      <point x="173" y="-12"/>
    </contour>
    <contour>
      <point x="92" y="501" type="line"/>
      <point x="92" y="698" type="line"/>
      <point x="190" y="698" type="line"/>
      <point x="190" y="501" type="line"/>
      <point x="161" y="191" type="line"/>
      <point x="121" y="191" type="line"/>
    </contour>
  </outline>
</glyph>
<glyph name="numbersign" format="2">
  <advance width="684"/>
  <unicode hex="0023"/>
  <outline>
    <contour>
      <point x="177" y="204" type="line"/>
      <point x="52" y="204" type="line"/>
      <point x="52" y="260" type="line"/>
      <point x="187" y="260" type="line"/>
      <point x="217" y="438" type="line"/>
      <point x="92" y="438" type="line"/>
      <point x="92" y="494" type="line"/>
      <point x="226" y="494" type="line"/>
      <point x="261" y="698" type="line"/>
      <point x="322" y="698" type="line"/>
      <point x="288" y="494" type="line"/>
      <point x="445" y="494" type="line"/>
      <point x="479" y="698" type="line"/>
      <point x="541" y="698" type="line"/>
      <point x="507" y="494" type="line"/>
      <point x="632" y="494" type="line"/>
      <point x="632" y="438" type="line"/>
      <point x="497" y="438" type="line"/>
      <point x="467" y="260" type="line"/>
      <point x="592" y="260" type="line"/>
      <point x="592" y="204" type="line"/>
      <point x="458" y="204" type="line"/>
      <point x="423" y="0" type="line"/>
      <point x="362" y="0" type="line"/>
      <point x="396" y="204" type="line"/>
      <point x="239" y="204" type="line"/>
      <point x="205" y="0" type="line"/>
      <point x="143" y="0" type="line"/>
    </contour>
    <contour>
      <point x="248" y="260" type="line"/>
      <point x="405" y="260" type="line"/>
      <point x="436" y="438" type="line"/>
      <point x="279" y="438" type="line"/>
    </contour>
  </outline>
</glyph>
<glyph name="dollar" format="2">
  <advance width="593"/>
  <unicode hex="0024"/>
  <outline>
    <contour>
      <point x="274" y="-5" type="line"/>
      <point x="177" y="-2"/>
      <point x="70" y="70"/>
      <point x="70" y="123" type="qcurve"/>
      <point x="70" y="155"/>
      <point x="105" y="194"/>
      <point x="136" y="194" type="qcurve"/>
      <point x="168" y="194"/>
      <point x="200" y="156"/>
      <point x="200" y="130" type="qcurve"/>
      <point x="200" y="108"/>
      <point x="178" y="77"/>
      <point x="159" y="67" type="qcurve"/>
      <point x="159" y="64" type="line"/>
      <point x="177" y="56"/>
      <point x="235" y="46"/>
      <point x="276" y="45" type="qcurve"/>
      <point x="276" y="315" type="line"/>
      <point x="176" y="340"/>
      <point x="72" y="436"/>
      <point x="72" y="521" type="qcurve"/>
      <point x="72" y="560"/>
      <point x="101" y="624"/>
      <point x="154" y="670"/>
      <point x="229" y="698"/>
      <point x="274" y="702" type="qcurve"/>
      <point x="274" y="780" type="line"/>
      <point x="329" y="780" type="line"/>
      <point x="329" y="703" type="line"/>
      <point x="417" y="698"/>
      <point x="512" y="627"/>
      <point x="512" y="576" type="qcurve"/>
      <point x="512" y="544"/>
      <point x="477" y="505"/>
      <point x="446" y="505" type="qcurve"/>
      <point x="414" y="505"/>
      <point x="382" y="543"/>
      <point x="382" y="569" type="qcurve"/>
      <point x="382" y="591"/>
      <point x="404" y="622"/>
      <point x="423" y="632" type="qcurve"/>
      <point x="423" y="635" type="line"/>
      <point x="409" y="642"/>
      <point x="361" y="652"/>
      <point x="327" y="653" type="qcurve"/>
      <point x="327" y="404" type="line"/>
      <point x="432" y="378"/>
      <point x="531" y="281"/>
      <point x="531" y="200" type="qcurve"/>
      <point x="531" y="115"/>
      <point x="427" y="7"/>
      <point x="329" y="-4" type="qcurve"/>
      <point x="329" y="-82" type="line"/>
      <point x="274" y="-82" type="line"/>
    </contour>
    <contour>
      <point x="276" y="652" type="line"/>
      <point x="215" y="646"/>
      <point x="152" y="585"/>
      <point x="152" y="540" type="qcurve"/>
      <point x="152" y="492"/>
      <point x="213" y="434"/>
      <point x="276" y="417" type="qcurve"/>
    </contour>
    <contour>
      <point x="327" y="47" type="line"/>
      <point x="390" y="55"/>
      <point x="451" y="120"/>
      <point x="451" y="174" type="qcurve"/>
      <point x="451" y="226"/>
      <point x="390" y="288"/>
      <point x="327" y="302" type="qcurve"/>
    </contour>
  </outline>
</glyph>
<glyph name="ampersand" format="2">
  <advance width="717"/>
  <unicode hex="0026"/>
  <outline>
    <contour>
      <point x="293" y="-12" type="qcurve"/>
      <point x="238" y="-12"/>
      <point x="148" y="14"/>
      <point x="84" y="63"/>
      <point x="49" y="133"/>
      <point x="49" y="177" type="qcurve"/>
      <point x="49" y="213"/>
      <point x="71" y="270"/>
      <point x="111" y="317"/>
      <point x="167" y="356"/>
      <point x="201" y="374" type="qcurve"/>
      <point x="186" y="391" type="line"/>
      <point x="155" y="425"/>
      <point x="116" y="504"/>
      <point x="116" y="551" type="qcurve"/>
      <point x="116" y="587"/>
      <point x="143" y="646"/>
      <point x="194" y="688"/>
      <point x="264" y="710"/>
      <point x="308" y="710" type="qcurve"/>
      <point x="391" y="710"/>
      <point x="490" y="634"/>
      <point x="490" y="571" type="qcurve"/>
      <point x="490" y="540"/>
      <point x="461" y="485"/>
      <point x="413" y="438"/>
      <point x="349" y="398"/>
      <point x="313" y="381" type="qcurve"/>
      <point x="503" y="171" type="line"/>
      <point x="520" y="204"/>
      <point x="539" y="287"/>
      <point x="542" y="332" type="qcurve"/>
      <point x="470" y="332" type="line"/>
      <point x="470" y="382" type="line"/>
      <point x="675" y="382" type="line"/>
      <point x="675" y="332" type="line"/>
      <point x="597" y="332" type="line"/>
      <point x="592" y="275"/>
      <point x="562" y="173"/>
      <point x="538" y="132" type="qcurve"/>
      <point x="572" y="93" type="line"/>
      <point x="594" y="70"/>
      <point x="642" y="50"/>
      <point x="684" y="50" type="qcurve"/>
      <point x="684" y="0" type="line"/>
      <point x="606" y="0" type="line"/>
      <point x="568" y="0"/>
      <point x="515" y="23"/>
      <point x="492" y="49" type="qcurve"/>
      <point x="481" y="62" type="line"/>
      <point x="444" y="27"/>
      <point x="350" y="-12"/>
    </contour>
    <contour>
      <point x="284" y="414" type="line"/>
      <point x="343" y="445"/>
      <point x="401" y="512"/>
      <point x="401" y="554" type="qcurve"/>
      <point x="401" y="568" type="line"/>
      <point x="401" y="607"/>
      <point x="350" y="659"/>
      <point x="305" y="659" type="qcurve"/>
      <point x="258" y="659"/>
      <point x="209" y="602"/>
      <point x="209" y="560" type="qcurve"/>
      <point x="209" y="549" type="line"/>
      <point x="209" y="514"/>
      <point x="251" y="452"/>
      <point x="279" y="420" type="qcurve"/>
    </contour>
    <contour>
      <point x="308" y="45" type="qcurve"/>
      <point x="352" y="45"/>
      <point x="423" y="72"/>
      <point x="449" y="98" type="qcurve"/>
      <point x="232" y="340" type="line"/>
      <point x="186" y="310"/>
      <point x="154" y="238"/>
      <point x="154" y="193" type="qcurve"/>
      <point x="154" y="174" type="line"/>
      <point x="154" y="114"/>
      <point x="239" y="45"/>
    </contour>
  </outline>
</glyph>
<glyph name="quotesingle" format="2">
  <advance width="244"/>
  <unicode hex="0027"/>
  <outline>
    <contour>
      <point x="80" y="652" type="line"/>
      <point x="80" y="748" type="line"/>
      <point x="164" y="748" type="line"/>
      <point x="164" y="652" type="line"/>
      <point x="139" y="462" type="line"/>
      <point x="105" y="462" type="line"/>
    </contour>
  </outline>
</glyph>
<glyph name="parenleft" format="2">
  <advance width="328"/>
  <unicode hex="0028"/>
  <outline>
    <contour>
      <point x="304" y="-154" type="line"/>
      <point x="260" y="-127"/>
      <point x="171" y="-37"/>
      <point x="100" y="82"/>
      <point x="55" y="228"/>
      <point x="55" y="312" type="qcurve"/>
      <point x="55" y="396"/>
      <point x="100" y="542"/>
      <point x="171" y="661"/>
      <point x="260" y="751"/>
      <point x="304" y="778" type="qcurve"/>
      <point x="332" y="744" type="line"/>
      <point x="291" y="713"/>
      <point x="226" y="627"/>
      <point x="181" y="525"/>
      <point x="158" y="410"/>
      <point x="158" y="350" type="qcurve"/>
      <point x="158" y="274" type="line"/>
      <point x="158" y="214"/>
      <point x="181" y="99"/>
      <point x="226" y="-3"/>
      <point x="291" y="-89"/>
      <point x="332" y="-120" type="qcurve"/>
    </contour>
  </outline>
</glyph>
<glyph name="parenright" format="2">
  <advance width="328"/>
  <unicode hex="0029"/>
  <outline>
    <contour>
      <point x="-4" y="-120" type="line"/>
      <point x="37" y="-89"/>
      <point x="102" y="-3"/>
      <point x="147" y="99"/>
      <point x="170" y="214"/>
      <point x="170" y="274" type="qcurve"/>
      <point x="170" y="350" type="line"/>
      <point x="170" y="410"/>
      <point x="147" y="525"/>
      <point x="102" y="627"/>
      <point x="37" y="713"/>
      <point x="-4" y="744" type="qcurve"/>
      <point x="24" y="778" type="line"/>
      <point x="68" y="751"/>
      <point x="157" y="661"/>
      <point x="228" y="542"/>
      <point x="273" y="396"/>
      <point x="273" y="312" type="qcurve"/>
      <point x="273" y="228"/>
      <point x="228" y="82"/>
      <point x="157" y="-37"/>
      <point x="68" y="-127"/>
      <point x="24" y="-154" type="qcurve"/>
    </contour>
  </outline>
</glyph>
<glyph name="plus" format="2">
  <advance width="600"/>
  <unicode hex="002B"/>
  <outline>
    <contour>
      <point x="269" y="276" type="line"/>
      <point x="66" y="276" type="line"/>
      <point x="66" y="334" type="line"/>
      <point x="269" y="334" type="line"/>
      <point x="269" y="534" type="line"/>
      <point x="331" y="534" type="line"/>
      <point x="331" y="334" type="line"/>
      <point x="534" y="334" type="line"/>
      <point x="534" y="276" type="line"/>
      <point x="331" y="276" type="line"/>
      <point x="331" y="76" type="line"/>
      <point x="269" y="76" type="line"/>
    </contour>
  </outline>
</glyph>
<glyph name="comma" format="2">
  <advance width="267"/>
  <unicode hex="002C"/>
  <outline>
    <contour>
      <point x="41" y="-138" type="line"/>
      <point x="76" y="-107"/>
      <point x="124" y="-43"/>
      <point x="132" y="-12" type="qcurve"/>
      <point x="130" y="-12" type="line"/>
      <point x="101" y="-12"/>
      <point x="67" y="27"/>
      <point x="67" y="53" type="qcurve"/>
      <point x="67" y="59" type="line"/>
      <point x="67" y="86"/>
      <point x="102" y="124"/>
      <point x="134" y="124" type="qcurve"/>
      <point x="166" y="124"/>
      <point x="201" y="84"/>
      <point x="201" y="55" type="qcurve"/>
      <point x="201" y="45" type="line"/>
      <point x="201" y="21"/>
      <point x="185" y="-29"/>
      <point x="158" y="-78"/>
      <point x="121" y="-122"/>
      <point x="99" y="-138" type="qcurve"/>
    </contour>
  </outline>
</glyph>
<glyph name="hyphen" format="2">
  <advance width="394"/>
  <unicode hex="002D"/>
  <outline>
    <contour>
      <point x="63" y="344" type="line"/>
      <point x="331" y="344" type="line"/>
      <point x="331" y="266" type="line"/>
      <point x="63" y="266" type="line"/>
    </contour>
  </outline>
</glyph>
<glyph name="period" format="2">
  <advance width="266"/>
  <unicode hex="002E"/>
  <outline>
    <contour>
      <point x="133" y="-12" type="qcurve"/>
      <point x="101" y="-12"/>
      <point x="66" y="26"/>
      <point x="66" y="53" type="qcurve"/>
      <point x="66" y="59" type="line"/>
      <point x="66" y="86"/>
      <point x="101" y="124"/>
      <point x="133" y="124" type="qcurve"/>
      <point x="165" y="124"/>
      <point x="200" y="86"/>
      <point x="200" y="59" type="qcurve"/>
      <point x="200" y="53" type="line"/>
      <point x="200" y="26"/>
      <point x="165" y="-12"/>
    </contour>
  </outline>
</glyph>
<glyph name="slash" format="2">
  <advance width="380"/>
  <unicode hex="002F"/>
  <outline>
    <contour>
      <point x="274" y="748" type="line"/>
      <point x="338" y="748" type="line"/>
      <point x="72" y="-143" type="line"/>
      <point x="8" y="-143" type="line"/>
    </contour>
  </outline>
</glyph>
<glyph name="zero" format="2">
  <advance width="600"/>
  <unicode hex="0030"/>
  <outline>
    <contour>
      <point x="300" y="41" type="qcurve"/>
      <point x="340" y="41"/>
      <point x="395" y="73"/>
      <point x="429" y="134"/>
      <point x="443" y="221"/>
      <point x="443" y="276" type="qcurve"/>
      <point x="443" y="422" type="line"/>
      <point x="443" y="477"/>
      <point x="429" y="564"/>
      <point x="395" y="625"/>
      <point x="340" y="657"/>
      <point x="300" y="657" type="qcurve"/>
      <point x="259" y="657"/>
      <point x="205" y="625"/>
      <point x="171" y="564"/>
      <point x="157" y="477"/>
      <point x="157" y="422" type="qcurve"/>
      <point x="157" y="276" type="line"/>
      <point x="157" y="221"/>
      <point x="171" y="134"/>
      <point x="205" y="73"/>
      <point x="259" y="41"/>
    </contour>
    <contour>
      <point x="300" y="-12" type="qcurve"/>
      <point x="177" y="-12"/>
      <point x="48" y="173"/>
      <point x="48" y="349" type="qcurve"/>
      <point x="48" y="525"/>
      <point x="177" y="710"/>
      <point x="300" y="710" type="qcurve"/>
      <point x="423" y="710"/>
      <point x="552" y="525"/>
      <point x="552" y="349" type="qcurve"/>
      <point x="552" y="173"/>
      <point x="423" y="-12"/>
    </contour>
  </outline>
</glyph>
<glyph name="one" format="2">
  <advance width="600"/>
  <unicode hex="0031"/>
  <outline>
    <contour>
      <point x="99" y="49" type="line"/>
      <point x="268" y="49" type="line"/>
      <point x="268" y="620" type="line"/>
      <point x="91" y="542" type="line"/>
      <point x="74" y="588" type="line"/>
      <point x="283" y="698" type="line"/>
      <point x="369" y="698" type="line"/>
      <point x="369" y="49" type="line"/>
      <point x="533" y="49" type="line"/>
      <point x="533" y="0" type="line"/>
      <point x="99" y="0" type="line"/>
    </contour>
  </outline>
</glyph>
<glyph name="two" format="2">
  <advance width="600"/>
  <unicode hex="0032"/>
  <outline>
    <contour>
      <point x="54" y="74" type="line"/>
      <point x="275" y="296" type="line"/>
      <point x="324" y="345"/>
      <point x="380" y="444"/>
      <point x="380" y="503" type="qcurve"/>
      <point x="380" y="527" type="line"/>
      <point x="380" y="589"/>
      <point x="309" y="659"/>
      <point x="247" y="659" type="qcurve"/>
      <point x="215" y="659"/>
      <point x="167" y="647"/>
      <point x="153" y="639" type="qcurve"/>
      <point x="153" y="635" type="line"/>
      <point x="167" y="629"/>
      <point x="190" y="597"/>
      <point x="190" y="577" type="qcurve"/>
      <point x="190" y="550"/>
      <point x="154" y="513"/>
      <point x="125" y="513" type="qcurve"/>
      <point x="96" y="513"/>
      <point x="62" y="550"/>
      <point x="62" y="582" type="qcurve"/>
      <point x="62" y="608"/>
      <point x="92" y="654"/>
      <point x="146" y="689"/>
      <point x="220" y="710"/>
      <point x="264" y="710" type="qcurve"/>
      <point x="369" y="710"/>
      <point x="489" y="609"/>
      <point x="489" y="519" type="qcurve"/>
      <point x="489" y="475"/>
      <point x="462" y="401"/>
      <point x="417" y="337"/>
      <point x="356" y="279"/>
      <point x="322" y="251" type="qcurve"/>
      <point x="135" y="91" type="line"/>
      <point x="135" y="87" type="line"/>
      <point x="462" y="87" type="line"/>
      <point x="462" y="182" type="line"/>
      <point x="516" y="182" type="line"/>
      <point x="516" y="0" type="line"/>
      <point x="54" y="0" type="line"/>
    </contour>
  </outline>
</glyph>
<glyph name="three" format="2">
  <advance width="600"/>
  <unicode hex="0033"/>
  <outline>
    <contour>
      <point x="269" y="-12" type="qcurve"/>
      <point x="220" y="-12"/>
      <point x="142" y="10"/>
      <point x="88" y="46"/>
      <point x="59" y="92"/>
      <point x="59" y="116" type="qcurve"/>
      <point x="59" y="148"/>
      <point x="94" y="185"/>
      <point x="122" y="185" type="qcurve"/>
      <point x="151" y="185"/>
      <point x="187" y="149"/>
      <point x="187" y="121" type="qcurve"/>
      <point x="187" y="101"/>
      <point x="164" y="69"/>
      <point x="150" y="63" type="qcurve"/>
      <point x="150" y="59" type="line"/>
      <point x="165" y="50"/>
      <point x="218" y="39"/>
      <point x="253" y="39" type="qcurve"/>
      <point x="329" y="39"/>
      <point x="414" y="106"/>
      <point x="414" y="172" type="qcurve"/>
      <point x="414" y="206" type="line"/>
      <point x="414" y="269"/>
      <point x="335" y="338"/>
      <point x="258" y="338" type="qcurve"/>
      <point x="181" y="338" type="line"/>
      <point x="181" y="392" type="line"/>
      <point x="254" y="392" type="line"/>
      <point x="326" y="392"/>
      <point x="400" y="459"/>
      <point x="400" y="511" type="qcurve"/>
      <point x="400" y="546" type="line"/>
      <point x="400" y="602"/>
      <point x="329" y="659"/>
      <point x="270" y="659" type="qcurve"/>
      <point x="236" y="659"/>
      <point x="185" y="648"/>
      <point x="170" y="639" type="qcurve"/>
      <point x="170" y="635" type="line"/>
      <point x="184" y="629"/>
      <point x="207" y="597"/>
      <point x="207" y="577" type="qcurve"/>
      <point x="207" y="550"/>
      <point x="171" y="513"/>
      <point x="142" y="513" type="qcurve"/>
      <point x="113" y="513"/>
      <point x="79" y="550"/>
      <point x="79" y="582" type="qcurve"/>
      <point x="79" y="606"/>
      <point x="107" y="652"/>
      <point x="159" y="688"/>
      <point x="233" y="710"/>
      <point x="280" y="710" type="qcurve"/>
      <point x="329" y="710"/>
      <point x="413" y="688"/>
      <point x="474" y="645"/>
      <point x="509" y="579"/>
      <point x="509" y="535" type="qcurve"/>
      <point x="509" y="501"/>
      <point x="483" y="446"/>
      <point x="439" y="405"/>
      <point x="383" y="377"/>
      <point x="353" y="371" type="qcurve"/>
      <point x="353" y="367" type="line"/>
      <point x="384" y="361"/>
      <point x="445" y="335"/>
      <point x="493" y="291"/>
      <point x="523" y="231"/>
      <point x="523" y="191" type="qcurve"/>
      <point x="523" y="144"/>
      <point x="487" y="68"/>
      <point x="421" y="16"/>
      <point x="327" y="-12"/>
    </contour>
  </outline>
</glyph>
<glyph name="four" format="2">
  <advance width="600"/>
  <unicode hex="0034"/>
  <outline>
    <contour>
      <point x="359" y="161" type="line"/>
      <point x="39" y="161" type="line"/>
      <point x="39" y="226" type="line"/>
      <point x="360" y="698" type="line"/>
      <point x="455" y="698" type="line"/>
      <point x="455" y="235" type="line"/>
      <point x="556" y="235" type="line"/>
      <point x="556" y="161" type="line"/>
      <point x="455" y="161" type="line"/>
      <point x="455" y="0" type="line"/>
      <point x="359" y="0" type="line"/>
    </contour>
    <contour>
      <point x="103" y="235" type="line"/>
      <point x="359" y="235" type="line"/>
      <point x="359" y="602" type="line"/>
      <point x="355" y="602" type="line"/>
    </contour>
  </outline>
</glyph>
<glyph name="five" format="2">
  <advance width="600"/>
  <unicode hex="0035"/>
  <outline>
    <contour>
      <point x="268" y="-12" type="qcurve"/>
      <point x="221" y="-12"/>
      <point x="146" y="10"/>
      <point x="93" y="46"/>
      <point x="64" y="92"/>
      <point x="64" y="116" type="qcurve"/>
      <point x="64" y="148"/>
      <point x="99" y="185"/>
      <point x="127" y="185" type="qcurve"/>
      <point x="156" y="185"/>
      <point x="192" y="149"/>
      <point x="192" y="121" type="qcurve"/>
      <point x="192" y="101"/>
      <point x="169" y="69"/>
      <point x="155" y="63" type="qcurve"/>
      <point x="155" y="59" type="line"/>
      <point x="170" y="50"/>
      <point x="224" y="39"/>
      <point x="258" y="39" type="qcurve"/>
      <point x="338" y="39"/>
      <point x="418" y="118"/>
      <point x="418" y="190" type="qcurve"/>
      <point x="418" y="214" type="line"/>
      <point x="418" y="285"/>
      <point x="344" y="365"/>
      <point x="274" y="365" type="qcurve"/>
      <point x="229" y="365"/>
      <point x="168" y="327"/>
      <point x="152" y="301" type="qcurve"/>
      <point x="95" y="313" type="line"/>
      <point x="120" y="698" type="line"/>
      <point x="495" y="698" type="line"/>
      <point x="495" y="603" type="line"/>
      <point x="165" y="603" type="line"/>
      <point x="146" y="342" type="line"/>
      <point x="150" y="341" type="line"/>
      <point x="169" y="376"/>
      <point x="248" y="430"/>
      <point x="308" y="430" type="qcurve"/>
      <point x="355" y="430"/>
      <point x="435" y="402"/>
      <point x="494" y="347"/>
      <point x="527" y="264"/>
      <point x="527" y="209" type="qcurve"/>
      <point x="527" y="159"/>
      <point x="490" y="78"/>
      <point x="422" y="20"/>
      <point x="326" y="-12"/>
    </contour>
  </outline>
</glyph>
<glyph name="seven" format="2">
  <advance width="600"/>
  <unicode hex="0037"/>
  <outline>
    <contour>
      <point x="466" y="603" type="line"/>
      <point x="122" y="603" type="line"/>
      <point x="122" y="489" type="line"/>
      <point x="68" y="489" type="line"/>
      <point x="68" y="698" type="line"/>
      <point x="532" y="698" type="line"/>
      <point x="532" y="626" type="line"/>
      <point x="272" y="0" type="line"/>
      <point x="184" y="0" type="line"/>
    </contour>
  </outline>
</glyph>
<glyph name="nine" format="2">
  <advance width="600"/>
  <unicode hex="0039"/>
  <outline>
    <contour>
      <point x="139" y="32" type="line"/>
      <point x="203" y="45"/>
      <point x="308" y="103"/>
      <point x="383" y="189"/>
      <point x="428" y="297"/>
      <point x="433" y="360" type="qcurve"/>
      <point x="427" y="361" type="line"/>
      <point x="419" y="343"/>
      <point x="392" y="307"/>
      <point x="351" y="279"/>
      <point x="298" y="261"/>
      <point x="264" y="261" type="qcurve"/>
      <point x="168" y="261"/>
      <point x="60" y="380"/>
      <point x="60" y="481" type="qcurve"/>
      <point x="60" y="532"/>
      <point x="95" y="616"/>
      <point x="158" y="677"/>
      <point x="245" y="710"/>
      <point x="297" y="710" type="qcurve"/>
      <point x="355" y="710"/>
      <point x="445" y="672"/>
      <point x="506" y="600"/>
      <point x="538" y="497"/>
      <point x="538" y="432" type="qcurve"/>
      <point x="538" y="335"/>
      <point x="478" y="180"/>
      <point x="375" y="68"/>
      <point x="234" y="-1"/>
      <point x="153" y="-12" type="qcurve"/>
    </contour>
    <contour>
      <point x="298" y="323" type="qcurve"/>
      <point x="334" y="323"/>
      <point x="385" y="346"/>
      <point x="417" y="388"/>
      <point x="431" y="446"/>
      <point x="431" y="480" type="qcurve"/>
      <point x="431" y="500" type="line"/>
      <point x="431" y="534"/>
      <point x="417" y="592"/>
      <point x="385" y="634"/>
      <point x="334" y="657"/>
      <point x="298" y="657" type="qcurve"/>
      <point x="262" y="657"/>
      <point x="211" y="634"/>
      <point x="179" y="592"/>
      <point x="165" y="534"/>
      <point x="165" y="500" type="qcurve"/>
      <point x="165" y="480" type="line"/>
      <point x="165" y="446"/>
      <point x="179" y="388"/>
      <point x="211" y="346"/>
      <point x="262" y="323"/>
    </contour>
  </outline>
</glyph>
<glyph name="less" format="2">
  <advance width="600"/>
  <unicode hex="003C"/>
  <outline>
    <contour>
      <point x="89" y="232" type="line"/>
      <point x="89" y="300" type="line"/>
      <point x="511" y="544" type="line"/>
      <point x="511" y="475" type="line"/>
      <point x="158" y="269" type="line"/>
      <point x="158" y="263" type="line"/>
      <point x="511" y="57" type="line"/>
      <point x="511" y="-12" type="line"/>
    </contour>
  </outline>
</glyph>
<glyph name="equal" format="2">
  <advance width="600"/>
  <unicode hex="003D"/>
  <outline>
    <contour>
      <point x="66" y="229" type="line"/>
      <point x="534" y="229" type="line"/>
      <point x="534" y="171" type="line"/>
      <point x="66" y="171" type="line"/>
    </contour>
    <contour>
      <point x="66" y="439" type="line"/>
      <point x="534" y="439" type="line"/>
      <point x="534" y="381" type="line"/>
      <point x="66" y="381" type="line"/>
    </contour>
  </outline>
</glyph>
<glyph name="greater" format="2">
  <advance width="600"/>
  <unicode hex="003E"/>
  <outline>
    <contour>
      <point x="89" y="57" type="line"/>
      <point x="442" y="263" type="line"/>
      <point x="442" y="269" type="line"/>
      <point x="89" y="475" type="line"/>
      <point x="89" y="544" type="line"/>
      <point x="511" y="300" type="line"/>
      <point x="511" y="232" type="line"/>
      <point x="89" y="-12" type="line"/>
    </contour>
  </outline>
</glyph>
<glyph name="question" format="2">
  <advance width="495"/>
  <unicode hex="003F"/>
  <outline>
    <contour>
      <point x="168" y="374" type="line"/>
      <point x="249" y="378"/>
      <point x="347" y="447"/>
      <point x="347" y="514" type="qcurve"/>
      <point x="347" y="536" type="line"/>
      <point x="347" y="595"/>
      <point x="280" y="659"/>
      <point x="224" y="659" type="qcurve"/>
      <point x="191" y="659"/>
      <point x="145" y="647"/>
      <point x="130" y="639" type="qcurve"/>
      <point x="130" y="635" type="line"/>
      <point x="144" y="629"/>
      <point x="167" y="597"/>
      <point x="167" y="577" type="qcurve"/>
      <point x="167" y="550"/>
      <point x="131" y="513"/>
      <point x="102" y="513" type="qcurve"/>
      <point x="73" y="513"/>
      <point x="39" y="550"/>
      <point x="39" y="582" type="qcurve"/>
      <point x="39" y="608"/>
      <point x="70" y="655"/>
      <point x="125" y="690"/>
      <point x="198" y="710"/>
      <point x="240" y="710" type="qcurve"/>
      <point x="339" y="710"/>
      <point x="454" y="611"/>
      <point x="454" y="526" type="qcurve"/>
      <point x="454" y="480"/>
      <point x="419" y="408"/>
      <point x="358" y="355"/>
      <point x="275" y="324"/>
      <point x="227" y="320" type="qcurve"/>
      <point x="227" y="210" type="line"/>
      <point x="168" y="210" type="line"/>
    </contour>
    <contour>
      <point x="198" y="-12" type="qcurve"/>
      <point x="166" y="-12"/>
      <point x="131" y="26"/>
      <point x="131" y="53" type="qcurve"/>
      <point x="131" y="59" type="line"/>
      <point x="131" y="86"/>
      <point x="166" y="124"/>
      <point x="198" y="124" type="qcurve"/>
      <point x="230" y="124"/>
      <point x="265" y="86"/>
      <point x="265" y="59" type="qcurve"/>
      <point x="265" y="53" type="line"/>
      <point x="265" y="26"/>
      <point x="230" y="-12"/>
    </contour>
  </outline>
</glyph>
<glyph name="at" format="2">
  <advance width="918"/>
  <unicode hex="0040"/>
  <outline>
    <contour>
      <point x="452" y="-121" type="qcurve"/>
      <point x="366" y="-121"/>
      <point x="227" y="-63"/>
      <point x="128" y="45"/>
      <point x="74" y="196"/>
      <point x="74" y="289" type="qcurve"/>
      <point x="74" y="382"/>
      <point x="129" y="537"/>
      <point x="229" y="648"/>
      <point x="371" y="710"/>
      <point x="458" y="710" type="qcurve"/>
      <point x="544" y="710"/>
      <point x="686" y="653"/>
      <point x="787" y="551"/>
      <point x="843" y="408"/>
      <point x="843" y="322" type="qcurve"/>
      <point x="843" y="270"/>
      <point x="824" y="178"/>
      <point x="784" y="109"/>
      <point x="719" y="69"/>
      <point x="674" y="69" type="qcurve"/>
      <point x="622" y="69"/>
      <point x="564" y="118"/>
      <point x="559" y="157" type="qcurve"/>
      <point x="555" y="157" type="line"/>
      <point x="538" y="118"/>
      <point x="481" y="69"/>
      <point x="434" y="69" type="qcurve"/>
      <point x="400" y="69"/>
      <point x="339" y="96"/>
      <point x="294" y="151"/>
      <point x="268" y="233"/>
      <point x="268" y="289" type="qcurve"/>
      <point x="268" y="344"/>
      <point x="294" y="427"/>
      <point x="339" y="482"/>
      <point x="400" y="509"/>
      <point x="434" y="509" type="qcurve"/>
      <point x="479" y="509"/>
      <point x="535" y="464"/>
      <point x="547" y="431" type="qcurve"/>
      <point x="551" y="431" type="line"/>
      <point x="584" y="500" type="line"/>
      <point x="624" y="500" type="line"/>
      <point x="624" y="185" type="line"/>
      <point x="624" y="111"/>
      <point x="680" y="111" type="qcurve"/>
      <point x="728" y="111"/>
      <point x="777" y="206"/>
      <point x="777" y="306" type="qcurve"/>
      <point x="777" y="350" type="line"/>
      <point x="777" y="418"/>
      <point x="734" y="533"/>
      <point x="651" y="617"/>
      <point x="533" y="665"/>
      <point x="458" y="665" type="qcurve"/>
      <point x="383" y="665"/>
      <point x="265" y="612"/>
      <point x="182" y="519"/>
      <point x="139" y="393"/>
      <point x="139" y="320" type="qcurve"/>
      <point x="139" y="265" type="line"/>
      <point x="139" y="191"/>
      <point x="183" y="67"/>
      <point x="265" y="-22"/>
      <point x="381" y="-71"/>
      <point x="453" y="-71" type="qcurve"/>
      <point x="678" y="-71" type="line"/>
      <point x="678" y="-103" type="line"/>
      <point x="628" y="-111"/>
      <point x="514" y="-121"/>
    </contour>
    <contour>
      <point x="450" y="123" type="qcurve"/>
      <point x="498" y="123"/>
      <point x="549" y="172"/>
      <point x="549" y="216" type="qcurve"/>
      <point x="549" y="362" type="line"/>
      <point x="549" y="406"/>
      <point x="498" y="455"/>
      <point x="450" y="455" type="qcurve"/>
      <point x="400" y="455"/>
      <point x="351" y="393"/>
      <point x="351" y="341" type="qcurve"/>
      <point x="351" y="237" type="line"/>
      <point x="351" y="185"/>
      <point x="400" y="123"/>
    </contour>
  </outline>
</glyph>
<glyph name="A" format="2">
  <advance width="689"/>
  <unicode hex="0041"/>
  <outline>
    <contour>
      <point x="16" y="50" type="line"/>
      <point x="68" y="50" type="line"/>
      <point x="293" y="698" type="line"/>
      <point x="396" y="698" type="line"/>
      <point x="621" y="50" type="line"/>
      <point x="673" y="50" type="line"/>
      <point x="673" y="0" type="line"/>
      <point x="427" y="0" type="line"/>
      <point x="427" y="50" type="line"/>
      <point x="515" y="50" type="line"/>
      <point x="455" y="224" type="line"/>
      <point x="191" y="224" type="line"/>
      <point x="131" y="50" type="line"/>
      <point x="219" y="50" type="line"/>
      <point x="219" y="0" type="line"/>
      <point x="16" y="0" type="line"/>
    </contour>
    <contour>
      <point x="207" y="276" type="line"/>
      <point x="441" y="276" type="line"/>
      <point x="326" y="617" type="line"/>
      <point x="322" y="617" type="line"/>
    </contour>
  </outline>
</glyph>
<glyph name="B" format="2">
  <advance width="676"/>
  <unicode hex="0042"/>
  <outline>
    <contour>
      <point x="52" y="50" type="line"/>
      <point x="126" y="50" type="line"/>
      <point x="126" y="648" type="line"/>
      <point x="52" y="648" type="line"/>
      <point x="52" y="698" type="line"/>
      <point x="391" y="698" type="line"/>
      <point x="485" y="698"/>
      <point x="587" y="607"/>
      <point x="587" y="533" type="qcurve"/>
      <point x="587" y="496"/>
      <point x="564" y="439"/>
      <point x="527" y="397"/>
      <point x="478" y="372"/>
      <point x="452" y="367" type="qcurve"/>
      <point x="452" y="363" type="line"/>
      <point x="479" y="361"/>
      <point x="536" y="338"/>
      <point x="584" y="296"/>
      <point x="614" y="235"/>
      <point x="614" y="194" type="qcurve"/>
      <point x="614" y="149"/>
      <point x="586" y="78"/>
      <point x="535" y="27"/>
      <point x="463" y="0"/>
      <point x="419" y="0" type="qcurve"/>
      <point x="52" y="0" type="line"/>
    </contour>
    <contour>
      <point x="227" y="54" type="line"/>
      <point x="387" y="54" type="line"/>
      <point x="444" y="54"/>
      <point x="508" y="119"/>
      <point x="508" y="172" type="qcurve"/>
      <point x="508" y="216" type="line"/>
      <point x="508" y="269"/>
      <point x="444" y="334"/>
      <point x="387" y="334" type="qcurve"/>
      <point x="227" y="334" type="line"/>
    </contour>
    <contour>
      <point x="227" y="388" type="line"/>
      <point x="371" y="388" type="line"/>
      <point x="424" y="388"/>
      <point x="481" y="446"/>
      <point x="481" y="494" type="qcurve"/>
      <point x="481" y="538" type="line"/>
      <point x="481" y="586"/>
      <point x="424" y="644"/>
      <point x="371" y="644" type="qcurve"/>
      <point x="227" y="644" type="line"/>
    </contour>
  </outline>
</glyph>
<glyph name="C" format="2">
  <advance width="651"/>
  <unicode hex="0043"/>
  <outline>
    <contour>
      <point x="346" y="-12" type="qcurve"/>
      <point x="278" y="-12"/>
      <point x="169" y="39"/>
      <point x="92" y="134"/>
      <point x="50" y="267"/>
      <point x="50" y="349" type="qcurve"/>
      <point x="50" y="436"/>
      <point x="93" y="571"/>
      <point x="170" y="662"/>
      <point x="276" y="710"/>
      <point x="339" y="710" type="qcurve"/>
      <point x="404" y="710"/>
      <point x="488" y="666"/>
      <point x="502" y="636" type="qcurve"/>
      <point x="506" y="636" type="line"/>
      <point x="506" y="698" type="line"/>
      <point x="586" y="698" type="line"/>
      <point x="586" y="491" type="line"/>
      <point x="506" y="491" type="line"/>
      <point x="506" y="541" type="line"/>
      <point x="506" y="591"/>
      <point x="422" y="653"/>
      <point x="352" y="653" type="qcurve"/>
      <point x="303" y="653"/>
      <point x="231" y="617"/>
      <point x="185" y="555"/>
      <point x="162" y="471"/>
      <point x="162" y="422" type="qcurve"/>
      <point x="162" y="285" type="line"/>
      <point x="162" y="179"/>
      <point x="270" y="57"/>
      <point x="366" y="57" type="qcurve"/>
      <point x="436" y="57"/>
      <point x="531" y="130"/>
      <point x="553" y="187" type="qcurve"/>
      <point x="595" y="165" type="line"/>
      <point x="585" y="135"/>
      <point x="544" y="72"/>
      <point x="482" y="21"/>
      <point x="398" y="-12"/>
    </contour>
  </outline>
</glyph>
<glyph name="D" format="2">
  <advance width="715"/>
  <unicode hex="0044"/>
  <outline>
    <contour>
      <point x="52" y="50" type="line"/>
      <point x="126" y="50" type="line"/>
      <point x="126" y="648" type="line"/>
      <point x="52" y="648" type="line"/>
      <point x="52" y="698" type="line"/>
      <point x="351" y="698" type="line"/>
      <point x="421" y="698"/>
      <point x="536" y="654"/>
      <point x="619" y="567"/>
      <point x="665" y="436"/>
      <point x="665" y="349" type="qcurve"/>
      <point x="665" y="262"/>
      <point x="619" y="131"/>
      <point x="536" y="44"/>
      <point x="421" y="0"/>
      <point x="351" y="0" type="qcurve"/>
      <point x="52" y="0" type="line"/>
    </contour>
    <contour>
      <point x="227" y="54" type="line"/>
      <point x="338" y="54" type="line"/>
      <point x="441" y="54"/>
      <point x="553" y="176"/>
      <point x="553" y="283" type="qcurve"/>
      <point x="553" y="415" type="line"/>
      <point x="553" y="522"/>
      <point x="441" y="644"/>
      <point x="338" y="644" type="qcurve"/>
      <point x="227" y="644" type="line"/>
    </contour>
  </outline>
</glyph>
<glyph name="E" format="2">
  <advance width="644"/>
  <unicode hex="0045"/>
  <outline>
    <contour>
      <point x="52" y="50" type="line"/>
      <point x="126" y="50" type="line"/>
      <point x="126" y="648" type="line"/>
      <point x="52" y="648" type="line"/>
      <point x="52" y="698" type="line"/>
      <point x="576" y="698" type="line"/>
      <point x="576" y="527" type="line"/>
      <point x="496" y="527" type="line"/>
      <point x="496" y="644" type="line"/>
      <point x="227" y="644" type="line"/>
      <point x="227" y="388" type="line"/>
      <point x="412" y="388" type="line"/>
      <point x="412" y="464" type="line"/>
      <point x="475" y="464" type="line"/>
      <point x="475" y="258" type="line"/>
      <point x="412" y="258" type="line"/>
      <point x="412" y="334" type="line"/>
      <point x="227" y="334" type="line"/>
      <point x="227" y="54" type="line"/>
      <point x="505" y="54" type="line"/>
      <point x="505" y="182" type="line"/>
      <point x="585" y="182" type="line"/>
      <point x="585" y="0" type="line"/>
      <point x="52" y="0" type="line"/>
    </contour>
  </outline>
</glyph>
<glyph name="F" format="2">
  <advance width="628"/>
  <unicode hex="0046"/>
  <outline>
    <contour>
      <point x="52" y="50" type="line"/>
      <point x="126" y="50" type="line"/>
      <point x="126" y="648" type="line"/>
      <point x="52" y="648" type="line"/>
      <point x="52" y="698" type="line"/>
      <point x="576" y="698" type="line"/>
      <point x="576" y="527" type="line"/>
      <point x="496" y="527" type="line"/>
      <point x="496" y="644" type="line"/>
      <point x="227" y="644" type="line"/>
      <point x="227" y="374" type="line"/>
      <point x="412" y="374" type="line"/>
      <point x="412" y="450" type="line"/>
      <point x="475" y="450" type="line"/>
      <point x="475" y="244" type="line"/>
      <point x="412" y="244" type="line"/>
      <point x="412" y="320" type="line"/>
      <point x="227" y="320" type="line"/>
      <point x="227" y="50" type="line"/>
      <point x="321" y="50" type="line"/>
      <point x="321" y="0" type="line"/>
      <point x="52" y="0" type="line"/>
    </contour>
  </outline>
</glyph>
<glyph name="G" format="2">
  <advance width="732"/>
  <unicode hex="0047"/>
  <outline>
    <contour>
      <point x="345" y="-12" type="qcurve"/>
      <point x="279" y="-12"/>
      <point x="170" y="38"/>
      <point x="92" y="131"/>
      <point x="50" y="265"/>
      <point x="50" y="349" type="qcurve"/>
      <point x="50" y="436"/>
      <point x="94" y="571"/>
      <point x="174" y="663"/>
      <point x="286" y="710"/>
      <point x="355" y="710" type="qcurve"/>
      <point x="434" y="710"/>
      <point x="520" y="664"/>
      <point x="532" y="635" type="qcurve"/>
      <point x="538" y="635" type="line"/>
      <point x="538" y="698" type="line"/>
      <point x="618" y="698" type="line"/>
      <point x="618" y="491" type="line"/>
      <point x="538" y="491" type="line"/>
      <point x="538" y="539" type="line"/>
      <point x="538" y="594"/>
      <point x="450" y="653"/>
      <point x="370" y="653" type="qcurve"/>
      <point x="317" y="653"/>
      <point x="238" y="620"/>
      <point x="187" y="559"/>
      <point x="162" y="473"/>
      <point x="162" y="420" type="qcurve"/>
      <point x="162" y="279" type="line"/>
      <point x="162" y="226"/>
      <point x="190" y="142"/>
      <point x="241" y="83"/>
      <point x="312" y="51"/>
      <point x="356" y="51" type="qcurve"/>
      <point x="432" y="51"/>
      <point x="527" y="127"/>
      <point x="527" y="197" type="qcurve"/>
      <point x="527" y="290" type="line"/>
      <point x="408" y="290" type="line"/>
      <point x="408" y="340" type="line"/>
      <point x="689" y="340" type="line"/>
      <point x="689" y="290" type="line"/>
      <point x="628" y="290" type="line"/>
      <point x="628" y="0" type="line"/>
      <point x="591" y="0" type="line"/>
      <point x="540" y="98" type="line"/>
      <point x="536" y="98" type="line"/>
      <point x="528" y="78"/>
      <point x="497" y="39"/>
      <point x="449" y="8"/>
      <point x="385" y="-12"/>
    </contour>
  </outline>
</glyph>
<glyph name="H" format="2">
  <advance width="791"/>
  <unicode hex="0048"/>
  <outline>
    <contour>
      <point x="52" y="50" type="line"/>
      <point x="126" y="50" type="line"/>
      <point x="126" y="648" type="line"/>
      <point x="52" y="648" type="line"/>
      <point x="52" y="698" type="line"/>
      <point x="301" y="698" type="line"/>
      <point x="301" y="648" type="line"/>
      <point x="227" y="648" type="line"/>
      <point x="227" y="384" type="line"/>
      <point x="564" y="384" type="line"/>
      <point x="564" y="648" type="line"/>
      <point x="490" y="648" type="line"/>
      <point x="490" y="698" type="line"/>
      <point x="739" y="698" type="line"/>
      <point x="739" y="648" type="line"/>
      <point x="665" y="648" type="line"/>
      <point x="665" y="50" type="line"/>
      <point x="739" y="50" type="line"/>
      <point x="739" y="0" type="line"/>
      <point x="490" y="0" type="line"/>
      <point x="490" y="50" type="line"/>
      <point x="564" y="50" type="line"/>
      <point x="564" y="330" type="line"/>
      <point x="227" y="330" type="line"/>
      <point x="227" y="50" type="line"/>
      <point x="301" y="50" type="line"/>
      <point x="301" y="0" type="line"/>
      <point x="52" y="0" type="line"/>
    </contour>
  </outline>
</glyph>
<glyph name="I" format="2">
  <advance width="353"/>
  <unicode hex="0049"/>
  <outline>
    <contour>
      <point x="52" y="50" type="line"/>
      <point x="126" y="50" type="line"/>
      <point x="126" y="648" type="line"/>
      <point x="52" y="648" type="line"/>
      <point x="52" y="698" type="line"/>
      <point x="301" y="698" type="line"/>
      <point x="301" y="648" type="line"/>
      <point x="227" y="648" type="line"/>
      <point x="227" y="50" type="line"/>
      <point x="301" y="50" type="line"/>
      <point x="301" y="0" type="line"/>
      <point x="52" y="0" type="line"/>
    </contour>
  </outline>
</glyph>
<glyph name="J" format="2">
  <advance width="467"/>
  <unicode hex="004A"/>
  <outline>
    <contour>
      <point x="157" y="-12" type="qcurve"/>
      <point x="85" y="-12"/>
      <point x="14" y="44"/>
      <point x="14" y="87" type="qcurve"/>
      <point x="14" y="116"/>
      <point x="48" y="155"/>
      <point x="78" y="155" type="qcurve"/>
      <point x="104" y="155"/>
      <point x="135" y="121"/>
      <point x="135" y="95" type="qcurve"/>
      <point x="135" y="75"/>
      <point x="116" y="50"/>
      <point x="105" y="45" type="qcurve"/>
      <point x="105" y="42" type="line"/>
      <point x="115" y="39"/>
      <point x="141" y="35"/>
      <point x="156" y="35" type="qcurve"/>
      <point x="249" y="35"/>
      <point x="249" y="151" type="qcurve"/>
      <point x="249" y="648" type="line"/>
      <point x="155" y="648" type="line"/>
      <point x="155" y="698" type="line"/>
      <point x="424" y="698" type="line"/>
      <point x="424" y="648" type="line"/>
      <point x="350" y="648" type="line"/>
      <point x="350" y="168" type="line"/>
      <point x="350" y="80"/>
      <point x="251" y="-12"/>
    </contour>
  </outline>
</glyph>
<glyph name="K" format="2">
  <advance width="717"/>
  <unicode hex="004B"/>
  <outline>
    <contour>
      <point x="52" y="50" type="line"/>
      <point x="126" y="50" type="line"/>
      <point x="126" y="648" type="line"/>
      <point x="52" y="648" type="line"/>
      <point x="52" y="698" type="line"/>
      <point x="301" y="698" type="line"/>
      <point x="301" y="648" type="line"/>
      <point x="227" y="648" type="line"/>
      <point x="227" y="324" type="line"/>
      <point x="231" y="324" type="line"/>
      <point x="328" y="433" type="line"/>
      <point x="526" y="648" type="line"/>
      <point x="448" y="648" type="line"/>
      <point x="448" y="698" type="line"/>
      <point x="668" y="698" type="line"/>
      <point x="668" y="648" type="line"/>
      <point x="600" y="648" type="line"/>
      <point x="390" y="423" type="line"/>
      <point x="630" y="50" type="line"/>
      <point x="698" y="50" type="line"/>
      <point x="698" y="0" type="line"/>
      <point x="445" y="0" type="line"/>
      <point x="445" y="50" type="line"/>
      <point x="513" y="50" type="line"/>
      <point x="321" y="353" type="line"/>
      <point x="227" y="251" type="line"/>
      <point x="227" y="50" type="line"/>
      <point x="301" y="50" type="line"/>
      <point x="301" y="0" type="line"/>
      <point x="52" y="0" type="line"/>
    </contour>
  </outline>
</glyph>
<glyph name="L" format="2">
  <advance width="598"/>
  <unicode hex="004C"/>
  <outline>
    <contour>
      <point x="52" y="50" type="line"/>
      <point x="126" y="50" type="line"/>
      <point x="126" y="648" type="line"/>
      <point x="52" y="648" type="line"/>
      <point x="52" y="698" type="line"/>
      <point x="301" y="698" type="line"/>
      <point x="301" y="648" type="line"/>
      <point x="227" y="648" type="line"/>
      <point x="227" y="54" type="line"/>
      <point x="470" y="54" type="line"/>
      <point x="470" y="182" type="line"/>
      <point x="550" y="182" type="line"/>
      <point x="550" y="0" type="line"/>
      <point x="52" y="0" type="line"/>
    </contour>
  </outline>
</glyph>
<glyph name="M" format="2">
  <advance width="876"/>
  <unicode hex="004D"/>
  <outline>
    <contour>
      <point x="52" y="50" type="line"/>
      <point x="126" y="50" type="line"/>
      <point x="126" y="648" type="line"/>
      <point x="52" y="648" type="line"/>
      <point x="52" y="698" type="line"/>
      <point x="243" y="698" type="line"/>
      <point x="438" y="284" type="line"/>
      <point x="442" y="284" type="line"/>
      <point x="642" y="698" type="line"/>
      <point x="824" y="698" type="line"/>
      <point x="824" y="648" type="line"/>
      <point x="750" y="648" type="line"/>
      <point x="750" y="50" type="line"/>
      <point x="824" y="50" type="line"/>
      <point x="824" y="0" type="line"/>
      <point x="575" y="0" type="line"/>
      <point x="575" y="50" type="line"/>
      <point x="649" y="50" type="line"/>
      <point x="649" y="593" type="line"/>
      <point x="645" y="593" type="line"/>
      <point x="593" y="476" type="line"/>
      <point x="414" y="115" type="line"/>
      <point x="241" y="476" type="line"/>
      <point x="189" y="593" type="line"/>
      <point x="185" y="593" type="line"/>
      <point x="185" y="50" type="line"/>
      <point x="259" y="50" type="line"/>
      <point x="259" y="0" type="line"/>
      <point x="52" y="0" type="line"/>
    </contour>
  </outline>
</glyph>
<glyph name="N" format="2">
  <advance width="780"/>
  <unicode hex="004E"/>
  <outline>
    <contour>
      <point x="52" y="50" type="line"/>
      <point x="126" y="50" type="line"/>
      <point x="126" y="648" type="line"/>
      <point x="52" y="648" type="line"/>
      <point x="52" y="698" type="line"/>
      <point x="240" y="698" type="line"/>
      <point x="599" y="149" type="line"/>
      <point x="603" y="149" type="line"/>
      <point x="603" y="648" type="line"/>
      <point x="529" y="648" type="line"/>
      <point x="529" y="698" type="line"/>
      <point x="736" y="698" type="line"/>
      <point x="736" y="648" type="line"/>
      <point x="662" y="648" type="line"/>
      <point x="662" y="0" type="line"/>
      <point x="580" y="0" type="line"/>
      <point x="189" y="598" type="line"/>
      <point x="185" y="598" type="line"/>
      <point x="185" y="50" type="line"/>
      <point x="259" y="50" type="line"/>
      <point x="259" y="0" type="line"/>
      <point x="52" y="0" type="line"/>
    </contour>
  </outline>
</glyph>
<glyph name="O" format="2">
  <advance width="724"/>
  <unicode hex="004F"/>
  <outline>
    <contour>
      <point x="362" y="45" type="qcurve"/>
      <point x="410" y="45"/>
      <point x="484" y="79"/>
      <point x="535" y="141"/>
      <point x="562" y="228"/>
      <point x="562" y="281" type="qcurve"/>
      <point x="562" y="417" type="line"/>
      <point x="562" y="470"/>
      <point x="535" y="557"/>
      <point x="484" y="619"/>
      <point x="410" y="653"/>
      <point x="362" y="653" type="qcurve"/>
      <point x="314" y="653"/>
      <point x="240" y="619"/>
      <point x="189" y="557"/>
      <point x="162" y="470"/>
      <point x="162" y="417" type="qcurve"/>
      <point x="162" y="281" type="line"/>
      <point x="162" y="228"/>
      <point x="189" y="141"/>
      <point x="240" y="79"/>
      <point x="314" y="45"/>
    </contour>
    <contour>
      <point x="362" y="-12" type="qcurve"/>
      <point x="292" y="-12"/>
      <point x="177" y="38"/>
      <point x="95" y="131"/>
      <point x="50" y="265"/>
      <point x="50" y="349" type="qcurve"/>
      <point x="50" y="433"/>
      <point x="95" y="567"/>
      <point x="177" y="660"/>
      <point x="292" y="710"/>
      <point x="362" y="710" type="qcurve"/>
      <point x="432" y="710"/>
      <point x="547" y="660"/>
      <point x="629" y="567"/>
      <point x="674" y="433"/>
      <point x="674" y="349" type="qcurve"/>
      <point x="674" y="265"/>
      <point x="629" y="131"/>
      <point x="547" y="38"/>
      <point x="432" y="-12"/>
    </contour>
  </outline>
</glyph>
<glyph name="P" format="2">
  <advance width="636"/>
  <unicode hex="0050"/>
  <outline>
    <contour>
      <point x="52" y="50" type="line"/>
      <point x="126" y="50" type="line"/>
      <point x="126" y="648" type="line"/>
      <point x="52" y="648" type="line"/>
      <point x="52" y="698" type="line"/>
      <point x="389" y="698" type="line"/>
      <point x="487" y="698"/>
      <point x="590" y="603"/>
      <point x="590" y="510" type="qcurve"/>
      <point x="590" y="418"/>
      <point x="483" y="317"/>
      <point x="386" y="317" type="qcurve"/>
      <point x="227" y="317" type="line"/>
      <point x="227" y="50" type="line"/>
      <point x="321" y="50" type="line"/>
      <point x="321" y="0" type="line"/>
      <point x="52" y="0" type="line"/>
    </contour>
    <contour>
      <point x="227" y="371" type="line"/>
      <point x="373" y="371" type="line"/>
      <point x="427" y="371"/>
      <point x="484" y="435"/>
      <point x="484" y="484" type="qcurve"/>
      <point x="484" y="531" type="line"/>
      <point x="484" y="580"/>
      <point x="427" y="644"/>
      <point x="373" y="644" type="qcurve"/>
      <point x="227" y="644" type="line"/>
    </contour>
  </outline>
</glyph>
<glyph name="Q" format="2">
  <advance width="724"/>
  <unicode hex="0051"/>
  <outline>
    <contour>
      <point x="516" y="-176" type="line"/>
      <point x="487" y="-176"/>
      <point x="444" y="-167"/>
      <point x="410" y="-149"/>
      <point x="382" y="-120"/>
      <point x="368" y="-99" type="qcurve"/>
      <point x="306" y="-8" type="line"/>
      <point x="248" y="1"/>
      <point x="153" y="58"/>
      <point x="86" y="150"/>
      <point x="50" y="273"/>
      <point x="50" y="349" type="qcurve"/>
      <point x="50" y="433"/>
      <point x="95" y="567"/>
      <point x="177" y="660"/>
      <point x="292" y="710"/>
      <point x="362" y="710" type="qcurve"/>
      <point x="432" y="710"/>
      <point x="547" y="660"/>
      <point x="629" y="567"/>
      <point x="674" y="433"/>
      <point x="674" y="349" type="qcurve"/>
      <point x="674" y="272"/>
      <point x="637" y="148"/>
      <point x="568" y="56"/>
      <point x="471" y="0"/>
      <point x="412" y="-8" type="qcurve"/>
      <point x="461" y="-74" type="line"/>
      <point x="482" y="-103"/>
      <point x="520" y="-126"/>
      <point x="553" y="-126" type="qcurve"/>
      <point x="580" y="-126" type="line"/>
      <point x="580" y="-176" type="line"/>
    </contour>
    <contour>
      <point x="362" y="45" type="qcurve"/>
      <point x="410" y="45"/>
      <point x="484" y="79"/>
      <point x="535" y="141"/>
      <point x="562" y="228"/>
      <point x="562" y="281" type="qcurve"/>
      <point x="562" y="417" type="line"/>
      <point x="562" y="470"/>
      <point x="535" y="557"/>
      <point x="484" y="619"/>
      <point x="410" y="653"/>
      <point x="362" y="653" type="qcurve"/>
      <point x="314" y="653"/>
      <point x="240" y="619"/>
      <point x="189" y="557"/>
      <point x="162" y="470"/>
      <point x="162" y="417" type="qcurve"/>
      <point x="162" y="281" type="line"/>
      <point x="162" y="228"/>
      <point x="189" y="141"/>
      <point x="240" y="79"/>
      <point x="314" y="45"/>
    </contour>
  </outline>
</glyph>
<glyph name="R" format="2">
  <advance width="684"/>
  <unicode hex="0052"/>
  <outline>
    <contour>
      <point x="52" y="50" type="line"/>
      <point x="126" y="50" type="line"/>
      <point x="126" y="648" type="line"/>
      <point x="52" y="648" type="line"/>
      <point x="52" y="698" type="line"/>
      <point x="390" y="698" type="line"/>
      <point x="483" y="698"/>
      <point x="590" y="607"/>
      <point x="590" y="515" type="qcurve"/>
      <point x="590" y="443"/>
      <point x="509" y="349"/>
      <point x="435" y="335" type="qcurve"/>
      <point x="554" y="118" type="line"/>
      <point x="574" y="82"/>
      <point x="623" y="50"/>
      <point x="659" y="50" type="qcurve"/>
      <point x="667" y="50" type="line"/>
      <point x="667" y="0" type="line"/>
      <point x="597" y="0" type="line"/>
      <point x="567" y="0"/>
      <point x="525" y="12"/>
      <point x="494" y="34"/>
      <point x="469" y="68"/>
      <point x="457" y="91" type="qcurve"/>
      <point x="336" y="319" type="line"/>
      <point x="227" y="319" type="line"/>
      <point x="227" y="50" type="line"/>
      <point x="301" y="50" type="line"/>
      <point x="301" y="0" type="line"/>
      <point x="52" y="0" type="line"/>
    </contour>
    <contour>
      <point x="227" y="371" type="line"/>
      <point x="373" y="371" type="line"/>
      <point x="426" y="371"/>
      <point x="484" y="434"/>
      <point x="484" y="483" type="qcurve"/>
      <point x="484" y="532" type="line"/>
      <point x="484" y="581"/>
      <point x="426" y="644"/>
      <point x="373" y="644" type="qcurve"/>
      <point x="227" y="644" type="line"/>
    </contour>
  </outline>
</glyph>
<glyph name="S" format="2">
  <advance width="595"/>
  <unicode hex="0053"/>
  <outline>
    <contour>
      <point x="299" y="-12" type="qcurve"/>
      <point x="237" y="-12"/>
      <point x="158" y="28"/>
      <point x="143" y="60" type="qcurve"/>
      <point x="138" y="60" type="line"/>
      <point x="138" y="0" type="line"/>
      <point x="58" y="0" type="line"/>
      <point x="58" y="205" type="line"/>
      <point x="138" y="205" type="line"/>
      <point x="138" y="159" type="line"/>
      <point x="138" y="108"/>
      <point x="206" y="45"/>
      <point x="285" y="45" type="qcurve"/>
      <point x="369" y="45"/>
      <point x="444" y="115"/>
      <point x="444" y="174" type="qcurve"/>
      <point x="444" y="225"/>
      <point x="387" y="283"/>
      <point x="323" y="299" type="qcurve"/>
      <point x="270" y="312" type="line"/>
      <point x="175" y="335"/>
      <point x="69" y="433"/>
      <point x="69" y="521" type="qcurve"/>
      <point x="69" y="564"/>
      <point x="101" y="634"/>
      <point x="159" y="683"/>
      <point x="241" y="710"/>
      <point x="292" y="710" type="qcurve"/>
      <point x="350" y="710"/>
      <point x="423" y="672"/>
      <point x="438" y="643" type="qcurve"/>
      <point x="443" y="643" type="line"/>
      <point x="443" y="698" type="line"/>
      <point x="523" y="698" type="line"/>
      <point x="523" y="501" type="line"/>
      <point x="443" y="501" type="line"/>
      <point x="443" y="547" type="line"/>
      <point x="443" y="598"/>
      <point x="376" y="653"/>
      <point x="296" y="653" type="qcurve"/>
      <point x="226" y="653"/>
      <point x="157" y="591"/>
      <point x="157" y="541" type="qcurve"/>
      <point x="157" y="489"/>
      <point x="219" y="431"/>
      <point x="288" y="413" type="qcurve"/>
      <point x="338" y="401" type="line"/>
      <point x="431" y="378"/>
      <point x="532" y="281"/>
      <point x="532" y="199" type="qcurve"/>
      <point x="532" y="153"/>
      <point x="501" y="76"/>
      <point x="442" y="20"/>
      <point x="355" y="-12"/>
    </contour>
  </outline>
</glyph>
<glyph name="T" format="2">
  <advance width="665"/>
  <unicode hex="0054"/>
  <outline>
    <contour>
      <point x="189" y="50" type="line"/>
      <point x="283" y="50" type="line"/>
      <point x="283" y="644" type="line"/>
      <point x="115" y="644" type="line"/>
      <point x="115" y="527" type="line"/>
      <point x="35" y="527" type="line"/>
      <point x="35" y="698" type="line"/>
      <point x="630" y="698" type="line"/>
      <point x="630" y="527" type="line"/>
      <point x="550" y="527" type="line"/>
      <point x="550" y="644" type="line"/>
      <point x="384" y="644" type="line"/>
      <point x="384" y="50" type="line"/>
      <point x="478" y="50" type="line"/>
      <point x="478" y="0" type="line"/>
      <point x="189" y="0" type="line"/>
    </contour>
  </outline>
</glyph>
<glyph name="U" format="2">
  <advance width="741"/>
  <unicode hex="0055"/>
  <outline>
    <contour>
      <point x="381" y="-12" type="qcurve"/>
      <point x="310" y="-12"/>
      <point x="211" y="19"/>
      <point x="147" y="86"/>
      <point x="118" y="193"/>
      <point x="118" y="269" type="qcurve"/>
      <point x="118" y="648" type="line"/>
      <point x="44" y="648" type="line"/>
      <point x="44" y="698" type="line"/>
      <point x="293" y="698" type="line"/>
      <point x="293" y="648" type="line"/>
      <point x="219" y="648" type="line"/>
      <point x="219" y="255" type="line"/>
      <point x="219" y="151"/>
      <point x="293" y="49"/>
      <point x="389" y="49" type="qcurve"/>
      <point x="485" y="49"/>
      <point x="565" y="151"/>
      <point x="565" y="255" type="qcurve"/>
      <point x="565" y="648" type="line"/>
      <point x="491" y="648" type="line"/>
      <point x="491" y="698" type="line"/>
      <point x="698" y="698" type="line"/>
      <point x="698" y="648" type="line"/>
      <point x="624" y="648" type="line"/>
      <point x="624" y="279" type="line"/>
      <point x="624" y="204"/>
      <point x="599" y="95"/>
      <point x="541" y="23"/>
      <point x="448" y="-12"/>
    </contour>
  </outline>
</glyph>
<glyph name="V" format="2">
  <advance width="670"/>
  <unicode hex="0056"/>
  <outline>
    <contour>
      <point x="73" y="648" type="line"/>
      <point x="21" y="648" type="line"/>
      <point x="21" y="698" type="line"/>
      <point x="266" y="698" type="line"/>
      <point x="266" y="648" type="line"/>
      <point x="178" y="648" type="line"/>
      <point x="278" y="341" type="line"/>
      <point x="354" y="93" type="line"/>
      <point x="358" y="93" type="line"/>
      <point x="434" y="342" type="line"/>
      <point x="534" y="648" type="line"/>
      <point x="446" y="648" type="line"/>
      <point x="446" y="698" type="line"/>
      <point x="649" y="698" type="line"/>
      <point x="649" y="648" type="line"/>
      <point x="597" y="648" type="line"/>
      <point x="383" y="0" type="line"/>
      <point x="287" y="0" type="line"/>
    </contour>
  </outline>
</glyph>
<glyph name="W" format="2">
  <advance width="979"/>
  <unicode hex="0057"/>
  <outline>
    <contour>
      <point x="74" y="648" type="line"/>
      <point x="22" y="648" type="line"/>
      <point x="22" y="698" type="line"/>
      <point x="267" y="698" type="line"/>
      <point x="267" y="648" type="line"/>
      <point x="179" y="648" type="line"/>
      <point x="306" y="109" type="line"/>
      <point x="310" y="109" type="line"/>
      <point x="463" y="698" type="line"/>
      <point x="557" y="698" type="line"/>
      <point x="710" y="109" type="line"/>
      <point x="714" y="109" type="line"/>
      <point x="841" y="648" type="line"/>
      <point x="753" y="648" type="line"/>
      <point x="753" y="698" type="line"/>
      <point x="958" y="698" type="line"/>
      <point x="958" y="648" type="line"/>
      <point x="906" y="648" type="line"/>
      <point x="742" y="0" type="line"/>
      <point x="645" y="0" type="line"/>
      <point x="492" y="569" type="line"/>
      <point x="488" y="569" type="line"/>
      <point x="335" y="0" type="line"/>
      <point x="238" y="0" type="line"/>
    </contour>
  </outline>
</glyph>
<glyph name="X" format="2">
  <advance width="680"/>
  <unicode hex="0058"/>
  <outline>
    <contour>
      <point x="19" y="50" type="line"/>
      <point x="78" y="50" type="line"/>
      <point x="290" y="339" type="line"/>
      <point x="85" y="648" type="line"/>
      <point x="26" y="648" type="line"/>
      <point x="26" y="698" type="line"/>
      <point x="278" y="698" type="line"/>
      <point x="278" y="648" type="line"/>
      <point x="205" y="648" type="line"/>
      <point x="356" y="413" type="line"/>
      <point x="360" y="413" type="line"/>
      <point x="519" y="648" type="line"/>
      <point x="452" y="648" type="line"/>
      <point x="452" y="698" type="line"/>
      <point x="652" y="698" type="line"/>
      <point x="652" y="648" type="line"/>
      <point x="593" y="648" type="line"/>
      <point x="390" y="367" type="line"/>
      <point x="600" y="50" type="line"/>
      <point x="659" y="50" type="line"/>
      <point x="659" y="0" type="line"/>
      <point x="407" y="0" type="line"/>
      <point x="407" y="50" type="line"/>
      <point x="480" y="50" type="line"/>
      <point x="324" y="293" type="line"/>
      <point x="320" y="293" type="line"/>
      <point x="152" y="50" type="line"/>
      <point x="219" y="50" type="line"/>
      <point x="219" y="0" type="line"/>
      <point x="19" y="0" type="line"/>
    </contour>
  </outline>
</glyph>
<glyph name="Y" format="2">
  <advance width="644"/>
  <unicode hex="0059"/>
  <outline>
    <contour>
      <point x="181" y="50" type="line"/>
      <point x="272" y="50" type="line"/>
      <point x="272" y="281" type="line"/>
      <point x="73" y="648" type="line"/>
      <point x="21" y="648" type="line"/>
      <point x="21" y="698" type="line"/>
      <point x="272" y="698" type="line"/>
      <point x="272" y="648" type="line"/>
      <point x="186" y="648" type="line"/>
      <point x="344" y="347" type="line"/>
      <point x="348" y="347" type="line"/>
      <point x="506" y="648" type="line"/>
      <point x="420" y="648" type="line"/>
      <point x="420" y="698" type="line"/>
      <point x="623" y="698" type="line"/>
      <point x="623" y="648" type="line"/>
      <point x="571" y="648" type="line"/>
      <point x="373" y="289" type="line"/>
      <point x="373" y="50" type="line"/>
      <point x="464" y="50" type="line"/>
      <point x="464" y="0" type="line"/>
      <point x="181" y="0" type="line"/>
    </contour>
  </outline>
</glyph>
<glyph name="Z" format="2">
  <advance width="641"/>
  <unicode hex="005A"/>
  <outline>
    <contour>
      <point x="57" y="53" type="line"/>
      <point x="453" y="644" type="line"/>
      <point x="148" y="644" type="line"/>
      <point x="148" y="527" type="line"/>
      <point x="67" y="527" type="line"/>
      <point x="67" y="698" type="line"/>
      <point x="569" y="698" type="line"/>
      <point x="569" y="645" type="line"/>
      <point x="173" y="54" type="line"/>
      <point x="498" y="54" type="line"/>
      <point x="498" y="182" type="line"/>
      <point x="579" y="182" type="line"/>
      <point x="579" y="0" type="line"/>
      <point x="57" y="0" type="line"/>
    </contour>
  </outline>
</glyph>
<glyph name="bracketleft" format="2">
  <advance width="290"/>
  <unicode hex="005B"/>
  <outline>
    <contour>
      <point x="57" y="760" type="line"/>
      <point x="264" y="760" type="line"/>
      <point x="264" y="711" type="line"/>
      <point x="145" y="711" type="line"/>
      <point x="145" y="-89" type="line"/>
      <point x="264" y="-89" type="line"/>
      <point x="264" y="-138" type="line"/>
      <point x="57" y="-138" type="line"/>
    </contour>
  </outline>
</glyph>
<glyph name="backslash" format="2">
  <advance width="380"/>
  <unicode hex="005C"/>
  <outline>
    <contour>
      <point x="42" y="748" type="line"/>
      <point x="106" y="748" type="line"/>
      <point x="372" y="-143" type="line"/>
      <point x="308" y="-143" type="line"/>
    </contour>
  </outline>
</glyph>
<glyph name="bracketright" format="2">
  <advance width="290"/>
  <unicode hex="005D"/>
  <outline>
    <contour>
      <point x="26" y="-89" type="line"/>
      <point x="145" y="-89" type="line"/>
      <point x="145" y="711" type="line"/>
      <point x="26" y="711" type="line"/>
      <point x="26" y="760" type="line"/>
      <point x="233" y="760" type="line"/>
      <point x="233" y="-138" type="line"/>
      <point x="26" y="-138" type="line"/>
    </contour>
  </outline>
</glyph>
<glyph name="asciicircum" format="2">
  <advance width="600"/>
  <unicode hex="005E"/>
  <outline>
    <contour>
      <point x="55" y="341" type="line"/>
      <point x="262" y="698" type="line"/>
      <point x="338" y="698" type="line"/>
      <point x="545" y="341" type="line"/>
      <point x="494" y="313" type="line"/>
      <point x="303" y="630" type="line"/>
      <point x="297" y="630" type="line"/>
      <point x="106" y="313" type="line"/>
    </contour>
  </outline>
</glyph>
<glyph name="underscore" format="2">
  <advance width="563"/>
  <unicode hex="005F"/>
  <outline>
    <contour>
      <point x="25" y="-98" type="line"/>
      <point x="537" y="-98" type="line"/>
      <point x="537" y="-160" type="line"/>
      <point x="25" y="-160" type="line"/>
    </contour>
  </outline>
</glyph>
<glyph name="grave" format="2">
  <advance width="600"/>
  <unicode hex="0060"/>
  <outline>
    <contour>
      <point x="174" y="740" type="line"/>
      <point x="262" y="783" type="line"/>
      <point x="337" y="600" type="line"/>
      <point x="306" y="584" type="line"/>
    </contour>
  </outline>
</glyph>
<glyph name="a" format="2">
  <advance width="549"/>
  <unicode hex="0061"/>
  <outline>
    <contour>
      <point x="199" y="-12" type="qcurve"/>
      <point x="124" y="-12"/>
      <point x="43" y="64"/>
      <point x="43" y="130" type="qcurve"/>
      <point x="43" y="204"/>
      <point x="149" y="282"/>
      <point x="274" y="282" type="qcurve"/>
      <point x="347" y="282" type="line"/>
      <point x="347" y="355" type="line"/>
      <point x="347" y="416"/>
      <point x="290" y="480"/>
      <point x="232" y="480" type="qcurve"/>
      <point x="207" y="480"/>
      <point x="166" y="472"/>
      <point x="152" y="464" type="qcurve"/>
      <point x="152" y="462" type="line"/>
      <point x="163" y="456"/>
      <point x="183" y="432"/>
      <point x="183" y="410" type="qcurve"/>
      <point x="183" y="383"/>
      <point x="152" y="352"/>
      <point x="125" y="352" type="qcurve"/>
      <point x="99" y="352"/>
      <point x="67" y="384"/>
      <point x="67" y="413" type="qcurve"/>
      <point x="67" y="435"/>
      <point x="93" y="477"/>
      <point x="143" y="510"/>
      <point x="216" y="530"/>
      <point x="263" y="530" type="qcurve"/>
      <point x="351" y="530"/>
      <point x="443" y="444"/>
      <point x="443" y="366" type="qcurve"/>
      <point x="443" y="47" type="line"/>
      <point x="515" y="47" type="line"/>
      <point x="515" y="8" type="line"/>
      <point x="502" y="0"/>
      <point x="462" y="-12"/>
      <point x="438" y="-12" type="qcurve"/>
      <point x="395" y="-12"/>
      <point x="352" y="33"/>
      <point x="352" y="71" type="qcurve"/>
      <point x="352" y="77" type="line"/>
      <point x="348" y="77" type="line"/>
      <point x="341" y="60"/>
      <point x="318" y="28"/>
      <point x="283" y="3"/>
      <point x="233" y="-12"/>
    </contour>
    <contour>
      <point x="238" y="50" type="qcurve"/>
      <point x="284" y="50"/>
      <point x="347" y="96"/>
      <point x="347" y="145" type="qcurve"/>
      <point x="347" y="239" type="line"/>
      <point x="284" y="239" type="line"/>
      <point x="206" y="239"/>
      <point x="146" y="190"/>
      <point x="146" y="145" type="qcurve"/>
      <point x="146" y="125" type="line"/>
      <point x="146" y="87"/>
      <point x="195" y="50"/>
    </contour>
  </outline>
</glyph>
<glyph name="b" format="2">
  <advance width="605"/>
  <unicode hex="0062"/>
  <outline>
    <contour>
      <point x="345" y="-12" type="qcurve"/>
      <point x="284" y="-12"/>
      <point x="208" y="42"/>
      <point x="192" y="79" type="qcurve"/>
      <point x="188" y="79" type="line"/>
      <point x="136" y="0" type="line"/>
      <point x="96" y="0" type="line"/>
      <point x="96" y="676" type="line"/>
      <point x="25" y="689" type="line"/>
      <point x="25" y="727" type="line"/>
      <point x="192" y="760" type="line"/>
      <point x="192" y="439" type="line"/>
      <point x="196" y="439" type="line"/>
      <point x="212" y="476"/>
      <point x="285" y="530"/>
      <point x="345" y="530" type="qcurve"/>
      <point x="393" y="530"/>
      <point x="471" y="494"/>
      <point x="526" y="425"/>
      <point x="556" y="324"/>
      <point x="556" y="259" type="qcurve"/>
      <point x="556" y="194"/>
      <point x="526" y="93"/>
      <point x="471" y="24"/>
      <point x="393" y="-12"/>
    </contour>
    <contour>
      <point x="316" y="52" type="qcurve"/>
      <point x="380" y="52"/>
      <point x="453" y="138"/>
      <point x="453" y="212" type="qcurve"/>
      <point x="453" y="306" type="line"/>
      <point x="453" y="380"/>
      <point x="380" y="466"/>
      <point x="316" y="466" type="qcurve"/>
      <point x="293" y="466"/>
      <point x="248" y="452"/>
      <point x="213" y="426"/>
      <point x="192" y="389"/>
      <point x="192" y="365" type="qcurve"/>
      <point x="192" y="153" type="line"/>
      <point x="192" y="129"/>
      <point x="213" y="92"/>
      <point x="248" y="66"/>
      <point x="293" y="52"/>
    </contour>
  </outline>
</glyph>
<glyph name="c" format="2">
  <advance width="520"/>
  <unicode hex="0063"/>
  <outline>
    <contour>
      <point x="283" y="-12" type="qcurve"/>
      <point x="226" y="-12"/>
      <point x="137" y="27"/>
      <point x="76" y="99"/>
      <point x="44" y="199"/>
      <point x="44" y="259" type="qcurve"/>
      <point x="44" y="322"/>
      <point x="81" y="422"/>
      <point x="147" y="492"/>
      <point x="238" y="530"/>
      <point x="292" y="530" type="qcurve"/>
      <point x="333" y="530"/>
      <point x="399" y="511"/>
      <point x="445" y="478"/>
      <point x="470" y="432"/>
      <point x="470" y="405" type="qcurve"/>
      <point x="470" y="373"/>
      <point x="435" y="334"/>
      <point x="405" y="334" type="qcurve"/>
      <point x="373" y="334"/>
      <point x="341" y="371"/>
      <point x="341" y="397" type="qcurve"/>
      <point x="341" y="420"/>
      <point x="364" y="451"/>
      <point x="383" y="460" type="qcurve"/>
      <point x="383" y="464" type="line"/>
      <point x="371" y="470"/>
      <point x="332" y="478"/>
      <point x="302" y="478" type="qcurve"/>
      <point x="268" y="478"/>
      <point x="211" y="453"/>
      <point x="171" y="409"/>
      <point x="148" y="347"/>
      <point x="148" y="311" type="qcurve"/>
      <point x="148" y="231" type="line"/>
      <point x="148" y="152"/>
      <point x="228" y="58"/>
      <point x="297" y="58" type="qcurve"/>
      <point x="357" y="58"/>
      <point x="426" y="110"/>
      <point x="446" y="149" type="qcurve"/>
      <point x="482" y="126" type="line"/>
      <point x="473" y="100"/>
      <point x="440" y="51"/>
      <point x="391" y="12"/>
      <point x="325" y="-12"/>
    </contour>
  </outline>
</glyph>
<glyph name="d" format="2">
  <advance width="613"/>
  <unicode hex="0064"/>
  <outline>
    <contour>
      <point x="259" y="-12" type="qcurve"/>
      <point x="211" y="-12"/>
      <point x="133" y="24"/>
      <point x="78" y="93"/>
      <point x="48" y="194"/>
      <point x="48" y="259" type="qcurve"/>
      <point x="48" y="324"/>
      <point x="78" y="425"/>
      <point x="133" y="494"/>
      <point x="211" y="530"/>
      <point x="259" y="530" type="qcurve"/>
      <point x="319" y="530"/>
      <point x="392" y="476"/>
      <point x="408" y="439" type="qcurve"/>
      <point x="412" y="439" type="line"/>
      <point x="412" y="676" type="line"/>
      <point x="340" y="689" type="line"/>
      <point x="340" y="727" type="line"/>
      <point x="508" y="760" type="line"/>
      <point x="508" y="72" type="line"/>
      <point x="579" y="59" type="line"/>
      <point x="579" y="21" type="line"/>
      <point x="412" y="-12" type="line"/>
      <point x="412" y="79" type="line"/>
      <point x="408" y="79" type="line"/>
      <point x="392" y="42"/>
      <point x="319" y="-12"/>
    </contour>
    <contour>
      <point x="288" y="52" type="qcurve"/>
      <point x="311" y="52"/>
      <point x="356" y="66"/>
      <point x="391" y="92"/>
      <point x="412" y="129"/>
      <point x="412" y="153" type="qcurve"/>
      <point x="412" y="365" type="line"/>
      <point x="412" y="389"/>
      <point x="391" y="426"/>
      <point x="356" y="452"/>
      <point x="311" y="466"/>
      <point x="288" y="466" type="qcurve"/>
      <point x="224" y="466"/>
      <point x="151" y="380"/>
      <point x="151" y="306" type="qcurve"/>
      <point x="151" y="212" type="line"/>
      <point x="151" y="138"/>
      <point x="224" y="52"/>
    </contour>
  </outline>
</glyph>
<glyph name="e" format="2">
  <advance width="540"/>
  <unicode hex="0065"/>
  <outline>
    <contour>
      <point x="282" y="-12" type="qcurve"/>
      <point x="226" y="-12"/>
      <point x="137" y="27"/>
      <point x="76" y="98"/>
      <point x="44" y="198"/>
      <point x="44" y="259" type="qcurve"/>
      <point x="44" y="320"/>
      <point x="79" y="420"/>
      <point x="141" y="491"/>
      <point x="226" y="530"/>
      <point x="277" y="530" type="qcurve"/>
      <point x="329" y="530"/>
      <point x="411" y="494"/>
      <point x="468" y="429"/>
      <point x="498" y="340"/>
      <point x="498" y="286" type="qcurve"/>
      <point x="498" y="261" type="line"/>
      <point x="148" y="261" type="line"/>
      <point x="148" y="232" type="line"/>
      <point x="148" y="151"/>
      <point x="230" y="58"/>
      <point x="299" y="58" type="qcurve"/>
      <point x="359" y="58"/>
      <point x="431" y="109"/>
      <point x="451" y="149" type="qcurve"/>
      <point x="488" y="125" type="line"/>
      <point x="479" y="99"/>
      <point x="444" y="50"/>
      <point x="393" y="12"/>
      <point x="325" y="-12"/>
    </contour>
    <contour>
      <point x="148" y="310" type="line"/>
      <point x="399" y="310" type="line"/>
      <point x="399" y="321" type="line"/>
      <point x="399" y="391"/>
      <point x="340" y="478"/>
      <point x="277" y="478" type="qcurve"/>
      <point x="214" y="478"/>
      <point x="148" y="393"/>
      <point x="148" y="322" type="qcurve"/>
    </contour>
  </outline>
</glyph>
<glyph name="f" format="2">
  <advance width="350"/>
  <unicode hex="0066"/>
  <outline>
    <contour>
      <point x="44" y="50" type="line"/>
      <point x="115" y="50" type="line"/>
      <point x="115" y="465" type="line"/>
      <point x="44" y="465" type="line"/>
      <point x="44" y="518" type="line"/>
      <point x="115" y="518" type="line"/>
      <point x="115" y="591" type="line"/>
      <point x="115" y="629"/>
      <point x="140" y="692"/>
      <point x="186" y="736"/>
      <point x="249" y="760"/>
      <point x="288" y="760" type="qcurve"/>
      <point x="345" y="760"/>
      <point x="408" y="714"/>
      <point x="408" y="675" type="qcurve"/>
      <point x="408" y="649"/>
      <point x="378" y="615"/>
      <point x="353" y="615" type="qcurve"/>
      <point x="330" y="615"/>
      <point x="301" y="646"/>
      <point x="301" y="666" type="qcurve"/>
      <point x="301" y="685"/>
      <point x="316" y="707"/>
      <point x="328" y="712" type="qcurve"/>
      <point x="328" y="715" type="line"/>
      <point x="322" y="717"/>
      <point x="304" y="719"/>
      <point x="294" y="719" type="qcurve"/>
      <point x="253" y="719"/>
      <point x="211" y="659"/>
      <point x="211" y="605" type="qcurve"/>
      <point x="211" y="518" type="line"/>
      <point x="320" y="518" type="line"/>
      <point x="320" y="465" type="line"/>
      <point x="211" y="465" type="line"/>
      <point x="211" y="50" type="line"/>
      <point x="302" y="50" type="line"/>
      <point x="302" y="0" type="line"/>
      <point x="44" y="0" type="line"/>
    </contour>
  </outline>
</glyph>
<glyph name="g" format="2">
  <advance width="551"/>
  <unicode hex="0067"/>
  <outline>
    <contour>
      <point x="265" y="-212" type="qcurve"/>
      <point x="202" y="-212"/>
      <point x="116" y="-195"/>
      <point x="62" y="-163"/>
      <point x="39" y="-118"/>
      <point x="39" y="-90" type="qcurve"/>
      <point x="39" y="-70"/>
      <point x="57" y="-36"/>
      <point x="87" y="-11"/>
      <point x="125" y="7"/>
      <point x="146" y="12" type="qcurve"/>
      <point x="146" y="16" type="line"/>
      <point x="114" y="26"/>
      <point x="80" y="70"/>
      <point x="80" y="104" type="qcurve"/>
      <point x="80" y="146"/>
      <point x="134" y="193"/>
      <point x="169" y="202" type="qcurve"/>
      <point x="169" y="206" type="line"/>
      <point x="121" y="226"/>
      <point x="66" y="304"/>
      <point x="66" y="359" type="qcurve"/>
      <point x="66" y="399"/>
      <point x="96" y="462"/>
      <point x="150" y="506"/>
      <point x="224" y="530"/>
      <point x="268" y="530" type="qcurve"/>
      <point x="313" y="530"/>
      <point x="379" y="507"/>
      <point x="403" y="490" type="qcurve"/>
      <point x="404" y="519"/>
      <point x="417" y="558"/>
      <point x="438" y="582"/>
      <point x="465" y="592"/>
      <point x="481" y="592" type="qcurve"/>
      <point x="504" y="592"/>
      <point x="536" y="564"/>
      <point x="536" y="541" type="qcurve"/>
      <point x="536" y="518"/>
      <point x="508" y="490"/>
      <point x="482" y="490" type="qcurve"/>
      <point x="468" y="490"/>
      <point x="444" y="500"/>
      <point x="437" y="511" type="qcurve"/>
      <point x="433" y="511" type="line"/>
      <point x="433" y="464" type="line"/>
      <point x="447" y="448"/>
      <point x="472" y="397"/>
      <point x="472" y="359" type="qcurve"/>
      <point x="472" y="319"/>
      <point x="441" y="256"/>
      <point x="387" y="212"/>
      <point x="312" y="188"/>
      <point x="268" y="188" type="qcurve"/>
      <point x="238" y="188"/>
      <point x="211" y="194" type="qcurve"/>
      <point x="187" y="188"/>
      <point x="150" y="157"/>
      <point x="150" y="136" type="qcurve"/>
      <point x="150" y="112"/>
      <point x="188" y="91"/>
      <point x="230" y="91" type="qcurve"/>
      <point x="348" y="91" type="line"/>
      <point x="440" y="91"/>
      <point x="526" y="19"/>
      <point x="526" y="-47" type="qcurve"/>
      <point x="526" y="-123"/>
      <point x="395" y="-212"/>
    </contour>
    <contour>
      <point x="269" y="236" type="qcurve"/>
      <point x="321" y="236"/>
      <point x="372" y="292"/>
      <point x="372" y="341" type="qcurve"/>
      <point x="372" y="377" type="line"/>
      <point x="372" y="426"/>
      <point x="321" y="482"/>
      <point x="269" y="482" type="qcurve"/>
      <point x="217" y="482"/>
      <point x="166" y="426"/>
      <point x="166" y="377" type="qcurve"/>
      <point x="166" y="341" type="line"/>
      <point x="166" y="292"/>
      <point x="217" y="236"/>
    </contour>
    <contour>
      <point x="122" y="-83" type="qcurve"/>
      <point x="122" y="-121"/>
      <point x="187" y="-160"/>
      <point x="245" y="-160" type="qcurve"/>
      <point x="295" y="-160" type="line"/>
      <point x="367" y="-160"/>
      <point x="447" y="-114"/>
      <point x="447" y="-73" type="qcurve"/>
      <point x="447" y="-36"/>
      <point x="396" y="0"/>
      <point x="335" y="0" type="qcurve"/>
      <point x="176" y="0" type="line"/>
      <point x="147" y="-14"/>
      <point x="122" y="-56"/>
    </contour>
  </outline>
</glyph>
<glyph name="h" format="2">
  <advance width="630"/>
  <unicode hex="0068"/>
  <outline>
    <contour>
      <point x="34" y="50" type="line"/>
      <point x="105" y="50" type="line"/>
      <point x="105" y="676" type="line"/>
      <point x="34" y="689" type="line"/>
      <point x="34" y="727" type="line"/>
      <point x="201" y="760" type="line"/>
      <point x="201" y="438" type="line"/>
      <point x="205" y="438" type="line"/>
      <point x="211" y="454"/>
      <point x="235" y="487"/>
      <point x="272" y="513"/>
      <point x="321" y="530"/>
      <point x="351" y="530" type="qcurve"/>
      <point x="445" y="530"/>
      <point x="525" y="433"/>
      <point x="525" y="336" type="qcurve"/>
      <point x="525" y="50" type="line"/>
      <point x="596" y="50" type="line"/>
      <point x="596" y="0" type="line"/>
      <point x="359" y="0" type="line"/>
      <point x="359" y="50" type="line"/>
      <point x="429" y="50" type="line"/>
      <point x="429" y="329" type="line"/>
      <point x="429" y="398"/>
      <point x="374" y="464"/>
      <point x="316" y="464" type="qcurve"/>
      <point x="295" y="464"/>
      <point x="254" y="452"/>
      <point x="221" y="428"/>
      <point x="201" y="392"/>
      <point x="201" y="367" type="qcurve"/>
      <point x="201" y="50" type="line"/>
      <point x="272" y="50" type="line"/>
      <point x="272" y="0" type="line"/>
      <point x="34" y="0" type="line"/>
    </contour>
  </outline>
</glyph>
<glyph name="i" format="2">
  <advance width="319"/>
  <unicode hex="0069"/>
  <outline>
    <contour>
      <point x="167" y="627" type="qcurve"/>
      <point x="138" y="627"/>
      <point x="107" y="661"/>
      <point x="107" y="686" type="qcurve"/>
      <point x="107" y="691" type="line"/>
      <point x="107" y="716"/>
      <point x="138" y="750"/>
      <point x="167" y="750" type="qcurve"/>
      <point x="196" y="750"/>
      <point x="227" y="716"/>
      <point x="227" y="691" type="qcurve"/>
      <point x="227" y="686" type="line"/>
      <point x="227" y="661"/>
      <point x="196" y="627"/>
    </contour>
    <contour>
      <point x="48" y="50" type="line"/>
      <point x="119" y="50" type="line"/>
      <point x="119" y="446" type="line"/>
      <point x="48" y="459" type="line"/>
      <point x="48" y="497" type="line"/>
      <point x="215" y="530" type="line"/>
      <point x="215" y="50" type="line"/>
      <point x="286" y="50" type="line"/>
      <point x="286" y="0" type="line"/>
      <point x="48" y="0" type="line"/>
    </contour>
  </outline>
</glyph>
<glyph name="j" format="2">
  <advance width="307"/>
  <unicode hex="006A"/>
  <outline>
    <contour>
      <point x="52" y="-212" type="qcurve"/>
      <point x="1" y="-212"/>
      <point x="-50" y="-167"/>
      <point x="-50" y="-132" type="qcurve"/>
      <point x="-50" y="-109"/>
      <point x="-21" y="-76"/>
      <point x="3" y="-76" type="qcurve"/>
      <point x="27" y="-76"/>
      <point x="52" y="-104"/>
      <point x="52" y="-126" type="qcurve"/>
      <point x="52" y="-141"/>
      <point x="40" y="-164"/>
      <point x="30" y="-167" type="qcurve"/>
      <point x="30" y="-171" type="line"/>
      <point x="40" y="-174"/>
      <point x="54" y="-174" type="qcurve"/>
      <point x="115" y="-174"/>
      <point x="115" y="-90" type="qcurve"/>
      <point x="115" y="446" type="line"/>
      <point x="44" y="459" type="line"/>
      <point x="44" y="497" type="line"/>
      <point x="211" y="530" type="line"/>
      <point x="211" y="-41" type="line"/>
      <point x="211" y="-129"/>
      <point x="128" y="-212"/>
    </contour>
    <contour>
      <point x="163" y="627" type="qcurve"/>
      <point x="134" y="627"/>
      <point x="103" y="661"/>
      <point x="103" y="686" type="qcurve"/>
      <point x="103" y="691" type="line"/>
      <point x="103" y="716"/>
      <point x="134" y="750"/>
      <point x="163" y="750" type="qcurve"/>
      <point x="192" y="750"/>
      <point x="223" y="716"/>
      <point x="223" y="691" type="qcurve"/>
      <point x="223" y="686" type="line"/>
      <point x="223" y="661"/>
      <point x="192" y="627"/>
    </contour>
  </outline>
</glyph>
<glyph name="k" format="2">
  <advance width="594"/>
  <unicode hex="006B"/>
  <outline>
    <contour>
      <point x="34" y="50" type="line"/>
      <point x="105" y="50" type="line"/>
      <point x="105" y="676" type="line"/>
      <point x="34" y="689" type="line"/>
      <point x="34" y="727" type="line"/>
      <point x="201" y="760" type="line"/>
      <point x="201" y="241" type="line"/>
      <point x="205" y="241" type="line"/>
      <point x="285" y="332" type="line"/>
      <point x="410" y="468" type="line"/>
      <point x="343" y="468" type="line"/>
      <point x="343" y="518" type="line"/>
      <point x="560" y="518" type="line"/>
      <point x="560" y="468" type="line"/>
      <point x="487" y="468" type="line"/>
      <point x="348" y="324" type="line"/>
      <point x="527" y="50" type="line"/>
      <point x="581" y="50" type="line"/>
      <point x="581" y="0" type="line"/>
      <point x="359" y="0" type="line"/>
      <point x="359" y="50" type="line"/>
      <point x="419" y="50" type="line"/>
      <point x="283" y="262" type="line"/>
      <point x="201" y="175" type="line"/>
      <point x="201" y="50" type="line"/>
      <point x="272" y="50" type="line"/>
      <point x="272" y="0" type="line"/>
      <point x="34" y="0" type="line"/>
    </contour>
  </outline>
</glyph>
<glyph name="l" format="2">
  <advance width="306"/>
  <unicode hex="006C"/>
  <outline>
    <contour>
      <point x="34" y="50" type="line"/>
      <point x="105" y="50" type="line"/>
      <point x="105" y="676" type="line"/>
      <point x="34" y="689" type="line"/>
      <point x="34" y="727" type="line"/>
      <point x="201" y="760" type="line"/>
      <point x="201" y="50" type="line"/>
      <point x="272" y="50" type="line"/>
      <point x="272" y="0" type="line"/>
      <point x="34" y="0" type="line"/>
    </contour>
  </outline>
</glyph>
<glyph name="m" format="2">
  <advance width="958"/>
  <unicode hex="006D"/>
  <outline>
    <contour>
      <point x="48" y="50" type="line"/>
      <point x="119" y="50" type="line"/>
      <point x="119" y="446" type="line"/>
      <point x="48" y="459" type="line"/>
      <point x="48" y="497" type="line"/>
      <point x="213" y="530" type="line"/>
      <point x="213" y="438" type="line"/>
      <point x="217" y="438" type="line"/>
      <point x="223" y="454"/>
      <point x="247" y="487"/>
      <point x="283" y="514"/>
      <point x="332" y="530"/>
      <point x="362" y="530" type="qcurve"/>
      <point x="428" y="530"/>
      <point x="506" y="479"/>
      <point x="521" y="428" type="qcurve"/>
      <point x="525" y="428" type="line"/>
      <point x="533" y="446"/>
      <point x="559" y="483"/>
      <point x="597" y="512"/>
      <point x="648" y="530"/>
      <point x="681" y="530" type="qcurve"/>
      <point x="774" y="530"/>
      <point x="853" y="432"/>
      <point x="853" y="335" type="qcurve"/>
      <point x="853" y="50" type="line"/>
      <point x="924" y="50" type="line"/>
      <point x="924" y="0" type="line"/>
      <point x="687" y="0" type="line"/>
      <point x="687" y="50" type="line"/>
      <point x="757" y="50" type="line"/>
      <point x="757" y="329" type="line"/>
      <point x="757" y="398"/>
      <point x="703" y="464"/>
      <point x="646" y="464" type="qcurve"/>
      <point x="625" y="464"/>
      <point x="585" y="452"/>
      <point x="553" y="428"/>
      <point x="534" y="391"/>
      <point x="534" y="366" type="qcurve"/>
      <point x="534" y="50" type="line"/>
      <point x="605" y="50" type="line"/>
      <point x="605" y="0" type="line"/>
      <point x="367" y="0" type="line"/>
      <point x="367" y="50" type="line"/>
      <point x="438" y="50" type="line"/>
      <point x="438" y="329" type="line"/>
      <point x="438" y="398"/>
      <point x="385" y="464"/>
      <point x="328" y="464" type="qcurve"/>
      <point x="307" y="464"/>
      <point x="266" y="452"/>
      <point x="234" y="428"/>
      <point x="215" y="391"/>
      <point x="215" y="366" type="qcurve"/>
      <point x="215" y="50" type="line"/>
      <point x="286" y="50" type="line"/>
      <point x="286" y="0" type="line"/>
      <point x="48" y="0" type="line"/>
    </contour>
  </outline>
</glyph>
<glyph name="n" format="2">
  <advance width="644"/>
  <unicode hex="006E"/>
  <outline>
    <contour>
      <point x="48" y="50" type="line"/>
      <point x="119" y="50" type="line"/>
      <point x="119" y="446" type="line"/>
      <point x="48" y="459" type="line"/>
      <point x="48" y="497" type="line"/>
      <point x="213" y="530" type="line"/>
      <point x="213" y="438" type="line"/>
      <point x="217" y="438" type="line"/>
      <point x="223" y="454"/>
      <point x="248" y="487"/>
      <point x="285" y="513"/>
      <point x="334" y="530"/>
      <point x="365" y="530" type="qcurve"/>
      <point x="459" y="530"/>
      <point x="539" y="433"/>
      <point x="539" y="336" type="qcurve"/>
      <point x="539" y="50" type="line"/>
      <point x="610" y="50" type="line"/>
      <point x="610" y="0" type="line"/>
      <point x="373" y="0" type="line"/>
      <point x="373" y="50" type="line"/>
      <point x="443" y="50" type="line"/>
      <point x="443" y="329" type="line"/>
      <point x="443" y="398"/>
      <point x="388" y="464"/>
      <point x="330" y="464" type="qcurve"/>
      <point x="309" y="464"/>
      <point x="268" y="452"/>
      <point x="235" y="428"/>
      <point x="215" y="392"/>
      <point x="215" y="367" type="qcurve"/>
      <point x="215" y="50" type="line"/>
      <point x="286" y="50" type="line"/>
      <point x="286" y="0" type="line"/>
      <point x="48" y="0" type="line"/>
    </contour>
  </outline>
</glyph>
<glyph name="o" format="2">
  <advance width="568"/>
  <unicode hex="006F"/>
  <outline>
    <contour>
      <point x="284" y="42" type="qcurve"/>
      <point x="318" y="42"/>
      <point x="369" y="65"/>
      <point x="402" y="107"/>
      <point x="418" y="164"/>
      <point x="418" y="198" type="qcurve"/>
      <point x="418" y="320" type="line"/>
      <point x="418" y="354"/>
      <point x="402" y="411"/>
      <point x="369" y="453"/>
      <point x="318" y="476"/>
      <point x="284" y="476" type="qcurve"/>
      <point x="249" y="476"/>
      <point x="199" y="453"/>
      <point x="166" y="411"/>
      <point x="150" y="354"/>
      <point x="150" y="320" type="qcurve"/>
      <point x="150" y="198" type="line"/>
      <point x="150" y="164"/>
      <point x="166" y="107"/>
      <point x="199" y="65"/>
      <point x="249" y="42"/>
    </contour>
    <contour>
      <point x="284" y="-12" type="qcurve"/>
      <point x="230" y="-12"/>
      <point x="141" y="26"/>
      <point x="78" y="96"/>
      <point x="44" y="197"/>
      <point x="44" y="259" type="qcurve"/>
      <point x="44" y="321"/>
      <point x="78" y="421"/>
      <point x="141" y="492"/>
      <point x="230" y="530"/>
      <point x="284" y="530" type="qcurve"/>
      <point x="338" y="530"/>
      <point x="426" y="492"/>
      <point x="489" y="421"/>
      <point x="524" y="321"/>
      <point x="524" y="259" type="qcurve"/>
      <point x="524" y="197"/>
      <point x="489" y="96"/>
      <point x="426" y="26"/>
      <point x="338" y="-12"/>
    </contour>
  </outline>
</glyph>
<glyph name="p" format="2">
  <advance width="617"/>
  <unicode hex="0070"/>
  <outline>
    <contour>
      <point x="38" y="-150" type="line"/>
      <point x="109" y="-150" type="line"/>
      <point x="109" y="446" type="line"/>
      <point x="38" y="459" type="line"/>
      <point x="38" y="497" type="line"/>
      <point x="205" y="530" type="line"/>
      <point x="205" y="439" type="line"/>
      <point x="209" y="439" type="line"/>
      <point x="225" y="476"/>
      <point x="298" y="530"/>
      <point x="358" y="530" type="qcurve"/>
      <point x="406" y="530"/>
      <point x="484" y="494"/>
      <point x="539" y="425"/>
      <point x="569" y="324"/>
      <point x="569" y="259" type="qcurve"/>
      <point x="569" y="194"/>
      <point x="539" y="93"/>
      <point x="484" y="24"/>
      <point x="406" y="-12"/>
      <point x="358" y="-12" type="qcurve"/>
      <point x="298" y="-12"/>
      <point x="225" y="42"/>
      <point x="209" y="79" type="qcurve"/>
      <point x="205" y="79" type="line"/>
      <point x="205" y="-150" type="line"/>
      <point x="296" y="-150" type="line"/>
      <point x="296" y="-200" type="line"/>
      <point x="38" y="-200" type="line"/>
    </contour>
    <contour>
      <point x="329" y="52" type="qcurve"/>
      <point x="393" y="52"/>
      <point x="466" y="138"/>
      <point x="466" y="212" type="qcurve"/>
      <point x="466" y="306" type="line"/>
      <point x="466" y="380"/>
      <point x="393" y="466"/>
      <point x="329" y="466" type="qcurve"/>
      <point x="306" y="466"/>
      <point x="261" y="452"/>
      <point x="226" y="426"/>
      <point x="205" y="389"/>
      <point x="205" y="365" type="qcurve"/>
      <point x="205" y="153" type="line"/>
      <point x="205" y="129"/>
      <point x="226" y="92"/>
      <point x="261" y="66"/>
      <point x="306" y="52"/>
    </contour>
  </outline>
</glyph>
<glyph name="q" format="2">
  <advance width="604"/>
  <unicode hex="0071"/>
  <outline>
    <contour>
      <point x="321" y="-150" type="line"/>
      <point x="412" y="-150" type="line"/>
      <point x="412" y="79" type="line"/>
      <point x="409" y="79" type="line"/>
      <point x="393" y="42"/>
      <point x="319" y="-12"/>
      <point x="259" y="-12" type="qcurve"/>
      <point x="211" y="-12"/>
      <point x="133" y="24"/>
      <point x="78" y="93"/>
      <point x="48" y="194"/>
      <point x="48" y="259" type="qcurve"/>
      <point x="48" y="324"/>
      <point x="78" y="425"/>
      <point x="133" y="494"/>
      <point x="211" y="530"/>
      <point x="259" y="530" type="qcurve"/>
      <point x="320" y="530"/>
      <point x="396" y="476"/>
      <point x="412" y="439" type="qcurve"/>
      <point x="416" y="439" type="line"/>
      <point x="468" y="518" type="line"/>
      <point x="508" y="518" type="line"/>
      <point x="508" y="-150" type="line"/>
      <point x="579" y="-150" type="line"/>
      <point x="579" y="-200" type="line"/>
      <point x="321" y="-200" type="line"/>
    </contour>
    <contour>
      <point x="288" y="52" type="qcurve"/>
      <point x="311" y="52"/>
      <point x="356" y="66"/>
      <point x="391" y="92"/>
      <point x="412" y="129"/>
      <point x="412" y="153" type="qcurve"/>
      <point x="412" y="365" type="line"/>
      <point x="412" y="389"/>
      <point x="391" y="426"/>
      <point x="356" y="452"/>
      <point x="311" y="466"/>
      <point x="288" y="466" type="qcurve"/>
      <point x="224" y="466"/>
      <point x="151" y="380"/>
      <point x="151" y="306" type="qcurve"/>
      <point x="151" y="212" type="line"/>
      <point x="151" y="138"/>
      <point x="224" y="52"/>
    </contour>
  </outline>
</glyph>
<glyph name="r" format="2">
  <advance width="454"/>
  <unicode hex="0072"/>
  <outline>
    <contour>
      <point x="48" y="50" type="line"/>
      <point x="119" y="50" type="line"/>
      <point x="119" y="446" type="line"/>
      <point x="48" y="459" type="line"/>
      <point x="48" y="497" type="line"/>
      <point x="213" y="530" type="line"/>
      <point x="213" y="438" type="line"/>
      <point x="217" y="438" type="line"/>
      <point x="224" y="454"/>
      <point x="246" y="487"/>
      <point x="276" y="514"/>
      <point x="317" y="530"/>
      <point x="344" y="530" type="qcurve"/>
      <point x="389" y="530"/>
      <point x="443" y="486"/>
      <point x="443" y="444" type="qcurve"/>
      <point x="443" y="412"/>
      <point x="410" y="376"/>
      <point x="384" y="376" type="qcurve"/>
      <point x="355" y="376"/>
      <point x="322" y="408"/>
      <point x="322" y="431" type="qcurve"/>
      <point x="322" y="450"/>
      <point x="337" y="473"/>
      <point x="348" y="475" type="qcurve"/>
      <point x="348" y="478" type="line"/>
      <point x="344" y="479"/>
      <point x="334" y="480"/>
      <point x="326" y="480" type="qcurve"/>
      <point x="306" y="480"/>
      <point x="266" y="460"/>
      <point x="234" y="427"/>
      <point x="215" y="387"/>
      <point x="215" y="367" type="qcurve"/>
      <point x="215" y="50" type="line"/>
      <point x="306" y="50" type="line"/>
      <point x="306" y="0" type="line"/>
      <point x="48" y="0" type="line"/>
    </contour>
  </outline>
</glyph>
<glyph name="s" format="2">
  <advance width="491"/>
  <unicode hex="0073"/>
  <outline>
    <contour>
      <point x="254" y="-12" type="qcurve"/>
      <point x="206" y="-12"/>
      <point x="139" y="27"/>
      <point x="128" y="52" type="qcurve"/>
      <point x="124" y="52" type="line"/>
      <point x="124" y="0" type="line"/>
      <point x="56" y="0" type="line"/>
      <point x="56" y="155" type="line"/>
      <point x="124" y="155" type="line"/>
      <point x="124" y="135" type="line"/>
      <point x="124" y="93"/>
      <point x="177" y="42"/>
      <point x="237" y="42" type="qcurve"/>
      <point x="292" y="42"/>
      <point x="351" y="80"/>
      <point x="351" y="123" type="qcurve"/>
      <point x="351" y="187"/>
      <point x="269" y="207" type="qcurve"/>
      <point x="212" y="220" type="line"/>
      <point x="136" y="237"/>
      <point x="59" y="315"/>
      <point x="59" y="381" type="qcurve"/>
      <point x="59" y="451"/>
      <point x="154" y="530"/>
      <point x="235" y="530" type="qcurve"/>
      <point x="283" y="530"/>
      <point x="344" y="498"/>
      <point x="353" y="473" type="qcurve"/>
      <point x="357" y="473" type="line"/>
      <point x="357" y="518" type="line"/>
      <point x="425" y="518" type="line"/>
      <point x="425" y="362" type="line"/>
      <point x="357" y="362" type="line"/>
      <point x="357" y="397" type="line"/>
      <point x="357" y="436"/>
      <point x="305" y="476"/>
      <point x="248" y="476" type="qcurve"/>
      <point x="199" y="476"/>
      <point x="146" y="438"/>
      <point x="146" y="400" type="qcurve"/>
      <point x="146" y="366"/>
      <point x="189" y="323"/>
      <point x="229" y="313" type="qcurve"/>
      <point x="283" y="302" type="line"/>
      <point x="361" y="285"/>
      <point x="440" y="211"/>
      <point x="440" y="143" type="qcurve"/>
      <point x="440" y="75"/>
      <point x="341" y="-12"/>
    </contour>
  </outline>
</glyph>
<glyph name="t" format="2">
  <advance width="357"/>
  <unicode hex="0074"/>
  <outline>
    <contour>
      <point x="203" y="-6" type="qcurve"/>
      <point x="149" y="-6"/>
      <point x="106" y="39"/>
      <point x="106" y="90" type="qcurve"/>
      <point x="106" y="465" type="line"/>
      <point x="39" y="465" type="line"/>
      <point x="39" y="518" type="line"/>
      <point x="51" y="518" type="line"/>
      <point x="71" y="518"/>
      <point x="96" y="524"/>
      <point x="111" y="535"/>
      <point x="120" y="553"/>
      <point x="124" y="565" type="qcurve"/>
      <point x="150" y="654" type="line"/>
      <point x="201" y="654" type="line"/>
      <point x="201" y="518" type="line"/>
      <point x="331" y="518" type="line"/>
      <point x="331" y="465" type="line"/>
      <point x="201" y="465" type="line"/>
      <point x="201" y="54" type="line"/>
      <point x="331" y="54" type="line"/>
      <point x="331" y="16" type="line"/>
      <point x="314" y="7"/>
      <point x="241" y="-6"/>
    </contour>
  </outline>
</glyph>
<glyph name="u" format="2">
  <advance width="624"/>
  <unicode hex="0075"/>
  <outline>
    <contour>
      <point x="273" y="-12" type="qcurve"/>
      <point x="179" y="-12"/>
      <point x="99" y="85"/>
      <point x="99" y="182" type="qcurve"/>
      <point x="99" y="446" type="line"/>
      <point x="28" y="459" type="line"/>
      <point x="28" y="497" type="line"/>
      <point x="195" y="530" type="line"/>
      <point x="195" y="189" type="line"/>
      <point x="195" y="120"/>
      <point x="250" y="54"/>
      <point x="308" y="54" type="qcurve"/>
      <point x="329" y="54"/>
      <point x="370" y="66"/>
      <point x="403" y="90"/>
      <point x="423" y="126"/>
      <point x="423" y="151" type="qcurve"/>
      <point x="423" y="446" type="line"/>
      <point x="352" y="459" type="line"/>
      <point x="352" y="497" type="line"/>
      <point x="519" y="530" type="line"/>
      <point x="519" y="72" type="line"/>
      <point x="590" y="59" type="line"/>
      <point x="590" y="21" type="line"/>
      <point x="425" y="-12" type="line"/>
      <point x="425" y="80" type="line"/>
      <point x="421" y="80" type="line"/>
      <point x="415" y="64"/>
      <point x="390" y="31"/>
      <point x="353" y="5"/>
      <point x="304" y="-12"/>
    </contour>
  </outline>
</glyph>
<glyph name="v" format="2">
  <advance width="540"/>
  <unicode hex="0076"/>
  <outline>
    <contour>
      <point x="54" y="468" type="line"/>
      <point x="3" y="468" type="line"/>
      <point x="3" y="518" type="line"/>
      <point x="227" y="518" type="line"/>
      <point x="227" y="468" type="line"/>
      <point x="156" y="468" type="line"/>
      <point x="288" y="99" type="line"/>
      <point x="292" y="99" type="line"/>
      <point x="424" y="468" type="line"/>
      <point x="353" y="468" type="line"/>
      <point x="353" y="518" type="line"/>
      <point x="537" y="518" type="line"/>
      <point x="537" y="468" type="line"/>
      <point x="486" y="468" type="line"/>
      <point x="307" y="0" type="line"/>
      <point x="233" y="0" type="line"/>
    </contour>
  </outline>
</glyph>
<glyph name="w" format="2">
  <advance width="795"/>
  <unicode hex="0077"/>
  <outline>
    <contour>
      <point x="62" y="468" type="line"/>
      <point x="11" y="468" type="line"/>
      <point x="11" y="518" type="line"/>
      <point x="230" y="518" type="line"/>
      <point x="230" y="468" type="line"/>
      <point x="159" y="468" type="line"/>
      <point x="257" y="94" type="line"/>
      <point x="261" y="94" type="line"/>
      <point x="380" y="518" type="line"/>
      <point x="458" y="518" type="line"/>
      <point x="577" y="94" type="line"/>
      <point x="581" y="94" type="line"/>
      <point x="679" y="468" type="line"/>
      <point x="608" y="468" type="line"/>
      <point x="608" y="518" type="line"/>
      <point x="784" y="518" type="line"/>
      <point x="784" y="468" type="line"/>
      <point x="733" y="468" type="line"/>
      <point x="602" y="0" type="line"/>
      <point x="516" y="0" type="line"/>
      <point x="401" y="397" type="line"/>
      <point x="397" y="397" type="line"/>
      <point x="279" y="0" type="line"/>
      <point x="193" y="0" type="line"/>
    </contour>
  </outline>
</glyph>
<glyph name="x" format="2">
  <advance width="567"/>
  <unicode hex="0078"/>
  <outline>
    <contour>
      <point x="28" y="50" type="line"/>
      <point x="85" y="50" type="line"/>
      <point x="233" y="251" type="line"/>
      <point x="82" y="468" type="line"/>
      <point x="31" y="468" type="line"/>
      <point x="31" y="518" type="line"/>
      <point x="255" y="518" type="line"/>
      <point x="255" y="468" type="line"/>
      <point x="196" y="468" type="line"/>
      <point x="303" y="310" type="line"/>
      <point x="307" y="310" type="line"/>
      <point x="412" y="468" type="line"/>
      <point x="351" y="468" type="line"/>
      <point x="351" y="518" type="line"/>
      <point x="535" y="518" type="line"/>
      <point x="535" y="468" type="line"/>
      <point x="478" y="468" type="line"/>
      <point x="336" y="269" type="line"/>
      <point x="489" y="50" type="line"/>
      <point x="540" y="50" type="line"/>
      <point x="540" y="0" type="line"/>
      <point x="314" y="0" type="line"/>
      <point x="314" y="50" type="line"/>
      <point x="373" y="50" type="line"/>
      <point x="266" y="210" type="line"/>
      <point x="261" y="210" type="line"/>
      <point x="151" y="50" type="line"/>
      <point x="212" y="50" type="line"/>
      <point x="212" y="0" type="line"/>
      <point x="28" y="0" type="line"/>
    </contour>
  </outline>
</glyph>
<glyph name="y" format="2">
  <advance width="541"/>
  <unicode hex="0079"/>
  <outline>
    <contour>
      <point x="123" y="-212" type="qcurve"/>
      <point x="70" y="-212"/>
      <point x="20" y="-165"/>
      <point x="20" y="-130" type="qcurve"/>
      <point x="20" y="-101"/>
      <point x="50" y="-68"/>
      <point x="79" y="-68" type="qcurve"/>
      <point x="104" y="-68"/>
      <point x="131" y="-98"/>
      <point x="131" y="-123" type="qcurve"/>
      <point x="131" y="-139"/>
      <point x="116" y="-160"/>
      <point x="107" y="-164" type="qcurve"/>
      <point x="107" y="-168" type="line"/>
      <point x="119" y="-171"/>
      <point x="130" y="-171" type="qcurve"/>
      <point x="156" y="-171"/>
      <point x="205" y="-124"/>
      <point x="224" y="-73" type="qcurve"/>
      <point x="243" y="-22" type="line"/>
      <point x="54" y="468" type="line"/>
      <point x="3" y="468" type="line"/>
      <point x="3" y="518" type="line"/>
      <point x="227" y="518" type="line"/>
      <point x="227" y="468" type="line"/>
      <point x="156" y="468" type="line"/>
      <point x="288" y="99" type="line"/>
      <point x="292" y="99" type="line"/>
      <point x="424" y="468" type="line"/>
      <point x="353" y="468" type="line"/>
      <point x="353" y="518" type="line"/>
      <point x="537" y="518" type="line"/>
      <point x="537" y="468" type="line"/>
      <point x="486" y="468" type="line"/>
      <point x="275" y="-80" type="line"/>
      <point x="264" y="-107"/>
      <point x="236" y="-155"/>
      <point x="198" y="-191"/>
      <point x="151" y="-212"/>
    </contour>
  </outline>
</glyph>
<glyph name="z" format="2">
  <advance width="508"/>
  <unicode hex="007A"/>
  <outline>
    <contour>
      <point x="46" y="40" type="line"/>
      <point x="335" y="466" type="line"/>
      <point x="121" y="466" type="line"/>
      <point x="121" y="362" type="line"/>
      <point x="54" y="362" type="line"/>
      <point x="54" y="518" type="line"/>
      <point x="454" y="518" type="line"/>
      <point x="454" y="478" type="line"/>
      <point x="165" y="52" type="line"/>
      <point x="395" y="52" type="line"/>
      <point x="395" y="156" type="line"/>
      <point x="462" y="156" type="line"/>
      <point x="462" y="0" type="line"/>
      <point x="46" y="0" type="line"/>
    </contour>
  </outline>
</glyph>
<glyph name="braceleft" format="2">
  <advance width="334"/>
  <unicode hex="007B"/>
  <outline>
    <contour>
      <point x="203" y="-138" type="line"/>
      <point x="159" y="-138"/>
      <point x="116" y="-91"/>
      <point x="116" y="-53" type="qcurve"/>
      <point x="116" y="195" type="line"/>
      <point x="116" y="239"/>
      <point x="59" y="283"/>
      <point x="15" y="283" type="qcurve"/>
      <point x="15" y="339" type="line"/>
      <point x="59" y="339"/>
      <point x="116" y="383"/>
      <point x="116" y="427" type="qcurve"/>
      <point x="116" y="675" type="line"/>
      <point x="116" y="713"/>
      <point x="159" y="760"/>
      <point x="203" y="760" type="qcurve"/>
      <point x="304" y="760" type="line"/>
      <point x="304" y="711" type="line"/>
      <point x="204" y="711" type="line"/>
      <point x="204" y="445" type="line"/>
      <point x="204" y="421"/>
      <point x="186" y="377"/>
      <point x="156" y="343"/>
      <point x="115" y="321"/>
      <point x="93" y="317" type="qcurve"/>
      <point x="93" y="305" type="line"/>
      <point x="115" y="301"/>
      <point x="156" y="279"/>
      <point x="186" y="245"/>
      <point x="204" y="201"/>
      <point x="204" y="177" type="qcurve"/>
      <point x="204" y="-89" type="line"/>
      <point x="304" y="-89" type="line"/>
      <point x="304" y="-138" type="line"/>
    </contour>
  </outline>
</glyph>
<glyph name="bar" format="2">
  <advance width="313"/>
  <unicode hex="007C"/>
  <outline>
    <contour>
      <point x="126" y="760" type="line"/>
      <point x="187" y="760" type="line"/>
      <point x="187" y="-138" type="line"/>
      <point x="126" y="-138" type="line"/>
    </contour>
  </outline>
</glyph>
<glyph name="braceright" format="2">
  <advance width="334"/>
  <unicode hex="007D"/>
  <outline>
    <contour>
      <point x="29" y="-89" type="line"/>
      <point x="129" y="-89" type="line"/>
      <point x="129" y="177" type="line"/>
      <point x="129" y="201"/>
      <point x="147" y="245"/>
      <point x="177" y="279"/>
      <point x="217" y="301"/>
      <point x="240" y="305" type="qcurve"/>
      <point x="240" y="317" type="line"/>
      <point x="217" y="321"/>
      <point x="177" y="343"/>
      <point x="147" y="377"/>
      <point x="129" y="421"/>
      <point x="129" y="445" type="qcurve"/>
      <point x="129" y="711" type="line"/>
      <point x="29" y="711" type="line"/>
      <point x="29" y="760" type="line"/>
      <point x="130" y="760" type="line"/>
      <point x="174" y="760"/>
      <point x="217" y="713"/>
      <point x="217" y="675" type="qcurve"/>
      <point x="217" y="427" type="line"/>
      <point x="217" y="383"/>
      <point x="274" y="339"/>
      <point x="318" y="339" type="qcurve"/>
      <point x="318" y="283" type="line"/>
      <point x="274" y="283"/>
      <point x="217" y="239"/>
      <point x="217" y="195" type="qcurve"/>
      <point x="217" y="-53" type="line"/>
      <point x="217" y="-91"/>
      <point x="174" y="-138"/>
      <point x="130" y="-138" type="qcurve"/>
      <point x="29" y="-138" type="line"/>
    </contour>
  </outline>
</glyph>
<glyph name="asciitilde" format="2">
  <advance width="600"/>
  <unicode hex="007E"/>
  <outline>
    <contour>
      <point x="418" y="240" type="qcurve"/>
      <point x="382" y="240"/>
      <point x="325" y="260"/>
      <point x="290" y="277" type="qcurve"/>
      <point x="261" y="291"/>
      <point x="207" y="311"/>
      <point x="177" y="311" type="qcurve"/>
      <point x="151" y="311"/>
      <point x="113" y="296"/>
      <point x="90" y="280" type="qcurve"/>
      <point x="63" y="318" type="line"/>
      <point x="83" y="343"/>
      <point x="137" y="374"/>
      <point x="182" y="374" type="qcurve"/>
      <point x="218" y="374"/>
      <point x="275" y="354"/>
      <point x="310" y="337" type="qcurve"/>
      <point x="339" y="323"/>
      <point x="393" y="303"/>
      <point x="423" y="303" type="qcurve"/>
      <point x="449" y="303"/>
      <point x="487" y="318"/>
      <point x="510" y="334" type="qcurve"/>
      <point x="537" y="296" type="line"/>
      <point x="517" y="271"/>
      <point x="463" y="240"/>
    </contour>
  </outline>
</glyph>
<glyph name="exclamdown" format="2">
  <advance width="282"/>
  <unicode hex="00A1"/>
  <outline>
    <contour>
      <point x="141" y="394" type="qcurve"/>
      <point x="109" y="394"/>
      <point x="74" y="432"/>
      <point x="74" y="459" type="qcurve"/>
      <point x="74" y="465" type="line"/>
      <point x="74" y="492"/>
      <point x="109" y="530"/>
      <point x="141" y="530" type="qcurve"/>
      <point x="173" y="530"/>
      <point x="208" y="492"/>
      <point x="208" y="465" type="qcurve"/>
      <point x="208" y="459" type="line"/>
      <point x="208" y="432"/>
      <point x="173" y="394"/>
    </contour>
    <contour>
      <point x="92" y="17" type="line"/>
      <point x="121" y="327" type="line"/>
      <point x="161" y="327" type="line"/>
      <point x="190" y="17" type="line"/>
      <point x="190" y="-180" type="line"/>
      <point x="92" y="-180" type="line"/>
    </contour>
  </outline>
</glyph>
<glyph name="cent" format="2">
  <advance width="523"/>
  <unicode hex="00A2"/>
  <outline>
    <contour>
      <point x="256" y="-11" type="line"/>
      <point x="205" y="-6"/>
      <point x="126" y="37"/>
      <point x="72" y="107"/>
      <point x="44" y="202"/>
      <point x="44" y="259" type="qcurve"/>
      <point x="44" y="316"/>
      <point x="75" y="409"/>
      <point x="131" y="478"/>
      <point x="209" y="521"/>
      <point x="256" y="527" type="qcurve"/>
      <point x="256" y="629" type="line"/>
      <point x="311" y="629" type="line"/>
      <point x="311" y="529" type="line"/>
      <point x="386" y="525"/>
      <point x="472" y="456"/>
      <point x="472" y="405" type="qcurve"/>
      <point x="472" y="373"/>
      <point x="438" y="338"/>
      <point x="407" y="338" type="qcurve"/>
      <point x="378" y="338"/>
      <point x="347" y="374"/>
      <point x="347" y="400" type="qcurve"/>
      <point x="347" y="420"/>
      <point x="370" y="450"/>
      <point x="390" y="458" type="qcurve"/>
      <point x="390" y="462" type="line"/>
      <point x="375" y="470"/>
      <point x="336" y="479"/>
      <point x="309" y="479" type="qcurve"/>
      <point x="309" y="57" type="line"/>
      <point x="337" y="58"/>
      <point x="380" y="73"/>
      <point x="413" y="97"/>
      <point x="438" y="130"/>
      <point x="448" y="149" type="qcurve"/>
      <point x="484" y="126" type="line"/>
      <point x="475" y="102"/>
      <point x="446" y="56"/>
      <point x="404" y="19"/>
      <point x="347" y="-7"/>
      <point x="311" y="-11" type="qcurve"/>
      <point x="311" y="-114" type="line"/>
      <point x="256" y="-114" type="line"/>
    </contour>
    <contour>
      <point x="258" y="472" type="line"/>
      <point x="207" y="458"/>
      <point x="148" y="371"/>
      <point x="148" y="310" type="qcurve"/>
      <point x="148" y="231" type="line"/>
      <point x="148" y="164"/>
      <point x="206" y="76"/>
      <point x="258" y="62" type="qcurve"/>
    </contour>
  </outline>
</glyph>
<glyph name="sterling" format="2">
  <advance width="588"/>
  <unicode hex="00A3"/>
  <outline>
    <contour>
      <point x="62" y="80" type="line"/>
      <point x="83" y="90"/>
      <point x="118" y="124"/>
      <point x="142" y="168"/>
      <point x="155" y="219"/>
      <point x="155" y="246" type="qcurve"/>
      <point x="155" y="262"/>
      <point x="150" y="291"/>
      <point x="146" y="306" type="qcurve"/>
      <point x="54" y="306" type="line"/>
      <point x="54" y="358" type="line"/>
      <point x="130" y="358" type="line"/>
      <point x="117" y="396"/>
      <point x="93" y="473"/>
      <point x="93" y="516" type="qcurve"/>
      <point x="93" y="559"/>
      <point x="125" y="630"/>
      <point x="182" y="681"/>
      <point x="263" y="710"/>
      <point x="312" y="710" type="qcurve"/>
      <point x="359" y="710"/>
      <point x="436" y="690"/>
      <point x="490" y="655"/>
      <point x="519" y="607"/>
      <point x="519" y="579" type="qcurve"/>
      <point x="519" y="546"/>
      <point x="483" y="507"/>
      <point x="451" y="507" type="qcurve"/>
      <point x="419" y="507"/>
      <point x="387" y="545"/>
      <point x="387" y="571" type="qcurve"/>
      <point x="387" y="593"/>
      <point x="409" y="624"/>
      <point x="429" y="634" type="qcurve"/>
      <point x="429" y="638" type="line"/>
      <point x="415" y="646"/>
      <point x="363" y="655"/>
      <point x="334" y="655" type="qcurve"/>
      <point x="259" y="655"/>
      <point x="191" y="583"/>
      <point x="191" y="526" type="qcurve"/>
      <point x="191" y="476"/>
      <point x="215" y="397"/>
      <point x="226" y="358" type="qcurve"/>
      <point x="405" y="358" type="line"/>
      <point x="405" y="306" type="line"/>
      <point x="237" y="306" type="line"/>
      <point x="239" y="295"/>
      <point x="242" y="272"/>
      <point x="242" y="259" type="qcurve"/>
      <point x="242" y="228"/>
      <point x="223" y="174"/>
      <point x="192" y="130"/>
      <point x="153" y="97"/>
      <point x="134" y="87" type="qcurve"/>
      <point x="134" y="82" type="line"/>
      <point x="472" y="82" type="line"/>
      <point x="472" y="181" type="line"/>
      <point x="526" y="181" type="line"/>
      <point x="526" y="0" type="line"/>
      <point x="62" y="0" type="line"/>
    </contour>
  </outline>
</glyph>
<glyph name="currency" format="2">
  <advance width="634"/>
  <unicode hex="00A4"/>
  <outline>
    <contour>
      <point x="317" y="117" type="qcurve"/>
      <point x="237" y="117"/>
      <point x="185" y="159" type="qcurve"/>
      <point x="86" y="59" type="line"/>
      <point x="36" y="109" type="line"/>
      <point x="137" y="210" type="line"/>
      <point x="119" y="238"/>
      <point x="101" y="308"/>
      <point x="101" y="349" type="qcurve"/>
      <point x="101" y="432"/>
      <point x="137" y="488" type="qcurve"/>
      <point x="36" y="589" type="line"/>
      <point x="86" y="639" type="line"/>
      <point x="185" y="539" type="line"/>
      <point x="237" y="581"/>
      <point x="317" y="581" type="qcurve"/>
      <point x="396" y="581"/>
      <point x="449" y="539" type="qcurve"/>
      <point x="548" y="639" type="line"/>
      <point x="598" y="589" type="line"/>
      <point x="497" y="488" type="line"/>
      <point x="533" y="432"/>
      <point x="533" y="349" type="qcurve"/>
      <point x="533" y="308"/>
      <point x="515" y="238"/>
      <point x="497" y="210" type="qcurve"/>
      <point x="598" y="109" type="line"/>
      <point x="548" y="59" type="line"/>
      <point x="449" y="159" type="line"/>
      <point x="396" y="117"/>
    </contour>
    <contour>
      <point x="317" y="170" type="qcurve"/>
      <point x="380" y="170"/>
      <point x="439" y="246"/>
      <point x="439" y="304" type="qcurve"/>
      <point x="439" y="394" type="line"/>
      <point x="439" y="452"/>
      <point x="380" y="528"/>
      <point x="317" y="528" type="qcurve"/>
      <point x="254" y="528"/>
      <point x="195" y="452"/>
      <point x="195" y="394" type="qcurve"/>
      <point x="195" y="304" type="line"/>
      <point x="195" y="246"/>
      <point x="254" y="170"/>
    </contour>
  </outline>
</glyph>
<glyph name="yen" format="2">
  <advance width="652"/>
  <unicode hex="00A5"/>
  <outline>
    <contour>
      <point x="182" y="50" type="line"/>
      <point x="276" y="50" type="line"/>
      <point x="276" y="151" type="line"/>
      <point x="105" y="151" type="line"/>
      <point x="105" y="201" type="line"/>
      <point x="276" y="201" type="line"/>
      <point x="276" y="301" type="line"/>
      <point x="105" y="301" type="line"/>
      <point x="105" y="351" type="line"/>
      <point x="247" y="351" type="line"/>
      <point x="78" y="648" type="line"/>
      <point x="23" y="648" type="line"/>
      <point x="23" y="698" type="line"/>
      <point x="276" y="698" type="line"/>
      <point x="276" y="648" type="line"/>
      <point x="190" y="648" type="line"/>
      <point x="345" y="366" type="line"/>
      <point x="349" y="366" type="line"/>
      <point x="510" y="648" type="line"/>
      <point x="424" y="648" type="line"/>
      <point x="424" y="698" type="line"/>
      <point x="630" y="698" type="line"/>
      <point x="630" y="648" type="line"/>
      <point x="575" y="648" type="line"/>
      <point x="399" y="351" type="line"/>
      <point x="548" y="351" type="line"/>
      <point x="548" y="301" type="line"/>
      <point x="377" y="301" type="line"/>
      <point x="377" y="201" type="line"/>
      <point x="548" y="201" type="line"/>
      <point x="548" y="151" type="line"/>
      <point x="377" y="151" type="line"/>
      <point x="377" y="50" type="line"/>
      <point x="471" y="50" type="line"/>
      <point x="471" y="0" type="line"/>
      <point x="182" y="0" type="line"/>
    </contour>
  </outline>
</glyph>
<glyph name="brokenbar" format="2">
  <advance width="313"/>
  <unicode hex="00A6"/>
  <outline>
    <contour>
      <point x="126" y="221" type="line"/>
      <point x="187" y="221" type="line"/>
      <point x="187" y="-138" type="line"/>
      <point x="126" y="-138" type="line"/>
    </contour>
    <contour>
      <point x="126" y="760" type="line"/>
      <point x="187" y="760" type="line"/>
      <point x="187" y="401" type="line"/>
      <point x="126" y="401" type="line"/>
    </contour>
  </outline>
</glyph>
<glyph name="section" format="2">
  <advance width="589"/>
  <unicode hex="00A7"/>
  <outline>
    <contour>
      <point x="270" y="-155" type="qcurve"/>
      <point x="195" y="-155"/>
      <point x="109" y="-101"/>
      <point x="109" y="-55" type="qcurve"/>
      <point x="109" y="-24"/>
      <point x="144" y="11"/>
      <point x="172" y="11" type="qcurve"/>
      <point x="198" y="11"/>
      <point x="229" y="-21"/>
      <point x="229" y="-44" type="qcurve"/>
      <point x="229" y="-65"/>
      <point x="209" y="-86"/>
      <point x="195" y="-94" type="qcurve"/>
      <point x="195" y="-96" type="line"/>
      <point x="210" y="-101"/>
      <point x="242" y="-106"/>
      <point x="259" y="-106" type="qcurve"/>
      <point x="318" y="-106"/>
      <point x="380" y="-60"/>
      <point x="380" y="-13" type="qcurve"/>
      <point x="380" y="26"/>
      <point x="334" y="74"/>
      <point x="292" y="87" type="qcurve"/>
      <point x="228" y="105" type="line"/>
      <point x="151" y="127"/>
      <point x="71" y="199"/>
      <point x="71" y="264" type="qcurve"/>
      <point x="71" y="318"/>
      <point x="141" y="394"/>
      <point x="197" y="411" type="qcurve"/>
      <point x="197" y="415" type="line"/>
      <point x="123" y="459"/>
      <point x="123" y="550" type="qcurve"/>
      <point x="123" y="625"/>
      <point x="224" y="710"/>
      <point x="319" y="710" type="qcurve"/>
      <point x="394" y="710"/>
      <point x="480" y="656"/>
      <point x="480" y="610" type="qcurve"/>
      <point x="480" y="579"/>
      <point x="445" y="544"/>
      <point x="417" y="544" type="qcurve"/>
      <point x="391" y="544"/>
      <point x="360" y="576"/>
      <point x="360" y="599" type="qcurve"/>
      <point x="360" y="620"/>
      <point x="380" y="641"/>
      <point x="394" y="649" type="qcurve"/>
      <point x="394" y="651" type="line"/>
      <point x="379" y="656"/>
      <point x="347" y="661"/>
      <point x="330" y="661" type="qcurve"/>
      <point x="271" y="661"/>
      <point x="209" y="615"/>
      <point x="209" y="568" type="qcurve"/>
      <point x="209" y="529"/>
      <point x="255" y="481"/>
      <point x="297" y="468" type="qcurve"/>
      <point x="361" y="450" type="line"/>
      <point x="437" y="428"/>
      <point x="518" y="356"/>
      <point x="518" y="291" type="qcurve"/>
      <point x="518" y="237"/>
      <point x="448" y="161"/>
      <point x="392" y="144" type="qcurve"/>
      <point x="392" y="140" type="line"/>
      <point x="466" y="96"/>
      <point x="466" y="5" type="qcurve"/>
      <point x="466" y="-70"/>
      <point x="365" y="-155"/>
    </contour>
    <contour>
      <point x="352" y="161" type="qcurve"/>
      <point x="389" y="169"/>
      <point x="433" y="219"/>
      <point x="433" y="266" type="qcurve"/>
      <point x="433" y="304"/>
      <point x="387" y="350"/>
      <point x="341" y="363" type="qcurve"/>
      <point x="273" y="382" type="line"/>
      <point x="265" y="384"/>
      <point x="246" y="391"/>
      <point x="238" y="394" type="qcurve"/>
      <point x="201" y="386"/>
      <point x="157" y="336"/>
      <point x="157" y="289" type="qcurve"/>
      <point x="157" y="251"/>
      <point x="203" y="205"/>
      <point x="249" y="192" type="qcurve"/>
      <point x="317" y="173" type="line"/>
      <point x="325" y="171"/>
      <point x="344" y="164"/>
    </contour>
  </outline>
</glyph>
<glyph name="dieresis" format="2">
  <advance width="600"/>
  <unicode hex="00A8"/>
  <outline>
    <contour>
      <point x="206" y="615" type="qcurve"/>
      <point x="180" y="615"/>
      <point x="151" y="645"/>
      <point x="151" y="668" type="qcurve"/>
      <point x="151" y="672" type="line"/>
      <point x="151" y="695"/>
      <point x="180" y="725"/>
      <point x="206" y="725" type="qcurve"/>
      <point x="232" y="725"/>
      <point x="261" y="695"/>
      <point x="261" y="672" type="qcurve"/>
      <point x="261" y="668" type="line"/>
      <point x="261" y="645"/>
      <point x="232" y="615"/>
    </contour>
    <contour>
      <point x="394" y="615" type="qcurve"/>
      <point x="368" y="615"/>
      <point x="339" y="645"/>
      <point x="339" y="668" type="qcurve"/>
      <point x="339" y="672" type="line"/>
      <point x="339" y="695"/>
      <point x="368" y="725"/>
      <point x="394" y="725" type="qcurve"/>
      <point x="420" y="725"/>
      <point x="449" y="695"/>
      <point x="449" y="672" type="qcurve"/>
      <point x="449" y="668" type="line"/>
      <point x="449" y="645"/>
      <point x="420" y="615"/>
    </contour>
  </outline>
</glyph>
<glyph name="logicalnot" format="2">
  <advance width="600"/>
  <unicode hex="00AC"/>
  <outline>
    <contour>
      <point x="456" y="276" type="line"/>
      <point x="66" y="276" type="line"/>
      <point x="66" y="334" type="line"/>
      <point x="518" y="334" type="line"/>
      <point x="518" y="81" type="line"/>
      <point x="456" y="81" type="line"/>
    </contour>
  </outline>
</glyph>
<glyph name="registered" format="2">
  <advance width="474"/>
  <unicode hex="00AE"/>
  <outline>
    <contour>
      <point x="145" y="418" type="line"/>
      <point x="164" y="418" type="line"/>
      <point x="164" y="590" type="line"/>
      <point x="145" y="590" type="line"/>
      <point x="145" y="610" type="line"/>
      <point x="250" y="610" type="line"/>
      <point x="281" y="610"/>
      <point x="315" y="582"/>
      <point x="315" y="554" type="qcurve"/>
      <point x="315" y="509"/>
      <point x="273" y="497" type="qcurve"/>
      <point x="308" y="435" type="line"/>
      <point x="316" y="418"/>
      <point x="334" y="418" type="qcurve"/>
      <point x="336" y="418" type="line"/>
      <point x="336" y="398" type="line"/>
      <point x="322" y="398" type="line"/>
      <point x="302" y="398"/>
      <point x="275" y="410"/>
      <point x="266" y="427" type="qcurve"/>
      <point x="232" y="490" type="line"/>
      <point x="206" y="490" type="line"/>
      <point x="206" y="418" type="line"/>
      <point x="223" y="418" type="line"/>
      <point x="223" y="398" type="line"/>
      <point x="145" y="398" type="line"/>
    </contour>
    <contour>
      <point x="237" y="331" type="qcurve"/>
      <point x="272" y="331"/>
      <point x="330" y="357"/>
      <point x="372" y="401"/>
      <point x="396" y="459"/>
      <point x="396" y="492" type="qcurve"/>
      <point x="396" y="516" type="line"/>
      <point x="396" y="549"/>
      <point x="372" y="607"/>
      <point x="330" y="651"/>
      <point x="272" y="677"/>
      <point x="237" y="677" type="qcurve"/>
      <point x="202" y="677"/>
      <point x="144" y="651"/>
      <point x="102" y="607"/>
      <point x="78" y="549"/>
      <point x="78" y="516" type="qcurve"/>
      <point x="78" y="492" type="line"/>
      <point x="78" y="459"/>
      <point x="102" y="401"/>
      <point x="144" y="357"/>
      <point x="202" y="331"/>
    </contour>
    <contour>
      <point x="237" y="298" type="qcurve"/>
      <point x="196" y="298"/>
      <point x="124" y="329"/>
      <point x="70" y="384"/>
      <point x="38" y="460"/>
      <point x="38" y="504" type="qcurve"/>
      <point x="38" y="548"/>
      <point x="70" y="624"/>
      <point x="124" y="679"/>
      <point x="196" y="710"/>
      <point x="237" y="710" type="qcurve"/>
      <point x="278" y="710"/>
      <point x="350" y="679"/>
      <point x="404" y="624"/>
      <point x="436" y="548"/>
      <point x="436" y="504" type="qcurve"/>
      <point x="436" y="460"/>
      <point x="404" y="384"/>
      <point x="350" y="329"/>
      <point x="278" y="298"/>
    </contour>
    <contour>
      <point x="206" y="512" type="line"/>
      <point x="244" y="512" type="line"/>
      <point x="258" y="512"/>
      <point x="273" y="528"/>
      <point x="273" y="542" type="qcurve"/>
      <point x="273" y="556" type="line"/>
      <point x="273" y="570"/>
      <point x="258" y="586"/>
      <point x="244" y="586" type="qcurve"/>
      <point x="206" y="586" type="line"/>
    </contour>
  </outline>
</glyph>
<glyph name="macron" format="2">
  <advance width="600"/>
  <unicode hex="00AF"/>
  <outline>
    <contour>
      <point x="157" y="703" type="line"/>
      <point x="443" y="703" type="line"/>
      <point x="443" y="640" type="line"/>
      <point x="157" y="640" type="line"/>
    </contour>
  </outline>
</glyph>
<glyph name="degree" format="2">
  <advance width="466"/>
  <unicode hex="00B0"/>
  <outline>
    <contour>
      <point x="233" y="362" type="qcurve"/>
      <point x="197" y="362"/>
      <point x="134" y="389"/>
      <point x="89" y="435"/>
      <point x="63" y="499"/>
      <point x="63" y="536" type="qcurve"/>
      <point x="63" y="573"/>
      <point x="89" y="637"/>
      <point x="134" y="683"/>
      <point x="197" y="710"/>
      <point x="233" y="710" type="qcurve"/>
      <point x="269" y="710"/>
      <point x="332" y="683"/>
      <point x="377" y="637"/>
      <point x="403" y="573"/>
      <point x="403" y="536" type="qcurve"/>
      <point x="403" y="499"/>
      <point x="377" y="435"/>
      <point x="332" y="389"/>
      <point x="269" y="362"/>
    </contour>
    <contour>
      <point x="233" y="417" type="qcurve"/>
      <point x="257" y="417"/>
      <point x="298" y="436"/>
      <point x="326" y="468"/>
      <point x="342" y="511"/>
      <point x="342" y="536" type="qcurve"/>
      <point x="342" y="561"/>
      <point x="326" y="604"/>
      <point x="298" y="636"/>
      <point x="257" y="655"/>
      <point x="233" y="655" type="qcurve"/>
      <point x="209" y="655"/>
      <point x="168" y="636"/>
      <point x="140" y="604"/>
      <point x="124" y="561"/>
      <point x="124" y="536" type="qcurve"/>
      <point x="124" y="511"/>
      <point x="140" y="468"/>
      <point x="168" y="436"/>
      <point x="209" y="417"/>
    </contour>
  </outline>
</glyph>
<glyph name="plusminus" format="2">
  <advance width="600"/>
  <unicode hex="00B1"/>
  <outline>
    <contour>
      <point x="269" y="364" type="line"/>
      <point x="66" y="364" type="line"/>
      <point x="66" y="422" type="line"/>
      <point x="269" y="422" type="line"/>
      <point x="269" y="615" type="line"/>
      <point x="331" y="615" type="line"/>
      <point x="331" y="422" type="line"/>
      <point x="534" y="422" type="line"/>
      <point x="534" y="364" type="line"/>
      <point x="331" y="364" type="line"/>
      <point x="331" y="171" type="line"/>
      <point x="269" y="171" type="line"/>
    </contour>
    <contour>
      <point x="66" y="58" type="line"/>
      <point x="534" y="58" type="line"/>
      <point x="534" y="0" type="line"/>
      <point x="66" y="0" type="line"/>
    </contour>
  </outline>
</glyph>
<glyph name="twosuperior" format="2">
  <advance width="348"/>
  <unicode hex="00B2"/>
  <outline>
    <contour>
      <point x="36" y="388" type="line"/>
      <point x="160" y="493" type="line"/>
      <point x="185" y="515"/>
      <point x="219" y="563"/>
      <point x="219" y="591" type="qcurve"/>
      <point x="219" y="602" type="line"/>
      <point x="219" y="632"/>
      <point x="182" y="668"/>
      <point x="150" y="668" type="qcurve"/>
      <point x="121" y="668"/>
      <point x="105" y="659" type="qcurve"/>
      <point x="105" y="657" type="line"/>
      <point x="113" y="652"/>
      <point x="124" y="633"/>
      <point x="124" y="623" type="qcurve"/>
      <point x="124" y="605"/>
      <point x="103" y="581"/>
      <point x="83" y="581" type="qcurve"/>
      <point x="63" y="581"/>
      <point x="40" y="605"/>
      <point x="40" y="626" type="qcurve"/>
      <point x="40" y="658"/>
      <point x="109" y="704"/>
      <point x="163" y="704" type="qcurve"/>
      <point x="227" y="704"/>
      <point x="298" y="651"/>
      <point x="298" y="601" type="qcurve"/>
      <point x="298" y="577"/>
      <point x="282" y="536"/>
      <point x="254" y="502"/>
      <point x="218" y="473"/>
      <point x="199" y="461" type="qcurve"/>
      <point x="94" y="393" type="line"/>
      <point x="94" y="388" type="line"/>
      <point x="269" y="388" type="line"/>
      <point x="269" y="432" type="line"/>
      <point x="313" y="432" type="line"/>
      <point x="313" y="330" type="line"/>
      <point x="36" y="330" type="line"/>
    </contour>
  </outline>
</glyph>
<glyph name="threesuperior" format="2">
  <advance width="347"/>
  <unicode hex="00B3"/>
  <outline>
    <contour>
      <point x="155" y="324" type="qcurve"/>
      <point x="95" y="324"/>
      <point x="29" y="372"/>
      <point x="29" y="402" type="qcurve"/>
      <point x="29" y="422"/>
      <point x="52" y="447"/>
      <point x="72" y="447" type="qcurve"/>
      <point x="92" y="447"/>
      <point x="113" y="422"/>
      <point x="113" y="405" type="qcurve"/>
      <point x="113" y="395"/>
      <point x="102" y="376"/>
      <point x="94" y="371" type="qcurve"/>
      <point x="94" y="369" type="line"/>
      <point x="109" y="360"/>
      <point x="143" y="360" type="qcurve"/>
      <point x="182" y="360"/>
      <point x="223" y="394"/>
      <point x="223" y="425" type="qcurve"/>
      <point x="223" y="439" type="line"/>
      <point x="223" y="468"/>
      <point x="186" y="502"/>
      <point x="148" y="502" type="qcurve"/>
      <point x="116" y="502" type="line"/>
      <point x="116" y="541" type="line"/>
      <point x="145" y="541" type="line"/>
      <point x="180" y="541"/>
      <point x="217" y="576"/>
      <point x="217" y="600" type="qcurve"/>
      <point x="217" y="612" type="line"/>
      <point x="217" y="640"/>
      <point x="180" y="668"/>
      <point x="151" y="668" type="qcurve"/>
      <point x="119" y="668"/>
      <point x="104" y="659" type="qcurve"/>
      <point x="104" y="657" type="line"/>
      <point x="112" y="652"/>
      <point x="123" y="633"/>
      <point x="123" y="623" type="qcurve"/>
      <point x="123" y="606"/>
      <point x="102" y="581"/>
      <point x="82" y="581" type="qcurve"/>
      <point x="62" y="581"/>
      <point x="39" y="606"/>
      <point x="39" y="626" type="qcurve"/>
      <point x="39" y="641"/>
      <point x="58" y="669"/>
      <point x="92" y="691"/>
      <point x="136" y="704"/>
      <point x="162" y="704" type="qcurve"/>
      <point x="227" y="704"/>
      <point x="296" y="659"/>
      <point x="296" y="612" type="qcurve"/>
      <point x="296" y="577"/>
      <point x="245" y="531"/>
      <point x="212" y="526" type="qcurve"/>
      <point x="212" y="522" type="line"/>
      <point x="249" y="516"/>
      <point x="303" y="471"/>
      <point x="303" y="433" type="qcurve"/>
      <point x="303" y="380"/>
      <point x="221" y="324"/>
    </contour>
  </outline>
</glyph>
<glyph name="acute" format="2">
  <advance width="600"/>
  <unicode hex="00B4"/>
  <outline>
    <contour>
      <point x="263" y="600" type="line"/>
      <point x="338" y="783" type="line"/>
      <point x="426" y="740" type="line"/>
      <point x="294" y="584" type="line"/>
    </contour>
  </outline>
</glyph>
<glyph name="mu" format="2">
  <advance width="625"/>
  <unicode hex="00B5"/>
  <outline>
    <contour>
      <point x="99" y="446" type="line"/>
      <point x="28" y="459" type="line"/>
      <point x="28" y="497" type="line"/>
      <point x="195" y="530" type="line"/>
      <point x="195" y="189" type="line"/>
      <point x="195" y="120"/>
      <point x="250" y="54"/>
      <point x="308" y="54" type="qcurve"/>
      <point x="329" y="54"/>
      <point x="370" y="66"/>
      <point x="403" y="90"/>
      <point x="423" y="126"/>
      <point x="423" y="151" type="qcurve"/>
      <point x="423" y="446" type="line"/>
      <point x="352" y="459" type="line"/>
      <point x="352" y="497" type="line"/>
      <point x="519" y="530" type="line"/>
      <point x="519" y="72" type="line"/>
      <point x="590" y="59" type="line"/>
      <point x="590" y="21" type="line"/>
      <point x="425" y="-12" type="line"/>
      <point x="425" y="80" type="line"/>
      <point x="421" y="80" type="line"/>
      <point x="415" y="63"/>
      <point x="390" y="31"/>
      <point x="353" y="4"/>
      <point x="305" y="-12"/>
      <point x="275" y="-12" type="qcurve"/>
      <point x="236" y="-12"/>
      <point x="177" y="16"/>
      <point x="161" y="41" type="qcurve"/>
      <point x="157" y="40" type="line"/>
      <point x="198" y="-143" type="line"/>
      <point x="198" y="-200" type="line"/>
      <point x="99" y="-200" type="line"/>
    </contour>
  </outline>
</glyph>
<glyph name="paragraph" format="2">
  <advance width="639"/>
  <unicode hex="00B6"/>
  <outline>
    <contour>
      <point x="292" y="-155" type="qcurve"/>
      <point x="253" y="-155"/>
      <point x="187" y="-138"/>
      <point x="140" y="-106"/>
      <point x="114" y="-63"/>
      <point x="114" y="-37" type="qcurve"/>
      <point x="114" y="-7"/>
      <point x="148" y="32"/>
      <point x="177" y="32" type="qcurve"/>
      <point x="204" y="32"/>
      <point x="234" y="0"/>
      <point x="234" y="-26" type="qcurve"/>
      <point x="234" y="-49"/>
      <point x="210" y="-78"/>
      <point x="190" y="-84" type="qcurve"/>
      <point x="190" y="-87" type="line"/>
      <point x="208" y="-98"/>
      <point x="256" y="-111"/>
      <point x="291" y="-111" type="qcurve"/>
      <point x="302" y="-111" type="line"/>
      <point x="302" y="301" type="line"/>
      <point x="249" y="301"/>
      <point x="159" y="327"/>
      <point x="91" y="376"/>
      <point x="53" y="450"/>
      <point x="53" y="500" type="qcurve"/>
      <point x="53" y="549"/>
      <point x="91" y="624"/>
      <point x="158" y="673"/>
      <point x="249" y="698"/>
      <point x="301" y="698" type="qcurve"/>
      <point x="568" y="698" type="line"/>
      <point x="568" y="648" type="line"/>
      <point x="494" y="648" type="line"/>
      <point x="494" y="79" type="line"/>
      <point x="494" y="-37"/>
      <point x="388" y="-155"/>
    </contour>
    <contour>
      <point x="355" y="-99" type="line"/>
      <point x="397" y="-81"/>
      <point x="441" y="6"/>
      <point x="441" y="78" type="qcurve"/>
      <point x="441" y="648" type="line"/>
      <point x="355" y="648" type="line"/>
    </contour>
  </outline>
</glyph>
<glyph name="periodcentered" format="2">
  <advance width="324"/>
  <unicode hex="00B7"/>
  <outline>
    <contour>
      <point x="162" y="236" type="qcurve"/>
      <point x="130" y="236"/>
      <point x="95" y="274"/>
      <point x="95" y="301" type="qcurve"/>
      <point x="95" y="307" type="line"/>
      <point x="95" y="334"/>
      <point x="130" y="372"/>
      <point x="162" y="372" type="qcurve"/>
      <point x="194" y="372"/>
      <point x="229" y="334"/>
      <point x="229" y="307" type="qcurve"/>
      <point x="229" y="301" type="line"/>
      <point x="229" y="274"/>
      <point x="194" y="236"/>
    </contour>
  </outline>
</glyph>
<glyph name="cedilla" format="2">
  <advance width="600"/>
  <unicode hex="00B8"/>
  <outline>
    <contour>
      <point x="311" y="-206" type="qcurve"/>
      <point x="273" y="-206"/>
      <point x="230" y="-180"/>
      <point x="219" y="-166" type="qcurve"/>
      <point x="241" y="-142" type="line"/>
      <point x="251" y="-153"/>
      <point x="280" y="-166"/>
      <point x="300" y="-166" type="qcurve"/>
      <point x="323" y="-166"/>
      <point x="352" y="-146"/>
      <point x="352" y="-125" type="qcurve"/>
      <point x="352" y="-110"/>
      <point x="329" y="-84"/>
      <point x="291" y="-79" type="qcurve"/>
      <point x="264" y="-76" type="line"/>
      <point x="283" y="20" type="line"/>
      <point x="325" y="20" type="line"/>
      <point x="309" y="-60" type="line"/>
      <point x="312" y="-63" type="line"/>
      <point x="332" y="-58"/>
      <point x="349" y="-58" type="qcurve"/>
      <point x="381" y="-58"/>
      <point x="424" y="-91"/>
      <point x="424" y="-123" type="qcurve"/>
      <point x="424" y="-145"/>
      <point x="406" y="-176"/>
      <point x="374" y="-196"/>
      <point x="333" y="-206"/>
    </contour>
  </outline>
</glyph>
<glyph name="onesuperior" format="2">
  <advance width="358"/>
  <unicode hex="00B9"/>
  <outline>
    <contour>
      <point x="54" y="369" type="line"/>
      <point x="159" y="369" type="line"/>
      <point x="159" y="640" type="line"/>
      <point x="51" y="600" type="line"/>
      <point x="36" y="633" type="line"/>
      <point x="177" y="698" type="line"/>
      <point x="232" y="698" type="line"/>
      <point x="232" y="369" type="line"/>
      <point x="324" y="369" type="line"/>
      <point x="324" y="330" type="line"/>
      <point x="54" y="330" type="line"/>
    </contour>
  </outline>
</glyph>
<glyph name="ordmasculine" format="2">
  <advance width="412"/>
  <unicode hex="00BA"/>
  <outline>
    <contour>
      <point x="206" y="379" type="qcurve"/>
      <point x="253" y="379"/>
      <point x="294" y="437"/>
      <point x="294" y="481" type="qcurve"/>
      <point x="294" y="565" type="line"/>
      <point x="294" y="609"/>
      <point x="253" y="667"/>
      <point x="206" y="667" type="qcurve"/>
      <point x="159" y="667"/>
      <point x="118" y="609"/>
      <point x="118" y="565" type="qcurve"/>
      <point x="118" y="481" type="line"/>
      <point x="118" y="437"/>
      <point x="159" y="379"/>
    </contour>
    <contour>
      <point x="206" y="342" type="qcurve"/>
      <point x="131" y="342"/>
      <point x="42" y="440"/>
      <point x="42" y="523" type="qcurve"/>
      <point x="42" y="606"/>
      <point x="131" y="704"/>
      <point x="206" y="704" type="qcurve"/>
      <point x="281" y="704"/>
      <point x="370" y="606"/>
      <point x="370" y="523" type="qcurve"/>
      <point x="370" y="440"/>
      <point x="281" y="342"/>
    </contour>
  </outline>
</glyph>
<glyph name="questiondown" format="2">
  <advance width="495"/>
  <unicode hex="00BF"/>
  <outline>
    <contour>
      <point x="255" y="-192" type="qcurve"/>
      <point x="156" y="-192"/>
      <point x="41" y="-93"/>
      <point x="41" y="-8" type="qcurve"/>
      <point x="41" y="38"/>
      <point x="76" y="110"/>
      <point x="137" y="163"/>
      <point x="220" y="194"/>
      <point x="268" y="198" type="qcurve"/>
      <point x="268" y="308" type="line"/>
      <point x="327" y="308" type="line"/>
      <point x="327" y="144" type="line"/>
      <point x="246" y="140"/>
      <point x="148" y="71"/>
      <point x="148" y="4" type="qcurve"/>
      <point x="148" y="-18" type="line"/>
      <point x="148" y="-77"/>
      <point x="215" y="-141"/>
      <point x="271" y="-141" type="qcurve"/>
      <point x="304" y="-141"/>
      <point x="350" y="-129"/>
      <point x="365" y="-121" type="qcurve"/>
      <point x="365" y="-117" type="line"/>
      <point x="351" y="-111"/>
      <point x="328" y="-79"/>
      <point x="328" y="-59" type="qcurve"/>
      <point x="328" y="-32"/>
      <point x="364" y="5"/>
      <point x="393" y="5" type="qcurve"/>
      <point x="422" y="5"/>
      <point x="456" y="-32"/>
      <point x="456" y="-64" type="qcurve"/>
      <point x="456" y="-90"/>
      <point x="425" y="-137"/>
      <point x="370" y="-172"/>
      <point x="297" y="-192"/>
    </contour>
    <contour>
      <point x="297" y="394" type="qcurve"/>
      <point x="265" y="394"/>
      <point x="230" y="432"/>
      <point x="230" y="459" type="qcurve"/>
      <point x="230" y="465" type="line"/>
      <point x="230" y="492"/>
      <point x="265" y="530"/>
      <point x="297" y="530" type="qcurve"/>
      <point x="329" y="530"/>
      <point x="364" y="492"/>
      <point x="364" y="465" type="qcurve"/>
      <point x="364" y="459" type="line"/>
      <point x="364" y="432"/>
      <point x="329" y="394"/>
    </contour>
  </outline>
</glyph>
<glyph name="AE" format="2">
  <advance width="968"/>
  <unicode hex="00C6"/>
  <outline>
    <contour>
      <point x="15" y="50" type="line"/>
      <point x="67" y="50" type="line"/>
      <point x="378" y="648" type="line"/>
      <point x="302" y="648" type="line"/>
      <point x="302" y="698" type="line"/>
      <point x="900" y="698" type="line"/>
      <point x="900" y="527" type="line"/>
      <point x="820" y="527" type="line"/>
      <point x="820" y="644" type="line"/>
      <point x="551" y="644" type="line"/>
      <point x="551" y="388" type="line"/>
      <point x="736" y="388" type="line"/>
      <point x="736" y="464" type="line"/>
      <point x="799" y="464" type="line"/>
      <point x="799" y="258" type="line"/>
      <point x="736" y="258" type="line"/>
      <point x="736" y="334" type="line"/>
      <point x="551" y="334" type="line"/>
      <point x="551" y="54" type="line"/>
      <point x="829" y="54" type="line"/>
      <point x="829" y="182" type="line"/>
      <point x="909" y="182" type="line"/>
      <point x="909" y="0" type="line"/>
      <point x="376" y="0" type="line"/>
      <point x="376" y="50" type="line"/>
      <point x="450" y="50" type="line"/>
      <point x="450" y="224" type="line"/>
      <point x="223" y="224" type="line"/>
      <point x="133" y="50" type="line"/>
      <point x="209" y="50" type="line"/>
      <point x="209" y="0" type="line"/>
      <point x="15" y="0" type="line"/>
    </contour>
    <contour>
      <point x="247" y="276" type="line"/>
      <point x="450" y="276" type="line"/>
      <point x="450" y="648" type="line"/>
      <point x="440" y="648" type="line"/>
    </contour>
  </outline>
</glyph>
<glyph name="Ccedilla" format="2">
  <advance width="651"/>
  <unicode hex="00C7"/>
  <outline>
    <contour>
      <point x="356" y="-206" type="qcurve"/>
      <point x="318" y="-206"/>
      <point x="275" y="-180"/>
      <point x="264" y="-166" type="qcurve"/>
      <point x="286" y="-142" type="line"/>
      <point x="296" y="-153"/>
      <point x="325" y="-166"/>
      <point x="345" y="-166" type="qcurve"/>
      <point x="368" y="-166"/>
      <point x="397" y="-146"/>
      <point x="397" y="-125" type="qcurve"/>
      <point x="397" y="-110"/>
      <point x="374" y="-84"/>
      <point x="336" y="-79" type="qcurve"/>
      <point x="309" y="-76" type="line"/>
      <point x="322" y="-11" type="line"/>
      <point x="259" y="-7"/>
      <point x="159" y="48"/>
      <point x="88" y="142"/>
      <point x="50" y="271"/>
      <point x="50" y="349" type="qcurve"/>
      <point x="50" y="436"/>
      <point x="93" y="571"/>
      <point x="170" y="662"/>
      <point x="276" y="710"/>
      <point x="339" y="710" type="qcurve"/>
      <point x="404" y="710"/>
      <point x="488" y="666"/>
      <point x="502" y="636" type="qcurve"/>
      <point x="506" y="636" type="line"/>
      <point x="506" y="698" type="line"/>
      <point x="586" y="698" type="line"/>
      <point x="586" y="491" type="line"/>
      <point x="506" y="491" type="line"/>
      <point x="506" y="541" type="line"/>
      <point x="506" y="591"/>
      <point x="422" y="653"/>
      <point x="352" y="653" type="qcurve"/>
      <point x="303" y="653"/>
      <point x="231" y="617"/>
      <point x="185" y="555"/>
      <point x="162" y="471"/>
      <point x="162" y="422" type="qcurve"/>
      <point x="162" y="285" type="line"/>
      <point x="162" y="179"/>
      <point x="270" y="57"/>
      <point x="366" y="57" type="qcurve"/>
      <point x="436" y="57"/>
      <point x="531" y="130"/>
      <point x="553" y="187" type="qcurve"/>
      <point x="595" y="165" type="line"/>
      <point x="586" y="136"/>
      <point x="547" y="75"/>
      <point x="490" y="25"/>
      <point x="412" y="-8"/>
      <point x="364" y="-11" type="qcurve"/>
      <point x="354" y="-60" type="line"/>
      <point x="357" y="-63" type="line"/>
      <point x="377" y="-58"/>
      <point x="394" y="-58" type="qcurve"/>
      <point x="426" y="-58"/>
      <point x="469" y="-91"/>
      <point x="469" y="-123" type="qcurve"/>
      <point x="469" y="-145"/>
      <point x="451" y="-176"/>
      <point x="419" y="-196"/>
      <point x="378" y="-206"/>
    </contour>
  </outline>
</glyph>
<glyph name="multiply" format="2">
  <advance width="600"/>
  <unicode hex="00D7"/>
  <outline>
    <contour>
      <point x="94" y="139" type="line"/>
      <point x="259" y="304" type="line"/>
      <point x="94" y="469" type="line"/>
      <point x="135" y="510" type="line"/>
      <point x="300" y="345" type="line"/>
      <point x="465" y="510" type="line"/>
      <point x="506" y="469" type="line"/>
      <point x="341" y="304" type="line"/>
      <point x="506" y="139" type="line"/>
      <point x="465" y="98" type="line"/>
      <point x="300" y="263" type="line"/>
      <point x="135" y="98" type="line"/>
    </contour>
  </outline>
</glyph>
<glyph name="Oslash" format="2">
  <advance width="724"/>
  <unicode hex="00D8"/>
  <outline>
    <contour>
      <point x="89" y="-14" type="line"/>
      <point x="147" y="73" type="line"/>
      <point x="101" y="120"/>
      <point x="50" y="258"/>
      <point x="50" y="349" type="qcurve"/>
      <point x="50" y="433"/>
      <point x="95" y="567"/>
      <point x="177" y="660"/>
      <point x="292" y="710"/>
      <point x="362" y="710" type="qcurve"/>
      <point x="413" y="710"/>
      <point x="500" y="684"/>
      <point x="537" y="659" type="qcurve"/>
      <point x="592" y="742" type="line"/>
      <point x="635" y="712" type="line"/>
      <point x="577" y="625" type="line"/>
      <point x="623" y="578"/>
      <point x="674" y="440"/>
      <point x="674" y="349" type="qcurve"/>
      <point x="674" y="265"/>
      <point x="629" y="131"/>
      <point x="547" y="38"/>
      <point x="432" y="-12"/>
      <point x="362" y="-12" type="qcurve"/>
      <point x="311" y="-12"/>
      <point x="224" y="14"/>
      <point x="187" y="39" type="qcurve"/>
      <point x="132" y="-44" type="line"/>
    </contour>
    <contour>
      <point x="498" y="601" type="line"/>
      <point x="472" y="626"/>
      <point x="404" y="653"/>
      <point x="362" y="653" type="qcurve"/>
      <point x="314" y="653"/>
      <point x="239" y="619"/>
      <point x="187" y="557"/>
      <point x="160" y="470"/>
      <point x="160" y="417" type="qcurve"/>
      <point x="160" y="281" type="line"/>
      <point x="160" y="199"/>
      <point x="192" y="141" type="qcurve"/>
    </contour>
    <contour>
      <point x="362" y="45" type="qcurve"/>
      <point x="410" y="45"/>
      <point x="485" y="79"/>
      <point x="537" y="141"/>
      <point x="564" y="228"/>
      <point x="564" y="281" type="qcurve"/>
      <point x="564" y="417" type="line"/>
      <point x="564" y="499"/>
      <point x="532" y="557" type="qcurve"/>
      <point x="226" y="97" type="line"/>
      <point x="252" y="72"/>
      <point x="320" y="45"/>
    </contour>
  </outline>
</glyph>
<glyph name="Thorn" format="2">
  <advance width="636"/>
  <unicode hex="00DE"/>
  <outline>
    <contour>
      <point x="52" y="50" type="line"/>
      <point x="126" y="50" type="line"/>
      <point x="126" y="648" type="line"/>
      <point x="52" y="648" type="line"/>
      <point x="52" y="698" type="line"/>
      <point x="301" y="698" type="line"/>
      <point x="301" y="648" type="line"/>
      <point x="227" y="648" type="line"/>
      <point x="227" y="543" type="line"/>
      <point x="389" y="543" type="line"/>
      <point x="487" y="543"/>
      <point x="590" y="448"/>
      <point x="590" y="355" type="qcurve"/>
      <point x="590" y="263"/>
      <point x="483" y="162"/>
      <point x="386" y="162" type="qcurve"/>
      <point x="227" y="162" type="line"/>
      <point x="227" y="50" type="line"/>
      <point x="301" y="50" type="line"/>
      <point x="301" y="0" type="line"/>
      <point x="52" y="0" type="line"/>
    </contour>
    <contour>
      <point x="227" y="216" type="line"/>
      <point x="373" y="216" type="line"/>
      <point x="427" y="216"/>
      <point x="484" y="280"/>
      <point x="484" y="329" type="qcurve"/>
      <point x="484" y="376" type="line"/>
      <point x="484" y="425"/>
      <point x="427" y="489"/>
      <point x="373" y="489" type="qcurve"/>
      <point x="227" y="489" type="line"/>
    </contour>
  </outline>
</glyph>
<glyph name="germandbls" format="2">
  <advance width="659"/>
  <unicode hex="00DF"/>
  <outline>
    <contour>
      <point x="444" y="-12" type="qcurve"/>
      <point x="362" y="-12"/>
      <point x="277" y="47"/>
      <point x="277" y="89" type="qcurve"/>
      <point x="277" y="115"/>
      <point x="306" y="148"/>
      <point x="330" y="148" type="qcurve"/>
      <point x="353" y="148"/>
      <point x="379" y="119"/>
      <point x="379" y="97" type="qcurve"/>
      <point x="379" y="80"/>
      <point x="364" y="55"/>
      <point x="353" y="50" type="qcurve"/>
      <point x="353" y="47" type="line"/>
      <point x="370" y="41"/>
      <point x="406" y="35"/>
      <point x="431" y="35" type="qcurve"/>
      <point x="486" y="35"/>
      <point x="544" y="81"/>
      <point x="544" y="124" type="qcurve"/>
      <point x="544" y="164"/>
      <point x="503" y="203"/>
      <point x="455" y="217" type="qcurve"/>
      <point x="429" y="225" type="line"/>
      <point x="361" y="245"/>
      <point x="299" y="312"/>
      <point x="299" y="373" type="qcurve"/>
      <point x="299" y="439"/>
      <point x="392" y="516"/>
      <point x="469" y="520" type="qcurve"/>
      <point x="469" y="554" type="line"/>
      <point x="469" y="630"/>
      <point x="403" y="707"/>
      <point x="341" y="707" type="qcurve"/>
      <point x="274" y="707"/>
      <point x="211" y="631"/>
      <point x="211" y="556" type="qcurve"/>
      <point x="211" y="0" type="line"/>
      <point x="44" y="0" type="line"/>
      <point x="44" y="50" type="line"/>
      <point x="115" y="50" type="line"/>
      <point x="115" y="465" type="line"/>
      <point x="44" y="465" type="line"/>
      <point x="44" y="518" type="line"/>
      <point x="115" y="518" type="line"/>
      <point x="115" y="542" type="line"/>
      <point x="115" y="591"/>
      <point x="146" y="672"/>
      <point x="204" y="729"/>
      <point x="288" y="760"/>
      <point x="341" y="760" type="qcurve"/>
      <point x="394" y="760"/>
      <point x="476" y="726"/>
      <point x="532" y="666"/>
      <point x="561" y="585"/>
      <point x="561" y="539" type="qcurve"/>
      <point x="561" y="476" type="line"/>
      <point x="521" y="476" type="line"/>
      <point x="451" y="476"/>
      <point x="386" y="431"/>
      <point x="386" y="393" type="qcurve"/>
      <point x="386" y="358"/>
      <point x="420" y="321"/>
      <point x="466" y="307" type="qcurve"/>
      <point x="492" y="299" type="line"/>
      <point x="561" y="280"/>
      <point x="632" y="210"/>
      <point x="632" y="149" type="qcurve"/>
      <point x="632" y="115"/>
      <point x="607" y="56"/>
      <point x="559" y="13"/>
      <point x="489" y="-12"/>
    </contour>
  </outline>
</glyph>
<glyph name="ae" format="2">
  <advance width="825"/>
  <unicode hex="00E6"/>
  <outline>
    <contour>
      <point x="200" y="-12" type="qcurve"/>
      <point x="124" y="-12"/>
      <point x="43" y="68"/>
      <point x="43" y="134" type="qcurve"/>
      <point x="43" y="214"/>
      <point x="149" y="291"/>
      <point x="274" y="291" type="qcurve"/>
      <point x="347" y="291" type="line"/>
      <point x="347" y="355" type="line"/>
      <point x="347" y="416"/>
      <point x="290" y="480"/>
      <point x="232" y="480" type="qcurve"/>
      <point x="207" y="480"/>
      <point x="166" y="472"/>
      <point x="152" y="464" type="qcurve"/>
      <point x="152" y="462" type="line"/>
      <point x="163" y="456"/>
      <point x="183" y="432"/>
      <point x="183" y="410" type="qcurve"/>
      <point x="183" y="383"/>
      <point x="152" y="352"/>
      <point x="125" y="352" type="qcurve"/>
      <point x="99" y="352"/>
      <point x="67" y="384"/>
      <point x="67" y="413" type="qcurve"/>
      <point x="67" y="435"/>
      <point x="93" y="477"/>
      <point x="143" y="510"/>
      <point x="215" y="530"/>
      <point x="262" y="530" type="qcurve"/>
      <point x="293" y="530"/>
      <point x="343" y="513"/>
      <point x="379" y="485"/>
      <point x="401" y="448"/>
      <point x="405" y="428" type="qcurve"/>
      <point x="411" y="428" type="line"/>
      <point x="425" y="472"/>
      <point x="510" y="530"/>
      <point x="570" y="530" type="qcurve"/>
      <point x="622" y="530"/>
      <point x="701" y="492"/>
      <point x="755" y="425"/>
      <point x="783" y="334"/>
      <point x="783" y="280" type="qcurve"/>
      <point x="783" y="250" type="line"/>
      <point x="443" y="250" type="line"/>
      <point x="443" y="232" type="line"/>
      <point x="443" y="151"/>
      <point x="525" y="58"/>
      <point x="594" y="58" type="qcurve"/>
      <point x="624" y="58"/>
      <point x="668" y="69"/>
      <point x="701" y="91"/>
      <point x="724" y="122"/>
      <point x="734" y="142" type="qcurve"/>
      <point x="771" y="118" type="line"/>
      <point x="762" y="92"/>
      <point x="731" y="45"/>
      <point x="684" y="9"/>
      <point x="620" y="-12"/>
      <point x="578" y="-12" type="qcurve"/>
      <point x="542" y="-12"/>
      <point x="481" y="6"/>
      <point x="434" y="38"/>
      <point x="401" y="78"/>
      <point x="393" y="101" type="qcurve"/>
      <point x="387" y="101" type="line"/>
      <point x="369" y="44"/>
      <point x="273" y="-12"/>
    </contour>
    <contour>
      <point x="238" y="50" type="qcurve"/>
      <point x="284" y="50"/>
      <point x="347" y="96"/>
      <point x="347" y="145" type="qcurve"/>
      <point x="347" y="248" type="line"/>
      <point x="284" y="248" type="line"/>
      <point x="206" y="248"/>
      <point x="146" y="198"/>
      <point x="146" y="153" type="qcurve"/>
      <point x="146" y="125" type="line"/>
      <point x="146" y="87"/>
      <point x="195" y="50"/>
    </contour>
    <contour>
      <point x="443" y="299" type="line"/>
      <point x="684" y="299" type="line"/>
      <point x="684" y="315" type="line"/>
      <point x="684" y="350"/>
      <point x="671" y="410"/>
      <point x="644" y="453"/>
      <point x="600" y="478"/>
      <point x="569" y="478" type="qcurve"/>
      <point x="506" y="478"/>
      <point x="443" y="391"/>
      <point x="443" y="321" type="qcurve"/>
    </contour>
  </outline>
</glyph>
<glyph name="ccedilla" format="2">
  <advance width="520"/>
  <unicode hex="00E7"/>
  <outline>
    <contour>
      <point x="292" y="-206" type="qcurve"/>
      <point x="254" y="-206"/>
      <point x="211" y="-180"/>
      <point x="200" y="-166" type="qcurve"/>
      <point x="222" y="-142" type="line"/>
      <point x="232" y="-153"/>
      <point x="261" y="-166"/>
      <point x="281" y="-166" type="qcurve"/>
      <point x="304" y="-166"/>
      <point x="333" y="-146"/>
      <point x="333" y="-125" type="qcurve"/>
      <point x="333" y="-110"/>
      <point x="310" y="-84"/>
      <point x="272" y="-79" type="qcurve"/>
      <point x="245" y="-76" type="line"/>
      <point x="258" y="-11" type="line"/>
      <point x="207" y="-7"/>
      <point x="127" y="36"/>
      <point x="72" y="107"/>
      <point x="44" y="202"/>
      <point x="44" y="259" type="qcurve"/>
      <point x="44" y="322"/>
      <point x="81" y="422"/>
      <point x="147" y="492"/>
      <point x="238" y="530"/>
      <point x="292" y="530" type="qcurve"/>
      <point x="333" y="530"/>
      <point x="399" y="511"/>
      <point x="445" y="478"/>
      <point x="470" y="432"/>
      <point x="470" y="405" type="qcurve"/>
      <point x="470" y="373"/>
      <point x="435" y="334"/>
      <point x="405" y="334" type="qcurve"/>
      <point x="373" y="334"/>
      <point x="341" y="371"/>
      <point x="341" y="397" type="qcurve"/>
      <point x="341" y="420"/>
      <point x="364" y="451"/>
      <point x="383" y="460" type="qcurve"/>
      <point x="383" y="464" type="line"/>
      <point x="371" y="470"/>
      <point x="332" y="478"/>
      <point x="302" y="478" type="qcurve"/>
      <point x="268" y="478"/>
      <point x="211" y="453"/>
      <point x="171" y="409"/>
      <point x="148" y="347"/>
      <point x="148" y="311" type="qcurve"/>
      <point x="148" y="231" type="line"/>
      <point x="148" y="152"/>
      <point x="228" y="58"/>
      <point x="297" y="58" type="qcurve"/>
      <point x="357" y="58"/>
      <point x="426" y="110"/>
      <point x="446" y="149" type="qcurve"/>
      <point x="482" y="126" type="line"/>
      <point x="473" y="102"/>
      <point x="443" y="54"/>
      <point x="398" y="16"/>
      <point x="338" y="-9"/>
      <point x="300" y="-11" type="qcurve"/>
      <point x="290" y="-60" type="line"/>
      <point x="293" y="-63" type="line"/>
      <point x="313" y="-58"/>
      <point x="330" y="-58" type="qcurve"/>
      <point x="362" y="-58"/>
      <point x="405" y="-91"/>
      <point x="405" y="-123" type="qcurve"/>
      <point x="405" y="-145"/>
      <point x="387" y="-176"/>
      <point x="355" y="-196"/>
      <point x="314" y="-206"/>
    </contour>
  </outline>
</glyph>
<glyph name="divide" format="2">
  <advance width="600"/>
  <unicode hex="00F7"/>
  <outline>
    <contour>
      <point x="300" y="57" type="qcurve"/>
      <point x="270" y="57"/>
      <point x="237" y="93"/>
      <point x="237" y="118" type="qcurve"/>
      <point x="237" y="124" type="line"/>
      <point x="237" y="149"/>
      <point x="270" y="185"/>
      <point x="300" y="185" type="qcurve"/>
      <point x="330" y="185"/>
      <point x="363" y="149"/>
      <point x="363" y="124" type="qcurve"/>
      <point x="363" y="118" type="line"/>
      <point x="363" y="93"/>
      <point x="330" y="57"/>
    </contour>
    <contour>
      <point x="300" y="425" type="qcurve"/>
      <point x="270" y="425"/>
      <point x="237" y="461"/>
      <point x="237" y="486" type="qcurve"/>
      <point x="237" y="492" type="line"/>
      <point x="237" y="517"/>
      <point x="270" y="553"/>
      <point x="300" y="553" type="qcurve"/>
      <point x="330" y="553"/>
      <point x="363" y="517"/>
      <point x="363" y="492" type="qcurve"/>
      <point x="363" y="486" type="line"/>
      <point x="363" y="461"/>
      <point x="330" y="425"/>
    </contour>
    <contour>
      <point x="66" y="334" type="line"/>
      <point x="534" y="334" type="line"/>
      <point x="534" y="276" type="line"/>
      <point x="66" y="276" type="line"/>
    </contour>
  </outline>
</glyph>
<glyph name="thorn" format="2">
  <advance width="604"/>
  <unicode hex="00FE"/>
  <outline>
    <contour>
      <point x="24" y="-150" type="line"/>
      <point x="95" y="-150" type="line"/>
      <point x="95" y="676" type="line"/>
      <point x="24" y="689" type="line"/>
      <point x="24" y="727" type="line"/>
      <point x="191" y="760" type="line"/>
      <point x="191" y="439" type="line"/>
      <point x="195" y="439" type="line"/>
      <point x="211" y="476"/>
      <point x="284" y="530"/>
      <point x="344" y="530" type="qcurve"/>
      <point x="392" y="530"/>
      <point x="470" y="494"/>
      <point x="525" y="425"/>
      <point x="555" y="324"/>
      <point x="555" y="259" type="qcurve"/>
      <point x="555" y="194"/>
      <point x="525" y="93"/>
      <point x="470" y="24"/>
      <point x="392" y="-12"/>
      <point x="344" y="-12" type="qcurve"/>
      <point x="284" y="-12"/>
      <point x="211" y="42"/>
      <point x="195" y="79" type="qcurve"/>
      <point x="191" y="79" type="line"/>
      <point x="191" y="-150" type="line"/>
      <point x="282" y="-150" type="line"/>
      <point x="282" y="-200" type="line"/>
      <point x="24" y="-200" type="line"/>
    </contour>
    <contour>
      <point x="315" y="52" type="qcurve"/>
      <point x="379" y="52"/>
      <point x="452" y="138"/>
      <point x="452" y="212" type="qcurve"/>
      <point x="452" y="306" type="line"/>
      <point x="452" y="380"/>
      <point x="379" y="466"/>
      <point x="315" y="466" type="qcurve"/>
      <point x="292" y="466"/>
      <point x="247" y="452"/>
      <point x="212" y="426"/>
      <point x="191" y="389"/>
      <point x="191" y="365" type="qcurve"/>
      <point x="191" y="153" type="line"/>
      <point x="191" y="129"/>
      <point x="212" y="92"/>
      <point x="247" y="66"/>
      <point x="292" y="52"/>
    </contour>
  </outline>
</glyph>
<glyph name="Aogonek" format="2">
  <advance width="689"/>
  <unicode hex="0104"/>
  <outline>
    <contour>
      <point x="598" y="-206" type="qcurve"/>
      <point x="559" y="-206"/>
      <point x="505" y="-170"/>
      <point x="505" y="-130" type="qcurve"/>
      <point x="505" y="-92"/>
      <point x="573" y="-33"/>
      <point x="626" y="-4" type="qcurve"/>
      <point x="625" y="0" type="line"/>
      <point x="427" y="0" type="line"/>
      <point x="427" y="50" type="line"/>
      <point x="515" y="50" type="line"/>
      <point x="455" y="224" type="line"/>
      <point x="191" y="224" type="line"/>
      <point x="131" y="50" type="line"/>
      <point x="219" y="50" type="line"/>
      <point x="219" y="0" type="line"/>
      <point x="16" y="0" type="line"/>
      <point x="16" y="50" type="line"/>
      <point x="68" y="50" type="line"/>
      <point x="293" y="698" type="line"/>
      <point x="396" y="698" type="line"/>
      <point x="621" y="50" type="line"/>
      <point x="673" y="50" type="line"/>
      <point x="673" y="0" type="line"/>
      <point x="642" y="-26"/>
      <point x="605" y="-63"/>
      <point x="585" y="-90"/>
      <point x="579" y="-110"/>
      <point x="579" y="-119" type="qcurve"/>
      <point x="579" y="-139"/>
      <point x="601" y="-165"/>
      <point x="621" y="-165" type="qcurve"/>
      <point x="635" y="-165"/>
      <point x="657" y="-152"/>
      <point x="664" y="-143" type="qcurve"/>
      <point x="688" y="-166" type="line"/>
      <point x="677" y="-183"/>
      <point x="633" y="-206"/>
    </contour>
    <contour>
      <point x="207" y="276" type="line"/>
      <point x="441" y="276" type="line"/>
      <point x="326" y="617" type="line"/>
      <point x="322" y="617" type="line"/>
    </contour>
  </outline>
</glyph>
<glyph name="aogonek" format="2">
  <advance width="549"/>
  <unicode hex="0105"/>
  <outline>
    <contour>
      <point x="437" y="-206" type="qcurve"/>
      <point x="396" y="-206"/>
      <point x="340" y="-170"/>
      <point x="340" y="-130" type="qcurve"/>
      <point x="340" y="-95"/>
      <point x="390" y="-43"/>
      <point x="444" y="-14" type="qcurve"/>
      <point x="444" y="-10" type="line"/>
      <point x="438" y="-10" type="line"/>
      <point x="395" y="-10"/>
      <point x="352" y="34"/>
      <point x="352" y="71" type="qcurve"/>
      <point x="352" y="77" type="line"/>
      <point x="348" y="77" type="line"/>
      <point x="341" y="60"/>
      <point x="318" y="28"/>
      <point x="283" y="3"/>
      <point x="233" y="-12"/>
      <point x="199" y="-12" type="qcurve"/>
      <point x="124" y="-12"/>
      <point x="43" y="64"/>
      <point x="43" y="130" type="qcurve"/>
      <point x="43" y="204"/>
      <point x="149" y="282"/>
      <point x="274" y="282" type="qcurve"/>
      <point x="347" y="282" type="line"/>
      <point x="347" y="355" type="line"/>
      <point x="347" y="416"/>
      <point x="290" y="480"/>
      <point x="232" y="480" type="qcurve"/>
      <point x="207" y="480"/>
      <point x="166" y="472"/>
      <point x="152" y="464" type="qcurve"/>
      <point x="152" y="462" type="line"/>
      <point x="163" y="456"/>
      <point x="183" y="432"/>
      <point x="183" y="410" type="qcurve"/>
      <point x="183" y="383"/>
      <point x="152" y="352"/>
      <point x="125" y="352" type="qcurve"/>
      <point x="99" y="352"/>
      <point x="67" y="384"/>
      <point x="67" y="413" type="qcurve"/>
      <point x="67" y="435"/>
      <point x="93" y="477"/>
      <point x="143" y="510"/>
      <point x="216" y="530"/>
      <point x="263" y="530" type="qcurve"/>
      <point x="351" y="530"/>
      <point x="443" y="444"/>
      <point x="443" y="366" type="qcurve"/>
      <point x="443" y="47" type="line"/>
      <point x="515" y="47" type="line"/>
      <point x="515" y="8" type="line"/>
      <point x="498" y="-2" type="line"/>
      <point x="449" y="-31"/>
      <point x="414" y="-96"/>
      <point x="414" y="-119" type="qcurve"/>
      <point x="414" y="-139"/>
      <point x="439" y="-165"/>
      <point x="460" y="-165" type="qcurve"/>
      <point x="474" y="-165"/>
      <point x="496" y="-152"/>
      <point x="503" y="-143" type="qcurve"/>
      <point x="527" y="-166" type="line"/>
      <point x="516" y="-183"/>
      <point x="472" y="-206"/>
    </contour>
    <contour>
      <point x="238" y="50" type="qcurve"/>
      <point x="284" y="50"/>
      <point x="347" y="96"/>
      <point x="347" y="145" type="qcurve"/>
      <point x="347" y="239" type="line"/>
      <point x="284" y="239" type="line"/>
      <point x="206" y="239"/>
      <point x="146" y="190"/>
      <point x="146" y="145" type="qcurve"/>
      <point x="146" y="125" type="line"/>
      <point x="146" y="87"/>
      <point x="195" y="50"/>
    </contour>
  </outline>
</glyph>
<glyph name="Dcroat" format="2">
  <advance width="715"/>
  <unicode hex="0110"/>
  <outline>
    <contour>
      <point x="52" y="50" type="line"/>
      <point x="126" y="50" type="line"/>
      <point x="126" y="323" type="line"/>
      <point x="38" y="323" type="line"/>
      <point x="38" y="375" type="line"/>
      <point x="126" y="375" type="line"/>
      <point x="126" y="648" type="line"/>
      <point x="52" y="648" type="line"/>
      <point x="52" y="698" type="line"/>
      <point x="351" y="698" type="line"/>
      <point x="421" y="698"/>
      <point x="536" y="654"/>
      <point x="619" y="567"/>
      <point x="665" y="436"/>
      <point x="665" y="349" type="qcurve"/>
      <point x="665" y="262"/>
      <point x="619" y="131"/>
      <point x="536" y="44"/>
      <point x="421" y="0"/>
      <point x="351" y="0" type="qcurve"/>
      <point x="52" y="0" type="line"/>
    </contour>
    <contour>
      <point x="227" y="54" type="line"/>
      <point x="338" y="54" type="line"/>
      <point x="441" y="54"/>
      <point x="553" y="176"/>
      <point x="553" y="283" type="qcurve"/>
      <point x="553" y="415" type="line"/>
      <point x="553" y="522"/>
      <point x="441" y="644"/>
      <point x="338" y="644" type="qcurve"/>
      <point x="227" y="644" type="line"/>
      <point x="227" y="375" type="line"/>
      <point x="359" y="375" type="line"/>
      <point x="359" y="323" type="line"/>
      <point x="227" y="323" type="line"/>
    </contour>
  </outline>
</glyph>
<glyph name="dcroat" format="2">
  <advance width="613"/>
  <unicode hex="0111"/>
  <outline>
    <contour>
      <point x="259" y="-12" type="qcurve"/>
      <point x="211" y="-12"/>
      <point x="133" y="24"/>
      <point x="78" y="93"/>
      <point x="48" y="194"/>
      <point x="48" y="259" type="qcurve"/>
      <point x="48" y="324"/>
      <point x="78" y="425"/>
      <point x="133" y="494"/>
      <point x="211" y="530"/>
      <point x="259" y="530" type="qcurve"/>
      <point x="319" y="530"/>
      <point x="392" y="476"/>
      <point x="408" y="439" type="qcurve"/>
      <point x="412" y="439" type="line"/>
      <point x="412" y="615" type="line"/>
      <point x="227" y="615" type="line"/>
      <point x="227" y="665" type="line"/>
      <point x="412" y="665" type="line"/>
      <point x="412" y="741" type="line"/>
      <point x="508" y="760" type="line"/>
      <point x="508" y="665" type="line"/>
      <point x="593" y="665" type="line"/>
      <point x="593" y="615" type="line"/>
      <point x="508" y="615" type="line"/>
      <point x="508" y="72" type="line"/>
      <point x="579" y="59" type="line"/>
      <point x="579" y="21" type="line"/>
      <point x="412" y="-12" type="line"/>
      <point x="412" y="79" type="line"/>
      <point x="408" y="79" type="line"/>
      <point x="392" y="42"/>
      <point x="319" y="-12"/>
    </contour>
    <contour>
      <point x="288" y="52" type="qcurve"/>
      <point x="311" y="52"/>
      <point x="356" y="66"/>
      <point x="391" y="92"/>
      <point x="412" y="129"/>
      <point x="412" y="153" type="qcurve"/>
      <point x="412" y="365" type="line"/>
      <point x="412" y="389"/>
      <point x="391" y="426"/>
      <point x="356" y="452"/>
      <point x="311" y="466"/>
      <point x="288" y="466" type="qcurve"/>
      <point x="224" y="466"/>
      <point x="151" y="380"/>
      <point x="151" y="306" type="qcurve"/>
      <point x="151" y="212" type="line"/>
      <point x="151" y="138"/>
      <point x="224" y="52"/>
    </contour>
  </outline>
</glyph>
<glyph name="Eogonek" format="2">
  <advance width="644"/>
  <unicode hex="0118"/>
  <outline>
    <contour>
      <point x="526" y="-206" type="qcurve"/>
      <point x="485" y="-206"/>
      <point x="429" y="-170"/>
      <point x="429" y="-130" type="qcurve"/>
      <point x="429" y="-92"/>
      <point x="486" y="-37"/>
      <point x="540" y="-4" type="qcurve"/>
      <point x="539" y="0" type="line"/>
      <point x="52" y="0" type="line"/>
      <point x="52" y="50" type="line"/>
      <point x="126" y="50" type="line"/>
      <point x="126" y="648" type="line"/>
      <point x="52" y="648" type="line"/>
      <point x="52" y="698" type="line"/>
      <point x="576" y="698" type="line"/>
      <point x="576" y="527" type="line"/>
      <point x="496" y="527" type="line"/>
      <point x="496" y="644" type="line"/>
      <point x="227" y="644" type="line"/>
      <point x="227" y="388" type="line"/>
      <point x="412" y="388" type="line"/>
      <point x="412" y="464" type="line"/>
      <point x="475" y="464" type="line"/>
      <point x="475" y="258" type="line"/>
      <point x="412" y="258" type="line"/>
      <point x="412" y="334" type="line"/>
      <point x="227" y="334" type="line"/>
      <point x="227" y="54" type="line"/>
      <point x="505" y="54" type="line"/>
      <point x="505" y="182" type="line"/>
      <point x="585" y="182" type="line"/>
      <point x="585" y="0" type="line"/>
      <point x="556" y="-23"/>
      <point x="524" y="-59"/>
      <point x="507" y="-87"/>
      <point x="503" y="-110"/>
      <point x="503" y="-119" type="qcurve"/>
      <point x="503" y="-139"/>
      <point x="528" y="-165"/>
      <point x="549" y="-165" type="qcurve"/>
      <point x="563" y="-165"/>
      <point x="585" y="-152"/>
      <point x="592" y="-143" type="qcurve"/>
      <point x="616" y="-166" type="line"/>
      <point x="605" y="-183"/>
      <point x="561" y="-206"/>
    </contour>
  </outline>
</glyph>
<glyph name="eogonek" format="2">
  <advance width="540"/>
  <unicode hex="0119"/>
  <outline>
    <contour>
      <point x="341" y="-206" type="qcurve"/>
      <point x="300" y="-206"/>
      <point x="244" y="-170"/>
      <point x="244" y="-130" type="qcurve"/>
      <point x="244" y="-92"/>
      <point x="301" y="-33"/>
      <point x="348" y="-4" type="qcurve"/>
      <point x="347" y="0" type="line"/>
      <point x="336" y="-6"/>
      <point x="305" y="-12"/>
      <point x="282" y="-12" type="qcurve"/>
      <point x="226" y="-12"/>
      <point x="137" y="27"/>
      <point x="76" y="98"/>
      <point x="44" y="198"/>
      <point x="44" y="259" type="qcurve"/>
      <point x="44" y="320"/>
      <point x="79" y="420"/>
      <point x="141" y="491"/>
      <point x="226" y="530"/>
      <point x="277" y="530" type="qcurve"/>
      <point x="329" y="530"/>
      <point x="411" y="494"/>
      <point x="468" y="429"/>
      <point x="498" y="340"/>
      <point x="498" y="286" type="qcurve"/>
      <point x="498" y="261" type="line"/>
      <point x="148" y="261" type="line"/>
      <point x="148" y="232" type="line"/>
      <point x="148" y="151"/>
      <point x="230" y="58"/>
      <point x="299" y="58" type="qcurve"/>
      <point x="359" y="58"/>
      <point x="431" y="109"/>
      <point x="451" y="149" type="qcurve"/>
      <point x="488" y="125" type="line"/>
      <point x="479" y="101"/>
      <point x="446" y="55"/>
      <point x="425" y="36" type="qcurve"/>
      <point x="391" y="6"/>
      <point x="349" y="-41"/>
      <point x="326" y="-78"/>
      <point x="318" y="-107"/>
      <point x="318" y="-119" type="qcurve"/>
      <point x="318" y="-139"/>
      <point x="343" y="-165"/>
      <point x="364" y="-165" type="qcurve"/>
      <point x="378" y="-165"/>
      <point x="400" y="-152"/>
      <point x="407" y="-143" type="qcurve"/>
      <point x="431" y="-166" type="line"/>
      <point x="420" y="-183"/>
      <point x="376" y="-206"/>
    </contour>
    <contour>
      <point x="148" y="310" type="line"/>
      <point x="399" y="310" type="line"/>
      <point x="399" y="321" type="line"/>
      <point x="399" y="391"/>
      <point x="340" y="478"/>
      <point x="277" y="478" type="qcurve"/>
      <point x="214" y="478"/>
      <point x="148" y="393"/>
      <point x="148" y="322" type="qcurve"/>
    </contour>
  </outline>
</glyph>
<glyph name="Hbar" format="2">
  <advance width="791"/>
  <unicode hex="0126"/>
  <outline>
    <contour>
      <point x="52" y="50" type="line"/>
      <point x="126" y="50" type="line"/>
      <point x="126" y="496" type="line"/>
      <point x="38" y="496" type="line"/>
      <point x="38" y="548" type="line"/>
      <point x="126" y="548" type="line"/>
      <point x="126" y="648" type="line"/>
      <point x="52" y="648" type="line"/>
      <point x="52" y="698" type="line"/>
      <point x="301" y="698" type="line"/>
      <point x="301" y="648" type="line"/>
      <point x="227" y="648" type="line"/>
      <point x="227" y="548" type="line"/>
      <point x="564" y="548" type="line"/>
      <point x="564" y="648" type="line"/>
      <point x="490" y="648" type="line"/>
      <point x="490" y="698" type="line"/>
      <point x="739" y="698" type="line"/>
      <point x="739" y="648" type="line"/>
      <point x="665" y="648" type="line"/>
      <point x="665" y="548" type="line"/>
      <point x="753" y="548" type="line"/>
      <point x="753" y="496" type="line"/>
      <point x="665" y="496" type="line"/>
      <point x="665" y="50" type="line"/>
      <point x="739" y="50" type="line"/>
      <point x="739" y="0" type="line"/>
      <point x="490" y="0" type="line"/>
      <point x="490" y="50" type="line"/>
      <point x="564" y="50" type="line"/>
      <point x="564" y="330" type="line"/>
      <point x="227" y="330" type="line"/>
      <point x="227" y="50" type="line"/>
      <point x="301" y="50" type="line"/>
      <point x="301" y="0" type="line"/>
      <point x="52" y="0" type="line"/>
    </contour>
    <contour>
      <point x="227" y="384" type="line"/>
      <point x="564" y="384" type="line"/>
      <point x="564" y="496" type="line"/>
      <point x="227" y="496" type="line"/>
    </contour>
  </outline>
</glyph>
<glyph name="hbar" format="2">
  <advance width="630"/>
  <unicode hex="0127"/>
  <outline>
    <contour>
      <point x="34" y="50" type="line"/>
      <point x="105" y="50" type="line"/>
      <point x="105" y="615" type="line"/>
      <point x="20" y="615" type="line"/>
      <point x="20" y="665" type="line"/>
      <point x="105" y="665" type="line"/>
      <point x="105" y="741" type="line"/>
      <point x="201" y="760" type="line"/>
      <point x="201" y="665" type="line"/>
      <point x="386" y="665" type="line"/>
      <point x="386" y="615" type="line"/>
      <point x="201" y="615" type="line"/>
      <point x="201" y="438" type="line"/>
      <point x="205" y="438" type="line"/>
      <point x="211" y="454"/>
      <point x="235" y="487"/>
      <point x="272" y="513"/>
      <point x="321" y="530"/>
      <point x="351" y="530" type="qcurve"/>
      <point x="445" y="530"/>
      <point x="525" y="433"/>
      <point x="525" y="336" type="qcurve"/>
      <point x="525" y="50" type="line"/>
      <point x="596" y="50" type="line"/>
      <point x="596" y="0" type="line"/>
      <point x="359" y="0" type="line"/>
      <point x="359" y="50" type="line"/>
      <point x="429" y="50" type="line"/>
      <point x="429" y="329" type="line"/>
      <point x="429" y="398"/>
      <point x="374" y="464"/>
      <point x="316" y="464" type="qcurve"/>
      <point x="295" y="464"/>
      <point x="254" y="452"/>
      <point x="221" y="428"/>
      <point x="201" y="392"/>
      <point x="201" y="367" type="qcurve"/>
      <point x="201" y="50" type="line"/>
      <point x="272" y="50" type="line"/>
      <point x="272" y="0" type="line"/>
      <point x="34" y="0" type="line"/>
    </contour>
  </outline>
</glyph>
<glyph name="Iogonek" format="2">
  <advance width="362"/>
  <unicode hex="012E"/>
  <outline>
    <contour>
      <point x="240" y="-206" type="qcurve"/>
      <point x="199" y="-206"/>
      <point x="143" y="-170"/>
      <point x="143" y="-130" type="qcurve"/>
      <point x="143" y="-93"/>
      <point x="204" y="-36"/>
      <point x="255" y="-4" type="qcurve"/>
      <point x="254" y="0" type="line"/>
      <point x="52" y="0" type="line"/>
      <point x="52" y="50" type="line"/>
      <point x="126" y="50" type="line"/>
      <point x="126" y="648" type="line"/>
      <point x="52" y="648" type="line"/>
      <point x="52" y="698" type="line"/>
      <point x="301" y="698" type="line"/>
      <point x="301" y="648" type="line"/>
      <point x="227" y="648" type="line"/>
      <point x="227" y="50" type="line"/>
      <point x="301" y="50" type="line"/>
      <point x="301" y="0" type="line"/>
      <point x="273" y="-22"/>
      <point x="240" y="-58"/>
      <point x="222" y="-87"/>
      <point x="217" y="-110"/>
      <point x="217" y="-119" type="qcurve"/>
      <point x="217" y="-139"/>
      <point x="242" y="-165"/>
      <point x="263" y="-165" type="qcurve"/>
      <point x="277" y="-165"/>
      <point x="299" y="-152"/>
      <point x="306" y="-143" type="qcurve"/>
      <point x="330" y="-166" type="line"/>
      <point x="319" y="-183"/>
      <point x="275" y="-206"/>
    </contour>
  </outline>
</glyph>
<glyph name="iogonek" format="2">
  <advance width="332"/>
  <unicode hex="012F"/>
  <outline>
    <contour>
      <point x="227" y="-206" type="qcurve"/>
      <point x="186" y="-206"/>
      <point x="130" y="-170"/>
      <point x="130" y="-130" type="qcurve"/>
      <point x="130" y="-92"/>
      <point x="189" y="-35"/>
      <point x="238" y="-4" type="qcurve"/>
      <point x="237" y="0" type="line"/>
      <point x="48" y="0" type="line"/>
      <point x="48" y="50" type="line"/>
      <point x="119" y="50" type="line"/>
      <point x="119" y="446" type="line"/>
      <point x="48" y="459" type="line"/>
      <point x="48" y="497" type="line"/>
      <point x="215" y="530" type="line"/>
      <point x="215" y="50" type="line"/>
      <point x="286" y="50" type="line"/>
      <point x="286" y="0" type="line"/>
      <point x="257" y="-24"/>
      <point x="225" y="-60"/>
      <point x="208" y="-88"/>
      <point x="204" y="-110"/>
      <point x="204" y="-119" type="qcurve"/>
      <point x="204" y="-139"/>
      <point x="229" y="-165"/>
      <point x="250" y="-165" type="qcurve"/>
      <point x="264" y="-165"/>
      <point x="286" y="-152"/>
      <point x="293" y="-143" type="qcurve"/>
      <point x="317" y="-166" type="line"/>
      <point x="306" y="-183"/>
      <point x="262" y="-206"/>
    </contour>
    <contour>
      <point x="167" y="627" type="qcurve"/>
      <point x="138" y="627"/>
      <point x="107" y="661"/>
      <point x="107" y="686" type="qcurve"/>
      <point x="107" y="691" type="line"/>
      <point x="107" y="716"/>
      <point x="138" y="750"/>
      <point x="167" y="750" type="qcurve"/>
      <point x="196" y="750"/>
      <point x="227" y="716"/>
      <point x="227" y="691" type="qcurve"/>
      <point x="227" y="686" type="line"/>
      <point x="227" y="661"/>
      <point x="196" y="627"/>
    </contour>
  </outline>
</glyph>
<glyph name="dotlessi" format="2">
  <advance width="319"/>
  <unicode hex="0131"/>
  <outline>
    <contour>
      <point x="48" y="50" type="line"/>
      <point x="119" y="50" type="line"/>
      <point x="119" y="446" type="line"/>
      <point x="48" y="459" type="line"/>
      <point x="48" y="497" type="line"/>
      <point x="215" y="530" type="line"/>
      <point x="215" y="50" type="line"/>
      <point x="286" y="50" type="line"/>
      <point x="286" y="0" type="line"/>
      <point x="48" y="0" type="line"/>
    </contour>
  </outline>
</glyph>
<glyph name="kgreenlandic" format="2">
  <advance width="608"/>
  <unicode hex="0138"/>
  <outline>
    <contour>
      <point x="48" y="50" type="line"/>
      <point x="119" y="50" type="line"/>
      <point x="119" y="446" type="line"/>
      <point x="48" y="459" type="line"/>
      <point x="48" y="497" type="line"/>
      <point x="215" y="530" type="line"/>
      <point x="215" y="241" type="line"/>
      <point x="219" y="241" type="line"/>
      <point x="299" y="332" type="line"/>
      <point x="424" y="468" type="line"/>
      <point x="357" y="468" type="line"/>
      <point x="357" y="518" type="line"/>
      <point x="574" y="518" type="line"/>
      <point x="574" y="468" type="line"/>
      <point x="501" y="468" type="line"/>
      <point x="362" y="324" type="line"/>
      <point x="541" y="50" type="line"/>
      <point x="595" y="50" type="line"/>
      <point x="595" y="0" type="line"/>
      <point x="373" y="0" type="line"/>
      <point x="373" y="50" type="line"/>
      <point x="433" y="50" type="line"/>
      <point x="297" y="262" type="line"/>
      <point x="215" y="175" type="line"/>
      <point x="215" y="50" type="line"/>
      <point x="286" y="50" type="line"/>
      <point x="286" y="0" type="line"/>
      <point x="48" y="0" type="line"/>
    </contour>
  </outline>
</glyph>
<glyph name="Lslash" format="2">
  <advance width="600"/>
  <unicode hex="0141"/>
  <outline>
    <contour>
      <point x="54" y="50" type="line"/>
      <point x="128" y="50" type="line"/>
      <point x="128" y="278" type="line"/>
      <point x="38" y="247" type="line"/>
      <point x="38" y="301" type="line"/>
      <point x="128" y="332" type="line"/>
      <point x="128" y="648" type="line"/>
      <point x="54" y="648" type="line"/>
      <point x="54" y="698" type="line"/>
      <point x="303" y="698" type="line"/>
      <point x="303" y="648" type="line"/>
      <point x="229" y="648" type="line"/>
      <point x="229" y="366" type="line"/>
      <point x="380" y="418" type="line"/>
      <point x="380" y="364" type="line"/>
      <point x="229" y="312" type="line"/>
      <point x="229" y="54" type="line"/>
      <point x="472" y="54" type="line"/>
      <point x="472" y="182" type="line"/>
      <point x="552" y="182" type="line"/>
      <point x="552" y="0" type="line"/>
      <point x="54" y="0" type="line"/>
    </contour>
  </outline>
</glyph>
<glyph name="lslash" format="2">
  <advance width="312"/>
  <unicode hex="0142"/>
  <outline>
    <contour>
      <point x="37" y="50" type="line"/>
      <point x="108" y="50" type="line"/>
      <point x="108" y="337" type="line"/>
      <point x="22" y="309" type="line"/>
      <point x="22" y="360" type="line"/>
      <point x="108" y="388" type="line"/>
      <point x="108" y="676" type="line"/>
      <point x="37" y="689" type="line"/>
      <point x="37" y="727" type="line"/>
      <point x="204" y="760" type="line"/>
      <point x="204" y="418" type="line"/>
      <point x="292" y="446" type="line"/>
      <point x="292" y="395" type="line"/>
      <point x="204" y="367" type="line"/>
      <point x="204" y="50" type="line"/>
      <point x="275" y="50" type="line"/>
      <point x="275" y="0" type="line"/>
      <point x="37" y="0" type="line"/>
    </contour>
  </outline>
</glyph>
<glyph name="Eng" format="2">
  <advance width="780"/>
  <unicode hex="014A"/>
  <outline>
    <contour>
      <point x="538" y="-212" type="qcurve"/>
      <point x="487" y="-212"/>
      <point x="436" y="-167"/>
      <point x="436" y="-132" type="qcurve"/>
      <point x="436" y="-109"/>
      <point x="465" y="-76"/>
      <point x="489" y="-76" type="qcurve"/>
      <point x="513" y="-76"/>
      <point x="538" y="-104"/>
      <point x="538" y="-126" type="qcurve"/>
      <point x="538" y="-141"/>
      <point x="526" y="-164"/>
      <point x="516" y="-167" type="qcurve"/>
      <point x="516" y="-171" type="line"/>
      <point x="526" y="-174"/>
      <point x="540" y="-174" type="qcurve"/>
      <point x="570" y="-174"/>
      <point x="603" y="-127"/>
      <point x="603" y="-79" type="qcurve"/>
      <point x="603" y="0" type="line"/>
      <point x="580" y="0" type="line"/>
      <point x="190" y="597" type="line"/>
      <point x="185" y="597" type="line"/>
      <point x="185" y="50" type="line"/>
      <point x="259" y="50" type="line"/>
      <point x="259" y="0" type="line"/>
      <point x="52" y="0" type="line"/>
      <point x="52" y="50" type="line"/>
      <point x="126" y="50" type="line"/>
      <point x="126" y="648" type="line"/>
      <point x="52" y="648" type="line"/>
      <point x="52" y="698" type="line"/>
      <point x="240" y="698" type="line"/>
      <point x="598" y="150" type="line"/>
      <point x="603" y="150" type="line"/>
      <point x="603" y="648" type="line"/>
      <point x="529" y="648" type="line"/>
      <point x="529" y="698" type="line"/>
      <point x="736" y="698" type="line"/>
      <point x="736" y="648" type="line"/>
      <point x="662" y="648" type="line"/>
      <point x="662" y="-76" type="line"/>
      <point x="662" y="-145"/>
      <point x="592" y="-212"/>
    </contour>
  </outline>
</glyph>
<glyph name="eng" format="2">
  <advance width="637"/>
  <unicode hex="014B"/>
  <outline>
    <contour>
      <point x="380" y="-212" type="qcurve"/>
      <point x="329" y="-212"/>
      <point x="278" y="-167"/>
      <point x="278" y="-132" type="qcurve"/>
      <point x="278" y="-109"/>
      <point x="307" y="-76"/>
      <point x="331" y="-76" type="qcurve"/>
      <point x="355" y="-76"/>
      <point x="380" y="-104"/>
      <point x="380" y="-126" type="qcurve"/>
      <point x="380" y="-141"/>
      <point x="368" y="-164"/>
      <point x="358" y="-167" type="qcurve"/>
      <point x="358" y="-171" type="line"/>
      <point x="368" y="-174"/>
      <point x="382" y="-174" type="qcurve"/>
      <point x="443" y="-174"/>
      <point x="443" y="-90" type="qcurve"/>
      <point x="443" y="329" type="line"/>
      <point x="443" y="398"/>
      <point x="388" y="464"/>
      <point x="330" y="464" type="qcurve"/>
      <point x="309" y="464"/>
      <point x="268" y="452"/>
      <point x="235" y="428"/>
      <point x="215" y="392"/>
      <point x="215" y="367" type="qcurve"/>
      <point x="215" y="50" type="line"/>
      <point x="286" y="50" type="line"/>
      <point x="286" y="0" type="line"/>
      <point x="48" y="0" type="line"/>
      <point x="48" y="50" type="line"/>
      <point x="119" y="50" type="line"/>
      <point x="119" y="446" type="line"/>
      <point x="48" y="459" type="line"/>
      <point x="48" y="497" type="line"/>
      <point x="213" y="530" type="line"/>
      <point x="213" y="438" type="line"/>
      <point x="217" y="438" type="line"/>
      <point x="223" y="454"/>
      <point x="248" y="487"/>
      <point x="285" y="513"/>
      <point x="334" y="530"/>
      <point x="365" y="530" type="qcurve"/>
      <point x="459" y="530"/>
      <point x="539" y="433"/>
      <point x="539" y="336" type="qcurve"/>
      <point x="539" y="-41" type="line"/>
      <point x="539" y="-129"/>
      <point x="456" y="-212"/>
    </contour>
  </outline>
</glyph>
<glyph name="OE" format="2">
  <advance width="1016"/>
  <unicode hex="0152"/>
  <outline>
    <contour>
      <point x="370" y="-12" type="qcurve"/>
      <point x="296" y="-12"/>
      <point x="178" y="38"/>
      <point x="95" y="131"/>
      <point x="50" y="265"/>
      <point x="50" y="349" type="qcurve"/>
      <point x="50" y="433"/>
      <point x="95" y="567"/>
      <point x="178" y="660"/>
      <point x="296" y="710"/>
      <point x="370" y="710" type="qcurve"/>
      <point x="422" y="710"/>
      <point x="464" y="698" type="qcurve"/>
      <point x="949" y="698" type="line"/>
      <point x="949" y="527" type="line"/>
      <point x="869" y="527" type="line"/>
      <point x="869" y="644" type="line"/>
      <point x="600" y="644" type="line"/>
      <point x="600" y="388" type="line"/>
      <point x="785" y="388" type="line"/>
      <point x="785" y="464" type="line"/>
      <point x="848" y="464" type="line"/>
      <point x="848" y="258" type="line"/>
      <point x="785" y="258" type="line"/>
      <point x="785" y="334" type="line"/>
      <point x="600" y="334" type="line"/>
      <point x="600" y="54" type="line"/>
      <point x="878" y="54" type="line"/>
      <point x="878" y="182" type="line"/>
      <point x="958" y="182" type="line"/>
      <point x="958" y="0" type="line"/>
      <point x="464" y="0" type="line"/>
      <point x="422" y="-12"/>
    </contour>
    <contour>
      <point x="370" y="45" type="qcurve"/>
      <point x="411" y="45"/>
      <point x="477" y="63"/>
      <point x="499" y="83" type="qcurve"/>
      <point x="499" y="615" type="line"/>
      <point x="477" y="635"/>
      <point x="411" y="653"/>
      <point x="370" y="653" type="qcurve"/>
      <point x="318" y="653"/>
      <point x="240" y="619"/>
      <point x="188" y="557"/>
      <point x="162" y="470"/>
      <point x="162" y="417" type="qcurve"/>
      <point x="162" y="281" type="line"/>
      <point x="162" y="228"/>
      <point x="188" y="141"/>
      <point x="240" y="79"/>
      <point x="318" y="45"/>
    </contour>
  </outline>
</glyph>
